<?xml version="1.0" encoding="utf-8"?>
<!DOCTYPE svg PUBLIC "-//W3C//DTD SVG 1.1//EN" "http://www.w3.org/Graphics/SVG/1.1/DTD/svg11.dtd">
<svg version="1.1" xmlns="http://www.w3.org/2000/svg" xmlns:xlink="http://www.w3.org/1999/xlink" x="0px" y="0px"
	 width="91px" height="91px" viewBox="0 0 91 91" enable-background="new 0 0 91 91" xml:space="preserve">
<g>
	<path fill="#fff" stroke="#333333" stroke-linecap="round" stroke-linejoin="round" stroke-miterlimit="10" d="M21.358,43.88c1.959,3.385,3.867,7.292,3.815,14.497c-0.007,10.15,1.869,15.443,3.449,18.102
		c1.742,2.896,2.735,4.076,5.587,4.076c2.665,0,4.239-2.311,4.413-4.559c0.118-1.203,0.141-2.594,0.164-4.064
		c0.054-3.379,0.122-7.582,1.386-11.857l0.04-0.129c0.528-1.723,1.129-3.678,2.289-5.428c0.696-1.051,2.181-2.113,3.675-2.113
		c1.196,0,2.235,0.695,3.088,2.07c1.117,1.799,1.79,3.752,2.348,5.586c1.272,4.275,1.822,9.227,1.471,13.246
		c-0.227,2.586,0.257,4.549,1.436,5.836c1.201,1.311,2.649,1.412,3.064,1.412h0.002c2.699,0,3.855-1.201,5.584-4.082
		c1.576-2.65,3.455-7.939,3.447-18.105c-0.049-7.189,1.861-11.103,3.838-14.522l0.264-0.478c1.778-3.207,3.313-5.976,3.375-12.761
		c0-0.223-0.005-0.451-0.01-0.688l-0.007-0.417c-0.18-4.811-1.953-8.219-5.599-10.736c-2.965-2-7.133-3.101-11.736-3.101h-0.14
		c-3.721,0-7.616,0.759-10.406,2.022l-0.3,0.133l-0.283-0.125c-2.203-1.003-5.118-1.692-8.207-1.94
		c-0.052-0.004-0.105-0.006-0.158-0.005l-5.037,0.066c-0.056,0-0.112,0.004-0.168,0.01c-3.437,0.388-6.456,1.406-8.744,2.953
		c-3.632,2.506-5.407,5.913-5.585,10.771l-0.007,0.475c-0.004,0.203-0.008,0.398-0.007,0.597c0.057,6.757,1.591,9.524,3.368,12.731
		L21.358,43.88z M21.111,29.626c0.139-3.746,1.37-6.153,4.104-8.04c1.805-1.22,4.267-2.04,7.125-2.373l4.871-0.064
		c2.639,0.219,5.183,0.816,7.008,1.647l0.936,0.414l6.697,3.554c0.254,0.135,0.527,0.198,0.795,0.198
		c0.609,0,1.198-0.328,1.504-0.902c0.439-0.83,0.124-1.859-0.705-2.299l-3.432-1.821c2.015-0.552,4.355-0.876,6.587-0.876h0.14
		c3.875,0,7.461,0.919,9.82,2.51c2.746,1.896,3.977,4.305,4.116,8.014l0.007,0.395c0.004,0.215,0.008,0.422,0.008,0.61
		c-0.053,5.905-1.268,8.096-2.947,11.126l-0.251,0.455c-2.099,3.629-4.332,8.175-4.278,16.208
		c0.008,9.875-1.857,14.484-2.967,16.348c-1.447,2.412-1.756,2.426-2.65,2.426c-0.055-0.004-0.344-0.041-0.598-0.336
		c-0.275-0.318-0.711-1.16-0.531-3.217c0.393-4.488-0.189-9.777-1.602-14.521c-0.628-2.064-1.392-4.268-2.715-6.4
		c-1.472-2.371-3.594-3.676-5.977-3.676c-2.832,0-5.31,1.824-6.509,3.635c-1.432,2.16-2.138,4.461-2.706,6.311l-0.044,0.145
		c-1.402,4.736-1.474,9.197-1.531,12.783c-0.023,1.461-0.044,2.723-0.151,3.822c-0.001,0.014-0.138,1.455-1.026,1.455
		c-1.075,0-1.213,0-2.669-2.42c-1.111-1.871-2.975-6.482-2.967-16.344c0.059-8.049-2.175-12.59-4.255-16.184l-0.278-0.503
		c-1.679-3.029-2.893-5.219-2.942-11.098L21.111,29.626z"/>
</g>
</svg>
