<?xml version="1.0" encoding="utf-8"?>
<!DOCTYPE svg PUBLIC "-//W3C//DTD SVG 1.1//EN" "http://www.w3.org/Graphics/SVG/1.1/DTD/svg11.dtd">
<svg version="1.1" id="Layer_1" xmlns="http://www.w3.org/2000/svg" xmlns:xlink="http://www.w3.org/1999/xlink" x="0px" y="0px"
	 width="91px" height="91px" viewBox="0 0 91 91" enable-background="new 0 0 91 91" xml:space="preserve">
<g>
	<path fill="#fff" stroke="#333333" stroke-linecap="round" stroke-linejoin="round" stroke-miterlimit="10"  d="M11.736,52.043c0.324,0,0.664-0.014,1.008-0.027c0.414-0.018,0.789-0.182,1.074-0.439c0.916-0.102,2.186-0.232,3.926-0.402
		c-0.244,0.781-0.578,1.621-1.061,2.559c-2.529,4.98-2.924,8.104-2.807,9.857c0.131,1.799,0.35,3.045,2.107,3.932
		c0.436,0.221,0.893,0.334,1.361,0.334c1.342,0,2.369-0.902,2.867-1.719c0.363-0.57,0.715-1.24,1.088-1.947
		c0.859-1.633,1.834-3.482,3.445-5.188c0.625-0.65,1.334-1.389,2.211-1.883c0.25-0.143,0.59-0.229,0.91-0.229
		c0.729,0,1.057,0.352,1.131,1.213c0.092,1.049-0.053,2.074-0.219,3.018c-0.406,2.242-1.297,4.625-2.383,6.375
		c-0.852,1.369-1.127,2.629-0.818,3.746c0.336,1.221,1.244,1.77,1.529,1.916c0.398,0.201,0.943,0.434,1.623,0.434
		c0.918,0,1.75-0.41,2.799-1.07c1.475-0.934,3.76-3.096,6.285-8.098c1.627-3.262,3.309-4.537,5.063-5.68l0.248-0.17
		c1.633-1.109,3.176-2.156,4.945-5.57l0.26-0.535c0.207-0.449,0.363-0.891,0.496-1.33c0.061,0.645,0.102,1.32,0.096,2.076
		c0,0.014,0.002,0.025,0.002,0.037v0.002c-0.002,6.402,1.205,9.783,2.225,11.498c1.063,1.766,1.861,2.838,4.014,2.838
		c2.039,0,3.244-1.729,3.377-3.406c0.076-0.773,0.092-1.648,0.105-2.574c0.031-2.051,0.072-4.602,0.85-7.217
		c0.313-1.029,0.668-2.197,1.34-3.209c0.328-0.492,1.047-1.018,1.734-1.018c0.188,0,0.756,0,1.361,0.977
		c0.664,1.066,1.059,2.219,1.383,3.301c0.768,2.568,1.098,5.541,0.887,7.957c-0.156,1.789,0.199,3.17,1.057,4.105
		c0.922,1.006,2.051,1.084,2.375,1.084l0,0c1.963,0,2.857-0.916,4.012-2.844c1.02-1.709,2.234-5.098,2.225-11.539
		c-0.006-0.805,0.041-1.521,0.111-2.197c1.648,0.146,1.934,0.193,2.395,0.27c0.408,0.068,0.941,0.156,2.42,0.336
		c0.07,0.008,0.139,0.012,0.205,0.012c0.85,0,1.582-0.635,1.686-1.496c0.113-0.934-0.551-1.781-1.484-1.893
		c-1.387-0.168-1.887-0.25-2.27-0.313c-0.533-0.09-0.891-0.143-2.238-0.268c0.414-1.199,0.936-2.197,1.473-3.124l0.16-0.291
		c1.096-1.976,2.133-3.843,2.172-8.217l-0.008-0.711c-0.121-3.197-1.309-5.467-3.75-7.153c-1.938-1.312-4.643-2.033-7.617-2.033
		h-0.113c-2.338,0-4.803,0.475-6.613,1.271c-1.426-0.63-3.27-1.059-5.203-1.212c-0.053-0.005-0.107-0.005-0.156-0.005l-3.119,0.041
		c-0.057,0.001-0.111,0.004-0.168,0.011c-2.229,0.249-4.197,0.916-5.707,1.938c-2.428,1.677-3.615,3.947-3.738,7.208l-0.006,0.66
		c0.021,2.859,0.479,4.645,1.1,6.095c-0.711-0.548-1.506-1.046-2.367-1.48c-1.814-0.923-3.904-1.53-5.619-1.641
		c-0.863-1.032-2.105-2.067-3.521-2.929c-0.043-0.027-0.09-0.053-0.135-0.074l-2.412-1.185c-0.051-0.024-0.104-0.048-0.156-0.067
		c-1.426-0.531-2.867-0.813-4.166-0.813c-0.365,0-0.723,0.021-1.09,0.067c-2.564,0.35-4.471,1.71-5.844,4.196l-0.275,0.522
		c-1.693,3.411-1.623,5.276-1.549,7.254l0.014,0.336c0.029,0.512,0.045,1.041,0.029,1.6c-0.254-0.109-0.533-0.164-0.828-0.139
		c-2.467,0.238-4.291,0.434-5.426,0.576c-1.389,0.176-2.961,0.377-2.848,2.049C9.299,51.813,10.395,52.043,11.736,52.043z
		 M47.703,35.444c0.08-2.119,0.738-3.416,2.256-4.466c1.012-0.684,2.461-1.163,4.088-1.356L57,29.583
		c1.543,0.129,3.027,0.477,4.092,0.959l0.557,0.248l4.131,2.191c0.254,0.135,0.527,0.198,0.797,0.198
		c0.607,0,1.197-0.328,1.502-0.903c0.439-0.83,0.125-1.859-0.705-2.299l-0.543-0.288c0.719-0.104,1.459-0.161,2.178-0.161h0.113
		c2.27,0,4.35,0.529,5.699,1.441c1.533,1.059,2.189,2.354,2.268,4.424l0.008,0.618c-0.031,3.495-0.713,4.724-1.744,6.583
		l-0.146,0.266c-1.342,2.315-2.77,5.216-2.738,10.358c0.01,5.957-1.088,8.688-1.742,9.783c-0.576,0.961-0.797,1.15-0.816,1.17
		c-0.006,0.002-0.045,0.012-0.162,0.016c-0.061-0.092-0.248-0.469-0.16-1.492c0.252-2.861-0.119-6.223-1.016-9.227
		c-0.375-1.248-0.877-2.715-1.754-4.123c-1.031-1.664-2.541-2.58-4.248-2.58c-1.75,0-3.543,0.996-4.568,2.537
		c-0.945,1.428-1.416,2.973-1.781,4.17c-0.895,3.016-0.938,5.824-0.975,8.082c-0.014,0.893-0.025,1.662-0.09,2.328
		c-0.008,0.098-0.049,0.225-0.088,0.305c-0.076,0-0.129-0.004-0.158-0.004c-0.018,0-0.027,0.002-0.027,0.004
		c-0.102-0.084-0.322-0.365-0.814-1.182c-0.619-1.045-1.639-3.57-1.734-8.914l3.346-2.361c0.768-0.541,0.951-1.602,0.408-2.369
		c-0.539-0.766-1.6-0.951-2.369-0.41l-1.586,1.119c-0.109-0.848-0.266-1.617-0.453-2.326l6.102-4.085
		c0.781-0.521,0.99-1.576,0.469-2.357c-0.521-0.779-1.578-0.99-2.359-0.467l-5.434,3.637c-0.277-0.561-0.564-1.088-0.848-1.575
		l-0.174-0.315c-0.02-0.035-0.037-0.068-0.057-0.103l6.219-4.407c0.768-0.543,0.947-1.604,0.404-2.37
		c-0.543-0.768-1.605-0.946-2.369-0.404l-5.607,3.974c-0.197-0.85-0.314-1.867-0.326-3.244L47.703,35.444z M21.672,46.166
		l-0.012-0.309c-0.068-1.794-0.113-2.978,1.188-5.595l0.234-0.443c1.043-1.888,2.205-2.287,3.289-2.434
		c1.049-0.133,2.27,0.064,3.551,0.531l2.262,1.11c1.111,0.686,2.092,1.508,2.709,2.277l0.33,0.402l2.309,3.277
		c0.33,0.471,0.855,0.721,1.391,0.721c0.338,0,0.68-0.1,0.979-0.311c0.711-0.5,0.912-1.446,0.508-2.194
		c0.369,0.146,0.734,0.309,1.084,0.488c1.719,0.865,3.09,2.054,3.754,3.245c0.531,0.979,0.898,2.152,0.01,4.08l-0.221,0.461
		c-1.357,2.615-2.336,3.279-3.82,4.287l-0.223,0.152c-1.957,1.273-4.215,2.971-6.217,6.986c-2.285,4.529-4.154,6.172-5.063,6.746
		c-0.41,0.26-0.666,0.396-0.82,0.469c0.047-0.17,0.154-0.441,0.393-0.826c1.318-2.125,2.354-4.883,2.84-7.568
		c0.199-1.123,0.387-2.467,0.26-3.91c-0.227-2.623-2-4.318-4.518-4.318c-0.91,0-1.83,0.238-2.586,0.668
		c-1.307,0.736-2.279,1.75-3.053,2.557c-1.885,1.994-3.021,4.152-3.936,5.889c-0.34,0.645-0.635,1.205-0.928,1.674
		c-0.027-0.172-0.063-0.457-0.098-0.926c-0.07-1.078,0.152-3.563,2.443-8.074C21.77,51.277,21.801,48.457,21.672,46.166z"/>
	<path fill="#fff" stroke="#333333" stroke-linecap="round" stroke-linejoin="round" stroke-miterlimit="10"  d="M24.252,24.514l9.576,6.918c0.301,0.218,0.648,0.322,0.994,0.322c0.525,0,1.047-0.245,1.379-0.704
		c0.549-0.762,0.379-1.824-0.383-2.374l-9.576-6.918c-0.76-0.55-1.824-0.38-2.373,0.382C23.318,22.901,23.49,23.964,24.252,24.514z"
		/>
	<path fill="#fff" stroke="#333333" stroke-linecap="round" stroke-linejoin="round" stroke-miterlimit="10"  d="M38.084,26.431c0.162,0.809,0.871,1.367,1.666,1.367c0.109,0,0.223-0.011,0.334-0.033c0.922-0.184,1.518-1.08,1.334-2
		l-2.701-13.519c-0.184-0.921-1.078-1.519-2-1.334c-0.922,0.184-1.518,1.08-1.334,2L38.084,26.431z"/>
	<path fill="#fff" stroke="#333333" stroke-linecap="round" stroke-linejoin="round" stroke-miterlimit="10"  d="M46.723,26.936c0.246,0.126,0.508,0.185,0.768,0.185c0.619,0,1.217-0.34,1.518-0.93l5.494-10.818
		c0.426-0.837,0.092-1.86-0.746-2.286c-0.834-0.425-1.859-0.093-2.285,0.746l-5.494,10.817
		C45.551,25.487,45.885,26.511,46.723,26.936z"/>
</g>
</svg>
