<?xml version="1.0" encoding="utf-8"?>
<!DOCTYPE svg PUBLIC "-//W3C//DTD SVG 1.1//EN" "http://www.w3.org/Graphics/SVG/1.1/DTD/svg11.dtd">
<svg version="1.1" id="Layer_1" xmlns="http://www.w3.org/2000/svg" xmlns:xlink="http://www.w3.org/1999/xlink" x="0px" y="0px"
	 width="91px" height="91px" viewBox="0 0 91 91" enable-background="new 0 0 91 91" xml:space="preserve">
<g>
	<path fill="#fff" stroke="#333333" stroke-linecap="round" stroke-linejoin="round" stroke-miterlimit="10"  d="M51.994,74.459c1.059,1.156,2.346,1.246,2.715,1.246l0,0c2.322,0,3.352-1.063,4.787-3.453
		c1.293-2.172,2.832-6.494,2.828-14.771c-0.039-5.715,1.479-8.826,3.053-11.551l0.213-0.383c1.455-2.627,2.711-4.893,2.762-10.451
		l-0.014-0.904c-0.148-3.99-1.625-6.822-4.66-8.92c-2.445-1.648-5.871-2.557-9.646-2.557h-0.113c-3.043,0-6.236,0.623-8.526,1.66
		l-0.109,0.047l-0.092-0.039c-1.813-0.824-4.201-1.391-6.729-1.594c-0.053-0.004-0.101-0.006-0.159-0.006l-4.061,0.053
		c-0.056,0.002-0.112,0.004-0.168,0.012c-2.824,0.318-5.31,1.158-7.201,2.438c-3.022,2.086-4.499,4.914-4.647,8.949l-0.012,0.875
		c0.046,5.531,1.302,7.797,2.756,10.422l0.24,0.434c1.557,2.689,3.074,5.795,3.032,11.527c-0.005,8.264,1.534,12.588,2.83,14.766
		c1.44,2.396,2.329,3.447,4.787,3.447c2.347,0,3.733-2.014,3.887-3.973c0.096-0.984,0.113-2.111,0.133-3.305
		c0.043-2.705,0.098-6.07,1.104-9.471l0.033-0.109c0.42-1.367,0.896-2.918,1.805-4.287c0.514-0.773,1.602-1.557,2.689-1.557
		c0.844,0,1.588,0.51,2.211,1.514c0.881,1.416,1.414,2.969,1.857,4.424c1.014,3.41,1.453,7.357,1.174,10.563
		C50.561,71.684,50.979,73.352,51.994,74.459z M50.609,52.725c-1.25-2.014-3.061-3.121-5.1-3.121c-2.406,0-4.508,1.545-5.523,3.078
		c-1.179,1.779-1.757,3.658-2.221,5.166l-0.039,0.127c-1.143,3.863-1.201,7.488-1.247,10.398c-0.019,1.172-0.035,2.182-0.121,3.061
		c0,0.008-0.114,0.871-0.5,0.871c-0.732,0-0.792,0-1.869-1.791c-0.879-1.479-2.353-5.135-2.347-13.008
		c0.048-6.576-1.776-10.285-3.472-13.213l-0.226-0.41c-1.33-2.4-2.292-4.135-2.33-8.787l0.01-0.779
		c0.108-2.906,1.059-4.77,3.167-6.225c1.408-0.951,3.337-1.594,5.582-1.857l3.894-0.051c2.086,0.176,4.092,0.646,5.531,1.301
		l0.741,0.328l5.394,2.861c0.254,0.135,0.527,0.197,0.795,0.197c0.609,0,1.199-0.328,1.504-0.902
		c0.439-0.83,0.125-1.859-0.705-2.299l-2.008-1.064c1.393-0.311,2.926-0.49,4.398-0.49h0.113c3.061,0,5.885,0.721,7.73,1.965
		c2.119,1.465,3.07,3.33,3.178,6.195l0.012,0.805c-0.041,4.68-1.004,6.416-2.336,8.818l-0.197,0.359
		c-1.715,2.965-3.539,6.678-3.494,13.236c0.004,7.887-1.471,11.541-2.346,13.014c-1.061,1.766-1.24,1.797-1.838,1.797
		c-0.404-0.059-0.738-0.934-0.602-2.506c0.32-3.662-0.154-7.973-1.305-11.836C52.32,56.275,51.695,54.473,50.609,52.725z"/>
	<path fill="#fff" stroke="#333333" stroke-linecap="round" stroke-linejoin="round" stroke-miterlimit="10"  d="M12.806,53.129h9.068c0.623,0,1.195-0.34,1.493-0.887s0.272-1.213-0.065-1.736c-0.091-0.141-9.013-14.156-3.352-24.15
		c2.181-3.852,6.782-6.234,12.308-6.377c5.217-0.119,11.359,1.484,11.419,1.502c0.324,0.084,0.666,0.074,0.984-0.033
		c0.125-0.043,12.694-4.217,20.26,0.275c7.309,4.342,9.225,12.58,4.883,20.992c-2.629,5.092-3.215,7.932-1.963,9.498
		c0.561,0.699,1.326,0.941,1.986,0.941c0.125,0,0.246-0.01,0.361-0.025h9.342c0.939,0,1.699-0.76,1.699-1.699
		s-0.76-1.701-1.699-1.701h-8.887c0.121-0.748,0.578-2.348,2.182-5.453c5.154-9.986,2.676-20.223-6.168-25.477
		c-8.08-4.797-20.002-1.531-22.598-0.73c-1.641-0.402-7.012-1.625-11.889-1.488c-6.73,0.172-12.405,3.199-15.18,8.1
		c-5.105,9.012-0.607,20.074,1.965,25.049h-6.15c-0.939,0-1.7,0.762-1.7,1.701S11.867,53.129,12.806,53.129z"/>
</g>
</svg>
