<?xml version="1.0" encoding="utf-8"?>
<!DOCTYPE svg PUBLIC "-//W3C//DTD SVG 1.1//EN" "http://www.w3.org/Graphics/SVG/1.1/DTD/svg11.dtd">
<svg version="1.1" id="Layer_1" xmlns="http://www.w3.org/2000/svg" xmlns:xlink="http://www.w3.org/1999/xlink" x="0px" y="0px"
	 width="91px" height="91px" viewBox="0 0 91 91" enable-background="new 0 0 91 91" xml:space="preserve">
<g>
	<path fill="#fff" stroke="#333333" stroke-linecap="round" stroke-linejoin="round" stroke-miterlimit="10"  d="M32.454,43.559c1.063,1.838,2.096,3.957,2.066,7.875c0,5.943,1.123,9.078,2.068,10.666c1,1.666,1.756,2.676,3.805,2.676
		c1.955,0,3.109-1.652,3.238-3.254c0.07-0.715,0.084-1.52,0.098-2.373c0.031-1.973,0.066-4.209,0.771-6.592
		c0.287-0.936,0.613-1.998,1.219-2.912c0.285-0.43,0.914-0.873,1.477-0.873c0.152,0,0.617,0,1.131,0.828
		c0.594,0.957,0.955,2.012,1.256,2.998c0.697,2.344,1,5.057,0.809,7.26c-0.146,1.684,0.191,2.988,1.004,3.877
		c0.885,0.967,1.971,1.041,2.283,1.041l0,0c1.859,0,2.74-0.902,3.805-2.68c0.945-1.584,2.07-4.719,2.068-10.674
		c-0.027-3.902,0.963-5.949,2.088-7.895l0.145-0.264c1.018-1.832,1.977-3.563,2.014-7.617l-0.01-0.654
		c-0.109-2.945-1.25-5.127-3.504-6.686c-1.805-1.217-4.318-1.889-7.166-1.889c-2.146,0-4.41,0.432-6.082,1.156
		c-1.303-0.568-2.988-0.959-4.766-1.104c-0.053-0.004-0.109-0.006-0.16-0.006l-2.863,0.039c-0.057,0-0.113,0.004-0.168,0.01
		c-2.074,0.236-3.904,0.857-5.303,1.805c-2.24,1.543-3.383,3.725-3.492,6.695c-0.006,0.23-0.01,0.439-0.01,0.646
		c0.031,4.023,0.988,5.75,2.002,7.58L32.454,43.559z M33.683,35.115c0.07-1.898,0.656-3.055,2.012-3.988
		c0.906-0.615,2.211-1.047,3.686-1.225l2.693-0.035c1.412,0.121,2.756,0.436,3.711,0.871l0.506,0.225l3.789,2.01
		c0.254,0.135,0.525,0.199,0.795,0.199c0.609,0,1.197-0.328,1.504-0.904c0.439-0.83,0.123-1.857-0.705-2.299l-0.094-0.049
		c0.537-0.061,1.08-0.102,1.625-0.102c2.061,0,3.949,0.477,5.162,1.297c1,0.689,1.938,1.654,2.023,3.967l0.008,0.549
		c-0.029,3.176-0.648,4.293-1.586,5.984l-0.133,0.24c-1.24,2.148-2.561,4.838-2.527,9.58c0.002,5.441-0.994,7.922-1.586,8.916
		c-0.5,0.834-0.693,1.012-0.664,1.012c-0.002,0-0.012,0.002-0.033,0.006c-0.057-0.137-0.152-0.486-0.088-1.217
		c0.229-2.646-0.113-5.754-0.941-8.535c-0.371-1.215-0.822-2.518-1.621-3.809c-0.977-1.572-2.404-2.438-4.021-2.438
		c-1.654,0-3.346,0.941-4.311,2.395c-0.877,1.326-1.314,2.752-1.656,3.865c-0.826,2.789-0.867,5.381-0.9,7.465
		c-0.012,0.814-0.023,1.518-0.082,2.123c-0.004,0.045-0.018,0.102-0.035,0.152c-0.01,0-0.018-0.002-0.023-0.002
		c-0.102-0.109-0.299-0.379-0.682-1.014c-0.594-0.996-1.588-3.479-1.586-8.908c0.035-4.76-1.283-7.445-2.506-9.559l-0.164-0.297
		c-0.934-1.686-1.551-2.801-1.576-5.945C33.675,35.477,33.679,35.293,33.683,35.115z"/>
	<path fill="#fff" stroke="#333333" stroke-linecap="round" stroke-linejoin="round" stroke-miterlimit="10"  d="M46.454,79.75c0.016,0.006,0.033,0.004,0.051,0.008c0.146,0.043,0.299,0.072,0.461,0.072h0.141
		c0.174,0,0.346-0.027,0.512-0.08C84.345,68.166,77.442,22.932,77.37,22.477c-0.105-0.646-0.57-1.174-1.197-1.359l-28.584-8.455
		c-0.156-0.047-0.318-0.07-0.482-0.07h-0.141c-0.15,0-0.295,0.025-0.434,0.063c-0.016,0.004-0.033,0.002-0.049,0.008l-28.586,8.455
		c-0.625,0.186-1.09,0.713-1.195,1.359C16.628,22.932,9.724,68.166,46.454,79.75z M19.921,24.064l25.346-7.496v5.934
		c0,0.939,0.76,1.701,1.699,1.701s1.699-0.762,1.699-1.701v-5.977l25.486,7.539c0.35,3.002,1.105,12.053-1.029,21.885
		c-3.26,15.018-11.492,25.033-24.457,29.83v-9.414c0-0.939-0.76-1.699-1.699-1.699s-1.699,0.76-1.699,1.699v9.363
		c-12.885-4.816-21.07-14.816-24.318-29.779C18.813,36.117,19.569,27.066,19.921,24.064z"/>
</g>
</svg>
