<?xml version="1.0" encoding="utf-8"?>
<!DOCTYPE svg PUBLIC "-//W3C//DTD SVG 1.1//EN" "http://www.w3.org/Graphics/SVG/1.1/DTD/svg11.dtd">
<svg version="1.1" id="Layer_1" xmlns="http://www.w3.org/2000/svg" xmlns:xlink="http://www.w3.org/1999/xlink" x="0px" y="0px"
	 width="91px" height="91px" viewBox="0 0 91 91" enable-background="new 0 0 91 91" xml:space="preserve">
<g>
	<path fill="#fff" stroke="#333333" stroke-linecap="round" stroke-linejoin="round" stroke-miterlimit="10"  d="M50.211,65.467c0.885,0.965,1.971,1.041,2.281,1.041h0.002c1.857,0,2.738-0.902,3.805-2.682
		c0.943-1.582,2.068-4.717,2.066-10.672c-0.027-3.902,0.965-5.949,2.088-7.896l0.146-0.264c1.016-1.83,1.977-3.561,2.014-7.615
		l-0.01-0.654c-0.109-2.945-1.25-5.129-3.504-6.686c-1.805-1.219-4.318-1.889-7.17-1.889c-2.146,0-4.408,0.432-6.078,1.154
		c-1.305-0.566-2.99-0.957-4.766-1.102c-0.055-0.006-0.109-0.01-0.16-0.006l-2.865,0.039c-0.057,0-0.111,0.004-0.168,0.01
		c-2.072,0.234-3.902,0.855-5.301,1.805c-2.242,1.541-3.385,3.723-3.494,6.693c-0.006,0.23-0.01,0.441-0.008,0.646
		c0.031,4.023,0.988,5.752,2.002,7.582l0.176,0.318c1.107,1.914,2.098,3.953,2.068,7.875c-0.002,5.943,1.121,9.078,2.066,10.666
		c1.002,1.664,1.756,2.676,3.805,2.676c1.955,0,3.111-1.652,3.24-3.254c0.07-0.715,0.082-1.52,0.096-2.373
		c0.031-1.973,0.066-4.209,0.771-6.592c0.289-0.938,0.615-1.998,1.221-2.914c0.283-0.428,0.914-0.871,1.477-0.871
		c0.152,0,0.617,0,1.131,0.828c0.592,0.957,0.955,2.012,1.254,2.998c0.699,2.342,1.002,5.057,0.811,7.258
		C49.059,63.273,49.396,64.578,50.211,65.467z M46.012,47.104c-1.656,0-3.348,0.939-4.313,2.395
		c-0.877,1.324-1.314,2.752-1.656,3.865c-0.824,2.789-0.867,5.381-0.9,7.463c-0.012,0.814-0.023,1.52-0.082,2.125
		c-0.004,0.045-0.018,0.102-0.035,0.15c-0.008,0-0.016,0-0.023,0c-0.102-0.109-0.299-0.381-0.682-1.016
		c-0.592-0.996-1.586-3.477-1.584-8.906c0.035-4.76-1.285-7.447-2.508-9.561l-0.164-0.295c-0.934-1.686-1.551-2.801-1.576-5.945
		c0-0.17,0.004-0.355,0.008-0.533c0.07-1.896,0.656-3.055,2.014-3.988c0.904-0.613,2.211-1.047,3.684-1.223l2.695-0.037
		c1.41,0.123,2.754,0.438,3.711,0.873l0.504,0.225l3.789,2.01c0.254,0.135,0.527,0.197,0.795,0.197c0.609,0,1.199-0.328,1.504-0.902
		c0.439-0.83,0.125-1.859-0.705-2.299l-0.092-0.049c0.537-0.061,1.08-0.102,1.627-0.102c2.059,0,3.945,0.477,5.16,1.295
		c1,0.691,1.936,1.654,2.023,3.969l0.008,0.549c-0.029,3.176-0.648,4.293-1.586,5.982l-0.135,0.242
		c-1.24,2.148-2.561,4.838-2.527,9.578c0.002,5.441-0.992,7.924-1.586,8.916c-0.5,0.836-0.693,1.014-0.662,1.014
		c-0.004,0-0.014,0.002-0.035,0.004c-0.057-0.135-0.152-0.484-0.088-1.215c0.23-2.646-0.111-5.754-0.941-8.535
		c-0.369-1.217-0.822-2.52-1.621-3.811C49.057,47.969,47.629,47.104,46.012,47.104z"/>
	<path fill="#fff" stroke="#333333" stroke-linecap="round" stroke-linejoin="round" stroke-miterlimit="10"  d="M12.904,42.695h10.459v-3.4h-5.232c3.293-12.463,14.771-21.406,27.746-21.406c13.344,0,25.131,9.449,28.029,22.471
		l3.318-0.738c-3.24-14.564-16.426-25.133-31.348-25.133c-14.813,0-27.906,10.414-31.271,24.807h-0.002v-8.76h-3.4v10.461
		C11.203,41.934,11.965,42.695,12.904,42.695z"/>
	<path fill="#fff" stroke="#333333" stroke-linecap="round" stroke-linejoin="round" stroke-miterlimit="10"  d="M68.338,53.965h5.281c-3.291,12.459-14.77,21.4-27.742,21.4c-13.344,0-25.135-9.447-28.033-22.467l-3.318,0.74
		c3.242,14.559,16.428,25.127,31.352,25.127c14.748,0,27.789-10.322,31.223-24.617v8.578h3.4V52.264
		c0-0.938-0.762-1.699-1.701-1.699H68.338V53.965z"/>
</g>
</svg>
