<?xml version="1.0" encoding="utf-8"?>
<!DOCTYPE svg PUBLIC "-//W3C//DTD SVG 1.1//EN" "http://www.w3.org/Graphics/SVG/1.1/DTD/svg11.dtd">
<svg version="1.1" id="Layer_1" xmlns="http://www.w3.org/2000/svg" xmlns:xlink="http://www.w3.org/1999/xlink" x="0px" y="0px"
	 width="91px" height="91px" viewBox="0 0 91 91" enable-background="new 0 0 91 91" xml:space="preserve">
<g>
	<path fill="#fff" stroke="#333333" stroke-linecap="round" stroke-linejoin="round" stroke-miterlimit="10"  d="M62.779,76.809c1.641-2.754,3.598-8.256,3.594-18.846c-0.053-7.51,1.943-11.605,4.008-15.182l0.268-0.482
		c1.852-3.34,3.451-6.223,3.518-13.293c0-0.225-0.004-0.457-0.01-0.699l-0.008-0.447c-0.186-4.992-2.025-8.529-5.805-11.143
		c-3.08-2.078-7.41-3.221-12.195-3.221h-0.16c-3.85,0-7.896,0.787-10.818,2.1l-0.342,0.152l-0.322-0.145
		c-2.283-1.039-5.314-1.756-8.535-2.018c-0.055-0.004-0.105-0.006-0.162-0.006l-5.254,0.072c-0.057,0-0.111,0.004-0.168,0.01
		c-3.574,0.404-6.711,1.463-9.082,3.07c-3.768,2.594-5.609,6.127-5.795,11.146c-0.01,0.41-0.016,0.785-0.016,1.141
		c0.055,7.023,1.65,9.902,3.498,13.234l0.309,0.561c2.047,3.541,4.041,7.627,3.984,15.16c-0.002,10.58,1.949,16.08,3.592,18.838
		c1.803,3,2.828,4.221,5.764,4.221c2.723,0,4.342-2.373,4.531-4.689c0.123-1.252,0.146-2.699,0.17-4.232
		c0.057-3.529,0.125-7.92,1.447-12.391l0.031-0.102c0.557-1.811,1.188-3.865,2.41-5.713c0.736-1.111,2.311-2.236,3.893-2.236
		c1.275,0,2.381,0.738,3.281,2.191c1.18,1.904,1.879,3.939,2.459,5.846c1.328,4.459,1.902,9.635,1.537,13.846
		c-0.234,2.678,0.262,4.707,1.475,6.033c1.232,1.344,2.717,1.447,3.143,1.447h0.002C59.801,81.033,60.994,79.789,62.779,76.809z
		 M18.895,29.006c0-0.32,0.006-0.672,0.014-1.027c0.145-3.934,1.439-6.459,4.314-8.439c1.889-1.279,4.469-2.141,7.465-2.488
		l5.086-0.07c2.77,0.232,5.436,0.857,7.336,1.725l0.975,0.434l6.992,3.707c0.254,0.135,0.527,0.199,0.795,0.199
		c0.609,0,1.199-0.328,1.504-0.904c0.439-0.828,0.123-1.857-0.705-2.299l-3.738-1.98c2.152-0.607,4.67-0.967,7.057-0.967h0.16
		c4.055,0,7.807,0.963,10.279,2.629c2.883,1.994,4.178,4.525,4.322,8.42l0.008,0.426c0.004,0.221,0.008,0.432,0.008,0.621
		c-0.059,6.191-1.33,8.484-3.09,11.658l-0.256,0.461c-0.475,0.824-0.957,1.697-1.42,2.641h-8.293
		c-0.057,0.004-1.32,0.01-1.775-1.135v-3.078c0.029-0.471,0.031-2.051-1.086-3.295c-0.584-0.65-1.68-1.424-3.588-1.424H38.4
		c-1.91,0-3.006,0.773-3.588,1.424c-1.119,1.244-1.115,2.824-1.088,3.295v3.078c-0.422,1.064-1.563,1.133-1.805,1.135h-8.254
		c-0.459-0.932-0.936-1.795-1.404-2.607l-0.297-0.535C20.211,37.439,18.943,35.15,18.895,29.006z M57.029,77.633
		c-0.057-0.004-0.383-0.039-0.67-0.369c-0.295-0.342-0.764-1.236-0.572-3.416c0.408-4.684-0.199-10.191-1.668-15.121
		c-0.617-2.033-1.436-4.412-2.824-6.656c-1.521-2.449-3.713-3.799-6.172-3.799c-2.926,0-5.486,1.887-6.727,3.758
		c-1.496,2.258-2.234,4.66-2.826,6.592l-0.037,0.117c-1.459,4.934-1.531,9.584-1.592,13.318c-0.023,1.525-0.045,2.842-0.156,3.982
		c0,0.016-0.158,1.594-1.145,1.594c-1.131,0-1.305,0-2.846-2.564c-1.162-1.953-3.111-6.77-3.109-17.082
		c0.033-4.547-0.639-8.014-1.604-10.836h6.807c1.439,0.045,4.301-0.736,5.172-3.797c0.043-0.15,0.064-0.309,0.064-0.465v-3.416
		c0-0.039-0.004-0.113-0.006-0.152c-0.01-0.137,0.012-0.582,0.23-0.814c0.232-0.25,0.758-0.287,1.051-0.287h12.857
		c0.291,0,0.818,0.037,1.051,0.287c0.217,0.232,0.24,0.678,0.232,0.785c-0.006,0.061-0.01,0.121-0.01,0.182v3.416
		c0,0.158,0.021,0.314,0.066,0.465c0.857,3.014,3.674,3.797,5.074,3.797c0.021,0,0.045,0,0.066,0h6.846
		c-0.969,2.828-1.643,6.291-1.611,10.824c0.004,10.322-1.949,15.139-3.111,17.09C58.326,77.625,57.996,77.633,57.029,77.633z"/>
</g>
</svg>
