<?xml version="1.0" encoding="utf-8"?>
<!DOCTYPE svg PUBLIC "-//W3C//DTD SVG 1.1//EN" "http://www.w3.org/Graphics/SVG/1.1/DTD/svg11.dtd">
<svg version="1.1" id="Layer_1" xmlns="http://www.w3.org/2000/svg" xmlns:xlink="http://www.w3.org/1999/xlink" x="0px" y="0px"
	 width="91px" height="91px" viewBox="0 0 91 91" enable-background="new 0 0 91 91" xml:space="preserve">
<g>
	<path fill="#fff" stroke="#333333" stroke-linecap="round" stroke-linejoin="round" stroke-miterlimit="10"  d="M22.232,35.236c0.236,0.557,0.531,1.082,0.816,1.592c0.248,0.441,0.504,0.9,0.715,1.367
		c0.275,0.609,0.881,1.002,1.551,1.002h8.428c1.34,0,3.809-0.713,4.568-3.385c0.043-0.152,0.066-0.309,0.066-0.465V32.48
		c0-0.063-0.004-0.123-0.01-0.184c-0.002-0.002,0.01-0.316,0.121-0.439c0.066-0.076,0.283-0.158,0.684-0.158h10.793
		c0.398,0,0.613,0.08,0.684,0.154c0.092,0.096,0.131,0.346,0.125,0.443c-0.006,0.061-0.01,0.121-0.01,0.184v2.867
		c0,0.156,0.021,0.313,0.064,0.465c0.762,2.672,3.229,3.385,4.568,3.385h7.855c0.561,0,2.506-0.283,3.955-3.916
		c1.764-4.426,1.924-6.033,2.258-11.477c0.016-0.242,0.01-0.492,0-0.754l-0.01-0.332c-0.16-4.283-1.742-7.32-4.992-9.568
		c-2.631-1.773-6.322-2.75-10.391-2.75h-0.133c-3.271,0-6.713,0.67-9.195,1.787l-0.174,0.078l-0.158-0.07
		c-1.941-0.887-4.518-1.496-7.256-1.719c-0.055-0.004-0.109-0.006-0.162-0.006l-4.41,0.061c-0.057,0-0.111,0.004-0.168,0.01
		c-3.041,0.344-5.717,1.248-7.75,2.625c-3.238,2.23-4.822,5.266-4.982,9.578l-0.01,0.266c-0.012,0.289-0.018,0.563,0.002,0.82
		C20.156,29.84,20.824,31.92,22.232,35.236z M23.072,23.145l0.01-0.303c0.119-3.205,1.17-5.262,3.502-6.869
		c1.551-1.049,3.67-1.756,6.131-2.043l4.244-0.057c2.293,0.193,4.49,0.707,6.057,1.422l0.809,0.359l5.861,3.109
		c0.83,0.439,1.857,0.123,2.299-0.705c0.133-0.254,0.197-0.525,0.197-0.795c0-0.609-0.328-1.199-0.904-1.504l-2.525-1.34
		c1.623-0.395,3.447-0.621,5.188-0.621h0.133c3.35,0,6.443,0.791,8.473,2.16c2.342,1.619,3.393,3.678,3.512,6.842l0.012,0.377
		c0.004,0.141,0.012,0.275,0.004,0.412c-0.307,4.988-0.389,6.33-2.023,10.432c-0.479,1.201-0.906,1.639-1.076,1.775H55.4
		c-0.227-0.004-0.941-0.07-1.236-0.734v-2.525c0.025-0.441,0.014-1.842-0.982-2.951c-0.527-0.588-1.512-1.287-3.217-1.287H39.172
		c-1.703,0-2.688,0.699-3.215,1.285c-0.996,1.111-1.006,2.512-0.98,2.953v2.523c-0.297,0.666-1.014,0.732-1.244,0.736h-7.369
		c-0.119-0.221-0.238-0.432-0.35-0.633c-0.252-0.447-0.488-0.871-0.652-1.258c-1.285-3.027-1.854-4.811-2.295-10.344
		C23.055,23.434,23.066,23.293,23.072,23.145z"/>
	<path fill="#fff" stroke="#333333" stroke-linecap="round" stroke-linejoin="round" stroke-miterlimit="10"  d="M27.492,67.543c-0.148,5.945,1.646,10.104,2.732,12.061c1.404,2.502,2.275,3.6,4.715,3.6c2.412,0,3.676-2.129,3.826-4.082
		c0.09-0.986,0.109-1.84,0.127-2.664c0.041-1.951,0.082-3.795,1.098-7.469c0.412-1.441,0.881-3.076,1.779-4.531
		c0.502-0.809,1.572-1.602,2.568-1.605c0.768,0.012,1.459,0.537,2.053,1.561c0.828,1.434,1.465,3.045,1.793,4.539
		c0.404,1.855,0.658,4.047,0.861,5.809c0.123,1.07,0.221,1.918,0.33,2.52c0.705,3.848,2.518,5.924,3.867,5.924
		c2.311,0,3.322-1.111,4.715-3.605c1.494-2.686,2.516-7.146,2.73-11.938c0.193-4.381,0.764-5.939,1.68-8.119
		c0.025-0.063,0.049-0.125,0.066-0.191c1.695-5.924,1.342-10.477-1.047-13.527c-2.232-2.85-6.195-4.26-11.477-4.063
		c-0.939,0.035-1.672,0.822-1.637,1.762c0.033,0.938,0.82,1.693,1.76,1.637c2.895-0.109,6.74,0.287,8.676,2.762
		c1.67,2.131,1.832,5.629,0.482,10.4c-1.041,2.488-1.689,4.391-1.9,9.189c-0.188,4.158-1.092,8.256-2.303,10.434
		c-0.611,1.092-0.924,1.543-1.186,1.729c-0.314-0.459-0.783-1.371-1.082-3.004c-0.09-0.492-0.188-1.328-0.299-2.299
		c-0.213-1.836-0.475-4.121-0.918-6.145c-0.4-1.828-1.172-3.785-2.172-5.518c-1.621-2.793-3.795-3.238-4.947-3.254
		c-2.398-0.068-4.5,1.588-5.506,3.215c-1.148,1.855-1.707,3.813-2.182,5.467c-1.113,4.031-1.16,6.176-1.205,8.248
		c-0.018,0.803-0.033,1.559-0.115,2.451c-0.027,0.375-0.24,0.969-0.438,0.969c-0.637,0-0.703,0-1.746-1.855
		c-0.914-1.648-2.43-5.18-2.303-10.318l0.014-0.504c0.107-4.223,0.156-6.168-0.928-8.783c-0.729-2.23-1.971-8.49,0.74-11.584
		c1.754-2.002,5.051-2.561,9.799-1.664l2.354,0.754v4.27l-2.074-2.074l-2.404,2.404l4.977,4.977
		c0.332,0.332,0.768,0.498,1.203,0.498s0.869-0.166,1.201-0.498l4.979-4.977l-2.404-2.404l-2.076,2.074V37.141h-3.4v5.137
		l-1.418-0.453c-0.064-0.02-0.129-0.037-0.195-0.051c-6.07-1.166-10.479-0.244-13.098,2.744c-4.564,5.211-1.52,14.561-1.387,14.957
		c0.014,0.039,0.027,0.08,0.045,0.119c0.828,1.975,0.793,3.354,0.689,7.443L27.492,67.543z"/>
</g>
</svg>
