<?xml version="1.0" encoding="utf-8"?>
<!DOCTYPE svg PUBLIC "-//W3C//DTD SVG 1.1//EN" "http://www.w3.org/Graphics/SVG/1.1/DTD/svg11.dtd">
<svg version="1.1" id="Layer_1" xmlns="http://www.w3.org/2000/svg" xmlns:xlink="http://www.w3.org/1999/xlink" x="0px" y="0px"
	 width="91px" height="91px" viewBox="0 0 91 91" enable-background="new 0 0 91 91" xml:space="preserve">
<g>
	<path fill="#fff" stroke="#333333" stroke-linecap="round" stroke-linejoin="round" stroke-miterlimit="10"  d="M54.294,81.908c0.115,0.023,0.23,0.035,0.346,0.035c0.789,0,1.496-0.553,1.662-1.357c0.541-2.617,1.008-5.063,1.42-7.377
		c1.865-0.283,2.895-1.459,4.248-3.721c1.449-2.428,3.174-7.273,3.172-16.578c-0.012-1.691,0.098-3.178,0.295-4.514
		c1.811-0.369,6.248-1.037,10.451,0.186c0.16,0.047,0.32,0.068,0.477,0.068c0.736,0,1.416-0.482,1.631-1.225
		c0.264-0.902-0.254-1.846-1.156-2.107c-3.98-1.16-8.025-0.9-10.561-0.525c0.641-1.963,1.482-3.555,2.34-5.041l0.236-0.428
		c1.629-2.939,3.037-5.479,3.094-11.709c0-0.285-0.006-0.588-0.01-0.908c0-0.012-0.002-0.088-0.002-0.102
		c-0.166-4.432-1.803-7.574-5.166-9.904c-2.725-1.836-6.553-2.848-10.779-2.848h-0.133c-3.393,0-6.963,0.693-9.543,1.854
		l-0.207,0.094l-0.193-0.086c-2.016-0.92-4.691-1.553-7.531-1.781c-0.053-0.004-0.111-0.008-0.158-0.006l-4.588,0.063
		c-0.057,0-0.113,0.004-0.168,0.01c-3.154,0.355-5.93,1.293-8.035,2.719c-3.354,2.307-4.99,5.449-5.154,9.908
		c-0.008,0.359-0.016,0.689-0.016,1.002c0.049,6.182,1.451,8.717,3.076,11.652l0.281,0.508c0.838,1.449,1.662,3.01,2.297,4.936
		c-5.342-0.764-10.113,0.521-10.348,0.588c-0.904,0.25-1.434,1.188-1.182,2.092c0.25,0.904,1.188,1.434,2.092,1.184
		c0.055-0.016,5.16-1.402,10.285-0.264c0.203,1.355,0.316,2.869,0.303,4.598c0,9.285,1.721,14.133,3.17,16.572
		c1.068,1.773,1.869,2.861,3.082,3.393c1.273,5.156,2.869,7.959,3.021,8.219c0.475,0.807,1.51,1.074,2.322,0.604
		c0.809-0.473,1.082-1.514,0.611-2.324c-0.031-0.055-1.264-2.248-2.369-6.391c1.623-0.648,2.588-2.332,2.723-4
		c0.109-1.105,0.129-2.375,0.15-3.721c0.051-3.068,0.111-6.889,1.256-10.762l0.037-0.119c0.479-1.559,1.023-3.326,2.07-4.904
		c0.611-0.922,1.914-1.857,3.221-1.857c1.033,0,1.938,0.611,2.684,1.814c1.016,1.639,1.621,3.4,2.125,5.053
		c1.154,3.877,1.652,8.369,1.334,12.012c-0.211,2.404,0.24,4.232,1.344,5.438c0.18,0.197,0.365,0.355,0.553,0.5
		c-0.412,2.324-0.883,4.795-1.432,7.453C52.782,80.818,53.374,81.719,54.294,81.908z M30.47,52.936
		c0.059-7.363-1.984-11.525-3.887-14.816l-0.268-0.484c-1.514-2.736-2.607-4.715-2.65-10.02c0-0.275,0.008-0.58,0.014-0.889
		c0.123-3.359,1.225-5.516,3.672-7.201c1.623-1.098,3.842-1.836,6.418-2.137l4.42-0.061c2.393,0.201,4.691,0.738,6.332,1.486
		l0.842,0.375l6.1,3.236c0.254,0.135,0.527,0.197,0.797,0.197c0.607,0,1.197-0.328,1.502-0.902c0.439-0.83,0.125-1.859-0.705-2.299
		l-2.781-1.477c1.738-0.438,3.709-0.693,5.584-0.693h0.133c3.504,0,6.74,0.828,8.861,2.258c2.457,1.701,3.561,3.861,3.686,7.248
		c0.006,0.303,0.01,0.588,0.01,0.844c-0.049,5.35-1.146,7.332-2.666,10.074l-0.225,0.406c-1.922,3.328-3.967,7.496-3.916,14.84
		c0.002,8.969-1.686,13.137-2.689,14.82c-0.215,0.361-0.395,0.643-0.559,0.893c3.598-22.809,0.715-29.203-0.711-30.895
		c-0.617-1.533-3.189-6.244-11.578-6.719c-8.055-0.459-11.34,5.592-11.98,8.902c-2.559,10.264-2.828,18.723-2.195,25.256
		C31.228,62.781,30.47,58.936,30.47,52.936z M54.429,53.518c-0.545-1.791-1.268-3.887-2.49-5.863
		c-1.369-2.207-3.35-3.424-5.574-3.424c-2.637,0-4.941,1.699-6.055,3.379c-1.318,1.986-1.967,4.092-2.486,5.785l-0.041,0.137
		c-1.283,4.334-1.348,8.412-1.4,11.688c-0.021,1.33-0.039,2.477-0.137,3.469c0,0.008-0.037,0.326-0.16,0.633
		c-0.955-5.207-1.416-12.365-0.033-21.281c0.018-0.051,0.051-0.092,0.064-0.145c0.018-0.07,1.756-6.932,7.352-6.529
		c0.924,0.066,1.75-0.639,1.818-1.574s-0.637-1.75-1.574-1.818c-2.352-0.172-4.283,0.49-5.846,1.555
		c0.678-1.885,2.674-5.422,8.145-5.111c7.266,0.412,8.609,4.537,8.656,4.689c0.082,0.301,0.145,0.504,0.287,0.668
		c-1.648-1.023-3.729-1.666-6.309-1.496c-0.936,0.063-1.645,0.871-1.584,1.809c0.063,0.938,0.889,1.643,1.809,1.584
		c6.008-0.393,7.697,5.455,7.771,5.721c0.027,0.104,0.084,0.189,0.129,0.285c0.148,3.355-0.004,8.08-0.824,14.689
		C55.79,59.432,55.276,56.369,54.429,53.518z"/>
</g>
</svg>
