<?xml version="1.0" encoding="utf-8"?>
<!DOCTYPE svg PUBLIC "-//W3C//DTD SVG 1.1//EN" "http://www.w3.org/Graphics/SVG/1.1/DTD/svg11.dtd">
<svg version="1.1" id="Layer_1" xmlns="http://www.w3.org/2000/svg" xmlns:xlink="http://www.w3.org/1999/xlink" x="0px" y="0px"
	 width="91px" height="91px" viewBox="0 0 91 91" enable-background="new 0 0 91 91" xml:space="preserve">
<g>
	<path fill="#fff" stroke="#333333" stroke-linecap="round" stroke-linejoin="round" stroke-miterlimit="10"  d="M13.918,59.953c0.055-0.016,5.229-1.4,10.326-0.229c0.162,1.234,0.252,2.596,0.24,4.127
		c-0.002,9.205,1.705,14.012,3.143,16.432c1.205,2.002,2.059,3.137,3.576,3.563c0.771,1.816,1.463,2.691,1.555,2.803
		c0.334,0.404,0.814,0.613,1.301,0.613c0.375,0,0.756-0.125,1.072-0.381c0.725-0.586,0.836-1.652,0.26-2.383
		c-0.014-0.016-0.256-0.338-0.598-1.01c1.287-0.771,2.051-2.246,2.168-3.709c0.109-1.096,0.129-2.355,0.15-3.691
		c0.049-3.039,0.109-6.822,1.244-10.658l0.033-0.105c0.475-1.547,1.016-3.301,2.051-4.865c0.605-0.912,1.893-1.834,3.182-1.834
		c1.02,0,1.91,0.602,2.646,1.787c1.01,1.631,1.609,3.373,2.104,5.004c1.145,3.84,1.639,8.289,1.322,11.904
		c-0.209,2.385,0.242,4.201,1.338,5.398c0.453,0.494,0.943,0.801,1.395,0.996c-0.063,0.412-0.123,0.82-0.191,1.242
		c-0.152,0.928,0.479,1.801,1.404,1.951c0.924,0.156,1.801-0.479,1.951-1.404c0.1-0.613,0.189-1.211,0.279-1.807
		c1.27-0.51,2.15-1.609,3.232-3.42c1.438-2.406,3.148-7.211,3.145-16.436c-0.01-1.518,0.08-2.865,0.242-4.09
		c1.82-0.367,6.178-1.008,10.305,0.195c0.16,0.045,0.32,0.068,0.477,0.068c0.736-0.002,1.416-0.484,1.631-1.227
		c0.264-0.9-0.254-1.844-1.156-2.107c-3.955-1.152-7.973-0.891-10.488-0.518c0.648-2.117,1.533-3.795,2.436-5.355l0.234-0.426
		c1.615-2.916,3.01-5.436,3.068-11.609c0-0.244-0.006-0.498-0.012-0.762l-0.004-0.24c-0.162-4.398-1.787-7.52-5.127-9.83
		c-2.705-1.824-6.504-2.828-10.697-2.828h-0.113c-3.371,0-6.916,0.689-9.477,1.842l-0.199,0.088l-0.184-0.082
		c-1.137-0.52-2.492-0.941-3.967-1.256l0.871-5.537h4.809v-3.215l18.195,4.738c0.012,0.002,0.023,0.002,0.035,0.004
		c0.127,0.031,0.258,0.051,0.395,0.051H77.08c0.939,0,1.701-0.762,1.701-1.699c0-0.939-0.762-1.701-1.701-1.701H65.219v-3.48H77.08
		c0.939,0,1.701-0.762,1.701-1.701c0-0.938-0.762-1.699-1.701-1.699H63.598L44.729,9.633c-0.643-2.775-3.129-4.852-6.098-4.852
		c-3.453,0-6.264,2.809-6.264,6.262v9.125h4.275l-0.791,5.037c-0.045-0.004-0.09-0.01-0.137-0.014
		c-0.053-0.004-0.107-0.006-0.162-0.006l-4.549,0.064c-0.055,0-0.111,0.004-0.168,0.01c-3.133,0.355-5.885,1.285-7.969,2.695
		c-3.324,2.291-4.949,5.406-5.115,9.834c-0.008,0.357-0.014,0.684-0.014,0.998c0.049,6.135,1.443,8.65,3.057,11.564l0.271,0.488
		c0.887,1.533,1.762,3.188,2.404,5.279c-5.379-0.818-10.225,0.492-10.461,0.557c-0.902,0.252-1.432,1.188-1.182,2.092
		C12.078,59.67,13.012,60.201,13.918,59.953z M61.818,17.848l-16.924-4.408v-0.373l16.924,1.641V17.848z M35.768,11.043
		c0-1.578,1.285-2.861,2.863-2.861s2.863,1.283,2.863,2.861v0.15v3.561v2.014h-5.727V11.043z M53.08,77.617
		c0.357-4.078-0.17-8.881-1.453-13.182c-0.537-1.77-1.252-3.846-2.471-5.814c-1.359-2.189-3.326-3.396-5.535-3.396
		c-2.617,0-4.906,1.684-6.016,3.355c-1.307,1.977-1.951,4.066-2.467,5.744l-0.037,0.123c-1.273,4.299-1.338,8.34-1.391,11.588
		c-0.02,1.316-0.039,2.455-0.135,3.441c0,0.004-0.027,0.223-0.104,0.469c-1.064-3.895-1.857-10.521-0.152-20.723
		c0.059-0.111,0.121-0.219,0.154-0.346c0.07-0.281,1.809-6.871,7.275-6.463c0.947,0.063,1.75-0.637,1.818-1.574
		c0.068-0.936-0.637-1.75-1.572-1.818c-2.313-0.16-4.217,0.486-5.762,1.525c0.703-1.875,2.723-5.332,8.033-5.023
		c7.191,0.408,8.521,4.488,8.566,4.639c0.018,0.059,0.039,0.121,0.061,0.178c0.006,0.016,0.082,0.221,0.201,0.609
		c-1.584-1.102-3.623-1.795-6.213-1.629c-0.936,0.061-1.646,0.871-1.584,1.807c0.061,0.938,0.883,1.645,1.807,1.586
		c5.842-0.365,7.123,5.785,7.18,6.068c0.045,0.244,0.152,0.453,0.285,0.645c0.414,4.648,0.494,11.129-0.498,19.561
		C53.039,78.617,53.031,78.174,53.08,77.617z M41.785,30.061l0.834,0.371l6.049,3.207c0.254,0.135,0.525,0.199,0.795,0.199
		c0.609,0,1.197-0.328,1.504-0.904c0.439-0.83,0.123-1.859-0.707-2.299l-2.725-1.443c1.717-0.43,3.658-0.68,5.506-0.68h0.113
		c3.471,0,6.678,0.82,8.781,2.238c2.432,1.682,3.521,3.82,3.645,7.119l0.004,0.219c0.006,0.238,0.01,0.465,0.01,0.668
		c-0.049,5.297-1.137,7.262-2.643,9.98l-0.221,0.4c-1.904,3.295-3.932,7.424-3.885,14.717c0.004,7.623-1.227,11.736-2.203,13.807
		c1.953-18.582-1.199-27.555-1.563-28.508c-0.291-0.904-2.467-6.504-11.619-7.023c-2.992-0.164-5.322,0.576-7.1,1.74l2.324-14.799
		C39.85,29.328,40.914,29.664,41.785,30.061z M21.15,37.891c0.125-3.326,1.215-5.461,3.635-7.127
		c1.602-1.086,3.797-1.816,6.352-2.115l4.184-0.059l-3.256,20.719c-0.227,0.594-0.393,1.16-0.49,1.66
		c-2.656,10.645-2.992,18.484-2.441,24.064c-0.676-2.402-1.25-5.967-1.248-11.168c0.057-7.314-1.971-11.438-3.857-14.697
		l-0.258-0.465c-1.502-2.713-2.588-4.672-2.631-9.93C21.139,38.496,21.145,38.195,21.15,37.891z"/>
</g>
</svg>
