<?xml version="1.0" encoding="utf-8"?>
<!DOCTYPE svg PUBLIC "-//W3C//DTD SVG 1.1//EN" "http://www.w3.org/Graphics/SVG/1.1/DTD/svg11.dtd">
<svg version="1.1" id="Layer_1" xmlns="http://www.w3.org/2000/svg" xmlns:xlink="http://www.w3.org/1999/xlink" x="0px" y="0px"
	 width="91px" height="91px" viewBox="0 0 91 91" enable-background="new 0 0 91 91" xml:space="preserve">
<g>
	<path fill="#fff" stroke="#333333" stroke-linecap="round" stroke-linejoin="round" stroke-miterlimit="10"  d="M15.527,39.928c-0.012,0.363-0.016,0.689-0.016,1.008c0.049,6.141,1.443,8.656,3.057,11.568l0.27,0.488
		c1.756,3.035,3.465,6.539,3.418,13.012c0,9.213,1.707,14.016,3.143,16.428c1.574,2.619,2.541,3.766,5.188,3.766
		c2.494,0,3.977-2.16,4.152-4.268c0.105-1.092,0.125-2.346,0.145-3.674c0.047-3.043,0.105-6.83,1.26-10.727
		c0.479-1.563,1.021-3.336,2.072-4.922c0.604-0.91,1.889-1.832,3.18-1.832c1.02,0,1.91,0.602,2.646,1.787
		c1.01,1.631,1.607,3.373,2.104,5.008c1.141,3.826,1.635,8.277,1.322,11.902c-0.209,2.385,0.24,4.199,1.336,5.396
		c1.129,1.232,2.496,1.328,2.889,1.328h0.002c2.502,0,3.621-1.162,5.182-3.771c1.436-2.404,3.146-7.205,3.145-16.434
		c-0.045-6.445,1.668-9.959,3.441-13.033l0.23-0.418c1.619-2.918,3.018-5.438,3.076-11.617c0-0.197-0.006-0.398-0.01-0.607
		l-0.008-0.395c-0.164-4.402-1.789-7.521-5.125-9.824c-2.701-1.826-6.496-2.832-10.686-2.832h-0.139
		c-3.371,0-6.91,0.689-9.461,1.838l-0.201,0.09l-0.186-0.082c-1.998-0.912-4.65-1.539-7.469-1.768
		c-0.053-0.006-0.109-0.006-0.16-0.006l-4.547,0.064c-0.057,0-0.113,0.004-0.168,0.01c-3.129,0.354-5.881,1.283-7.969,2.697
		C17.314,32.4,15.689,35.516,15.527,39.928z M56.619,66.004c0.002,8.887-1.668,13.012-2.662,14.678
		c-1.254,2.096-1.494,2.115-2.244,2.115c-0.053-0.006-0.248-0.041-0.426-0.252c-0.186-0.217-0.596-0.922-0.434-2.777
		c0.354-4.092-0.176-8.891-1.453-13.176c-0.537-1.773-1.25-3.85-2.469-5.82c-1.359-2.191-3.326-3.396-5.537-3.396
		c-2.619,0-4.908,1.684-6.014,3.354c-1.324,1.998-1.971,4.109-2.51,5.873c-1.275,4.305-1.338,8.352-1.387,11.604
		c-0.021,1.311-0.039,2.441-0.133,3.42c-0.002,0.012-0.127,1.172-0.766,1.172c-0.906,0-1,0-2.27-2.111
		c-0.994-1.668-2.66-5.797-2.66-14.67c0.053-7.313-1.973-11.436-3.857-14.695l-0.256-0.463c-0.693-1.252-1.295-2.344-1.75-3.672
		c2.291,0.834,4.754,0.078,6.885-0.586l0.451-0.139c0.717-0.221,1.268-0.482,1.709-0.693c0.846-0.4,0.998-0.475,1.779-0.186
		c0.213,0.078,0.42,0.389,0.734,0.891c0.623,0.99,1.674,2.648,4.197,2.514c3.012-0.158,3.514-2.129,3.754-3.076
		c0.119-0.463,0.172-0.619,0.273-0.701c0.207-0.164,0.568-0.453,0.828-0.645c0.35,0.105,0.865,0.229,1.641,0.277
		c0.605,0.039,1.203,0.125,1.781,0.205c2.063,0.293,4.5,0.637,6.281-1.639c1.072,1.945,2.582,3.924,6.045,4.01
		c0.467,1.662,1.482,3.904,3.887,4.688C58.283,55.277,56.574,59.307,56.619,66.004z M18.926,40.043
		c0.121-3.326,1.211-5.459,3.631-7.127c1.607-1.086,3.803-1.818,6.354-2.115l4.379-0.063c2.371,0.201,4.646,0.734,6.27,1.475
		l0.828,0.367l6.053,3.211c0.254,0.135,0.527,0.199,0.797,0.199c0.607,0,1.197-0.328,1.502-0.904
		c0.439-0.83,0.125-1.857-0.705-2.299l-2.727-1.445c1.711-0.43,3.646-0.678,5.494-0.678h0.139c3.467,0,6.668,0.82,8.768,2.24
		c2.432,1.678,3.521,3.814,3.645,7.105l0.008,0.383c0.004,0.182,0.008,0.357,0.008,0.514c-0.039,4.016-0.674,6.117-1.635,8.08
		c-0.975-0.045-1.961-0.441-2.564-3.646c-0.166-0.877-0.98-1.475-1.867-1.373c-2.928,0.336-3.473-0.736-4.682-3.086
		c-0.352-0.688-0.719-1.396-1.186-2.125c-0.361-0.563-1.018-0.861-1.68-0.764c-0.662,0.1-1.205,0.576-1.387,1.219
		c-0.828,2.928-1.447,2.84-4.066,2.471c-0.611-0.086-1.303-0.186-2.037-0.232c-0.57-0.037-0.832-0.123-1.063-0.199
		c-1.498-0.492-2.199,0.07-3.744,1.301c-1.012,0.807-1.273,1.838-1.447,2.52c-0.039,0.148-0.088,0.34-0.127,0.443
		c-0.072,0.023-0.227,0.063-0.512,0.076c-0.49,0.023-0.564-0.008-1.141-0.926c-0.473-0.752-1.121-1.783-2.432-2.271
		c-2.127-0.787-3.346-0.205-4.422,0.305c-0.395,0.189-0.768,0.365-1.248,0.514l-0.459,0.143c-3.525,1.094-5.018,1.434-6.607-1.191
		c-0.035-0.061-0.082-0.113-0.123-0.166c-0.014-0.344-0.023-0.697-0.027-1.072C18.912,40.65,18.916,40.357,18.926,40.043z"/>
	<path fill="#fff" stroke="#333333" stroke-linecap="round" stroke-linejoin="round" stroke-miterlimit="10"  d="M79.045,15.379c0.939,0,1.701-0.762,1.701-1.701c0-0.938-0.762-1.699-1.701-1.699h-13.5l-18.855-1.83
		c-0.641-2.775-3.127-4.852-6.094-4.852c-3.453,0-6.264,2.809-6.264,6.262v7.422h4.564v2.977h-3.709v3.4h3.709h3.4h3.705v-3.4
		h-3.705V18.98h4.559v-1.355l18.09,6.02c0.018,0.006,0.035,0.002,0.053,0.008c0.154,0.047,0.314,0.078,0.484,0.078h13.563
		c0.939,0,1.701-0.762,1.701-1.699c0-0.939-0.762-1.701-1.701-1.701H67.182v-4.951H79.045z M43.455,15.58h-5.723v-4.021
		c0-1.578,1.285-2.861,2.863-2.861s2.859,1.283,2.859,2.861v0.148v3.561V15.58z M46.855,13.58l16.926,1.643v4.451l-16.926-5.633
		V13.58z"/>
	<path fill="#fff" stroke="#333333" stroke-linecap="round" stroke-linejoin="round" stroke-miterlimit="10"  d="M25.965,35.982c0.053,0,0.107-0.002,0.162-0.008c0.934-0.086,1.621-0.916,1.533-1.85c-0.086-0.936-0.914-1.627-1.85-1.535
		l-0.074,0.006c-0.934,0.088-1.584,0.914-1.498,1.848C24.32,35.324,25.094,35.982,25.965,35.982z"/>
	<path fill="#fff" stroke="#333333" stroke-linecap="round" stroke-linejoin="round" stroke-miterlimit="10"  d="M30.277,35.586c0.053,0,0.104-0.004,0.156-0.008l0.123-0.012c0.936-0.086,1.625-0.912,1.539-1.848
		s-0.904-1.623-1.848-1.537l-0.123,0.01c-0.936,0.086-1.623,0.914-1.539,1.848C28.668,34.922,29.408,35.586,30.277,35.586z"/>
	<path fill="#fff" stroke="#333333" stroke-linecap="round" stroke-linejoin="round" stroke-miterlimit="10"  d="M34.785,35.17c0.053,0,0.107-0.004,0.162-0.008c0.934-0.088,1.621-0.916,1.533-1.852c-0.088-0.934-0.916-1.623-1.85-1.535
		l-0.074,0.008c-0.934,0.088-1.584,0.912-1.498,1.848C33.141,34.512,33.914,35.17,34.785,35.17z"/>
	<path fill="#fff" stroke="#333333" stroke-linecap="round" stroke-linejoin="round" stroke-miterlimit="10"  d="M22.164,40.318c0.938,0,1.699-0.76,1.699-1.699s-0.762-1.701-1.699-1.701H22.09c-0.938,0-1.662,0.762-1.662,1.701
		S21.225,40.318,22.164,40.318z"/>
	<path fill="#fff" stroke="#333333" stroke-linecap="round" stroke-linejoin="round" stroke-miterlimit="10"  d="M26.65,38.619c0,0.939,0.762,1.699,1.701,1.699h0.176c0.939,0,1.701-0.76,1.701-1.699s-0.762-1.701-1.701-1.701h-0.176
		C27.412,36.918,26.65,37.68,26.65,38.619z"/>
	<path fill="#fff" stroke="#333333" stroke-linecap="round" stroke-linejoin="round" stroke-miterlimit="10"  d="M34.789,40.318c0.938,0,1.699-0.76,1.699-1.699s-0.762-1.701-1.699-1.701h-0.074c-0.938,0-1.662,0.762-1.662,1.701
		S33.85,40.318,34.789,40.318z"/>
	<path fill="#fff" stroke="#333333" stroke-linecap="round" stroke-linejoin="round" stroke-miterlimit="10"  d="M39.1,36.473c0.234,0.111,0.48,0.162,0.723,0.162c0.639,0,1.25-0.361,1.539-0.977c0.4-0.85,0.035-1.861-0.814-2.262
		l-0.066-0.031c-0.846-0.398-1.828-0.02-2.229,0.83C37.854,35.045,38.25,36.072,39.1,36.473z"/>
	<path fill="#fff" stroke="#333333" stroke-linecap="round" stroke-linejoin="round" stroke-miterlimit="10"  d="M43.811,38.688c0.232,0.111,0.48,0.162,0.723,0.162c0.637,0,1.248-0.361,1.539-0.977c0.398-0.85,0.035-1.861-0.814-2.262
		l-0.066-0.031c-0.846-0.398-1.83-0.02-2.229,0.83C42.563,37.26,42.961,38.287,43.811,38.688z"/>
	<path fill="#fff" stroke="#333333" stroke-linecap="round" stroke-linejoin="round" stroke-miterlimit="10"  d="M56.393,36.373l0.143,0.035c0.137,0.035,0.273,0.051,0.408,0.051c0.764,0,1.459-0.52,1.648-1.293
		c0.225-0.912-0.332-1.834-1.242-2.059l-0.143-0.035c-0.914-0.225-1.834,0.332-2.059,1.244S55.48,36.148,56.393,36.373z"/>
	<path fill="#fff" stroke="#333333" stroke-linecap="round" stroke-linejoin="round" stroke-miterlimit="10"  d="M51.25,35.121l0.143,0.035c0.135,0.031,0.27,0.047,0.402,0.047c0.766,0,1.461-0.52,1.65-1.297
		c0.223-0.914-0.338-1.832-1.25-2.055l-0.143-0.035c-0.912-0.223-1.832,0.338-2.055,1.25C49.777,33.98,50.338,34.898,51.25,35.121z"
		/>
	<path fill="#fff" stroke="#333333" stroke-linecap="round" stroke-linejoin="round" stroke-miterlimit="10"  d="M56.598,38.74c-0.414,0.842-0.068,1.861,0.773,2.275l0.133,0.064c0.24,0.119,0.496,0.176,0.75,0.176
		c0.627,0,1.23-0.348,1.525-0.949c0.414-0.842,0.068-1.861-0.773-2.275l-0.133-0.066C58.035,37.551,57.012,37.896,56.598,38.74z"/>
	<path fill="#fff" stroke="#333333" stroke-linecap="round" stroke-linejoin="round" stroke-miterlimit="10"  d="M51.844,36.398c-0.414,0.842-0.068,1.861,0.773,2.275l0.133,0.066c0.24,0.119,0.496,0.174,0.75,0.174
		c0.627,0,1.23-0.348,1.525-0.949c0.414-0.842,0.068-1.861-0.773-2.275l-0.133-0.064C53.279,35.209,52.258,35.555,51.844,36.398z"/>
	<rect fill="#fff" stroke="#333333" stroke-linecap="round" stroke-linejoin="round" stroke-miterlimit="10"  x="27.672" y="20.818" transform="matrix(0.5921 0.8058 -0.8058 0.5921 30.1165 -14.4665)" width="3.354" height="3.401"/>
	<rect fill="#fff" stroke="#333333" stroke-linecap="round" stroke-linejoin="round" stroke-miterlimit="10"  x="22.609" y="10.147" transform="matrix(0.9043 -0.4269 0.4269 0.9043 -3.0349 11.5785)" width="3.4" height="4.823"/>
	<rect fill="#fff" stroke="#333333" stroke-linecap="round" stroke-linejoin="round" stroke-miterlimit="10"  x="19.442" y="17.767" transform="matrix(-0.9209 -0.3898 0.3898 -0.9209 34.8436 46.0047)" width="5.296" height="3.4"/>
</g>
</svg>
