<?xml version="1.0" encoding="utf-8"?>
<!DOCTYPE svg PUBLIC "-//W3C//DTD SVG 1.1//EN" "http://www.w3.org/Graphics/SVG/1.1/DTD/svg11.dtd">
<svg version="1.1" id="Layer_1" xmlns="http://www.w3.org/2000/svg" xmlns:xlink="http://www.w3.org/1999/xlink" x="0px" y="0px"
	 width="91px" height="91px" viewBox="0 0 91 91" enable-background="new 0 0 91 91" xml:space="preserve">
<g>
	<path fill="#fff" stroke="#333333" stroke-linecap="round" stroke-linejoin="round" stroke-miterlimit="10"  d="M58.4,80.945c2.779,0,3.975-1.244,5.76-4.225c1.641-2.754,3.596-8.256,3.594-18.846
		c-0.053-7.512,1.943-11.605,4.008-15.182l0.266-0.48c1.852-3.34,3.453-6.223,3.52-13.295c0-0.223-0.006-0.451-0.01-0.691
		l-0.008-0.455c-0.186-4.992-2.025-8.529-5.805-11.143c-3.08-2.078-7.412-3.221-12.195-3.221h-0.16c-3.85,0-7.898,0.787-10.818,2.1
		l-0.342,0.152l-0.322-0.145c-2.283-1.039-5.314-1.756-8.537-2.018c-0.053-0.006-0.109-0.008-0.16-0.006l-5.254,0.072
		c-0.057,0-0.113,0.004-0.168,0.01c-3.574,0.404-6.711,1.463-9.082,3.07c-3.768,2.594-5.609,6.127-5.795,11.146
		c-0.01,0.41-0.016,0.783-0.016,1.141c0.055,7.023,1.65,9.902,3.498,13.234l0.309,0.561c2.047,3.541,4.041,7.629,3.984,15.16
		c-0.002,10.582,1.949,16.082,3.592,18.838c1.803,3,2.828,4.221,5.762,4.221c2.723,0,4.342-2.371,4.533-4.689
		c0.123-1.252,0.145-2.699,0.17-4.23c0.055-3.529,0.125-7.922,1.447-12.393l0.031-0.104c0.557-1.811,1.188-3.863,2.41-5.711
		c0.736-1.111,2.311-2.234,3.893-2.234c1.275,0,2.379,0.736,3.281,2.189c1.18,1.906,1.879,3.939,2.459,5.846
		c1.328,4.461,1.904,9.637,1.537,13.846c-0.236,2.678,0.26,4.707,1.475,6.033c1.23,1.344,2.715,1.447,3.141,1.447H58.4z
		 M39.775,51.941c-1.494,2.258-2.23,4.66-2.824,6.59l-0.037,0.119c-1.459,4.936-1.533,9.586-1.592,13.322
		c-0.023,1.523-0.045,2.838-0.156,3.979c0,0.016-0.158,1.594-1.146,1.594c-1.129,0-1.303,0-2.844-2.564
		c-1.162-1.953-3.111-6.768-3.109-17.082c0.021-3.014-0.268-5.551-0.744-7.746c0.387-0.594,0.896-1.145,1.117-1.188
		c0.02,0.008,0.1,0.049,0.219,0.164c2.781,2.691,6.283,1.975,8.518,0.072c1.367-1.164,2.594-2.125,3.73-1.955
		c0.371,0.131,0.998,1.068,1.516,2.174C41.301,50.119,40.381,51.029,39.775,51.941z M46.504,48.184
		c-0.295,0-0.582,0.031-0.869,0.068c-0.75-1.721-2.141-4.07-4.221-4.365c-2.766-0.398-4.982,1.482-6.441,2.727
		c-0.645,0.549-2.318,1.654-3.949,0.072c-1.166-1.127-2.342-1.205-3.127-1.066c-0.633,0.109-1.188,0.398-1.678,0.76
		c-0.768-2.064-1.684-3.779-2.576-5.324l-0.297-0.535c-1.754-3.168-3.023-5.457-3.07-11.602c0-0.32,0.006-0.67,0.014-1.027
		c0.145-3.934,1.439-6.459,4.313-8.439c1.891-1.279,4.471-2.141,7.465-2.488l5.088-0.07c2.77,0.232,5.434,0.857,7.336,1.725
		l0.971,0.432l6.996,3.709c0.254,0.135,0.525,0.199,0.795,0.199c0.609,0,1.197-0.328,1.504-0.904
		c0.439-0.828,0.123-1.857-0.705-2.299l-3.738-1.98c2.152-0.607,4.67-0.967,7.057-0.967h0.16c4.055,0,7.807,0.963,10.277,2.629
		c2.885,1.996,4.178,4.525,4.324,8.42l0.008,0.436c0.004,0.217,0.008,0.426,0.008,0.611c-0.059,6.193-1.332,8.486-3.092,11.66
		l-0.254,0.459c-0.529,0.916-1.066,1.891-1.576,2.957l-2.461-0.107c-3.686-0.158-4.537,3.516-4.984,5.492
		c-0.047,0.205-0.102,0.451-0.162,0.688c-0.775-0.779-2.051-1.805-3.99-1.482c-1.617,0.271-2.838,1.314-3.697,2.381
		C50.475,49.162,48.588,48.184,46.504,48.184z M57.168,73.76c0.408-4.682-0.199-10.189-1.668-15.121
		c-0.416-1.371-0.941-2.9-1.654-4.439c0.457-0.84,1.328-2.107,2.342-2.277c0.371-0.063,0.594,0.07,1.283,0.801
		c0.566,0.6,2.07,2.191,3.939,0.893c1.059-0.736,1.363-2.08,1.686-3.502c0.563-2.484,0.924-2.865,1.52-2.846l1.262,0.055
		c-0.922,2.781-1.555,6.168-1.523,10.564c0.002,10.322-1.949,15.139-3.111,17.09c-1.535,2.561-1.865,2.568-2.832,2.568
		c-0.057-0.004-0.383-0.039-0.67-0.369C57.443,76.836,56.977,75.939,57.168,73.76z"/>
	<path fill="#fff" stroke="#333333" stroke-linecap="round" stroke-linejoin="round" stroke-miterlimit="10"  d="M35.217,58.338c-0.523-0.779-1.578-0.99-2.359-0.467c-0.779,0.521-0.988,1.578-0.467,2.357l0.094,0.143
		c0.328,0.49,0.867,0.754,1.416,0.754c0.324,0,0.652-0.092,0.943-0.287c0.779-0.521,0.988-1.578,0.467-2.357L35.217,58.338z"/>
	<path fill="#fff" stroke="#333333" stroke-linecap="round" stroke-linejoin="round" stroke-miterlimit="10"  d="M31.916,53.389l-0.096-0.141c-0.521-0.781-1.576-0.992-2.357-0.469c-0.781,0.521-0.99,1.578-0.469,2.359l0.096,0.141
		c0.328,0.49,0.865,0.756,1.414,0.756c0.324,0,0.654-0.094,0.943-0.287C32.229,55.225,32.438,54.17,31.916,53.389z"/>
	<path fill="#fff" stroke="#333333" stroke-linecap="round" stroke-linejoin="round" stroke-miterlimit="10"  d="M32.729,63.797c-0.938,0-1.699,0.762-1.699,1.699v0.17c0,0.939,0.762,1.701,1.699,1.701c0.939,0,1.701-0.762,1.701-1.701
		v-0.17C34.43,64.559,33.668,63.797,32.729,63.797z"/>
	<path fill="#fff" stroke="#333333" stroke-linecap="round" stroke-linejoin="round" stroke-miterlimit="10"  d="M59.768,69.85c0.121,0.025,0.242,0.039,0.363,0.039c0.781,0,1.486-0.543,1.658-1.34l0.037-0.166
		c0.199-0.916-0.383-1.822-1.301-2.021c-0.916-0.199-1.822,0.381-2.021,1.299l-0.037,0.166C58.268,68.744,58.85,69.648,59.768,69.85
		z"/>
	<path fill="#fff" stroke="#333333" stroke-linecap="round" stroke-linejoin="round" stroke-miterlimit="10"  d="M61.061,63.867c0.121,0.025,0.242,0.039,0.363,0.039c0.781,0,1.486-0.543,1.658-1.34l0.037-0.166
		c0.199-0.916-0.383-1.822-1.301-2.021c-0.916-0.195-1.822,0.381-2.021,1.299l-0.037,0.166
		C59.561,62.762,60.143,63.668,61.061,63.867z"/>
</g>
</svg>
