<?xml version="1.0" encoding="utf-8"?>
<!DOCTYPE svg PUBLIC "-//W3C//DTD SVG 1.1//EN" "http://www.w3.org/Graphics/SVG/1.1/DTD/svg11.dtd">
<svg version="1.1" id="Layer_1" xmlns="http://www.w3.org/2000/svg" xmlns:xlink="http://www.w3.org/1999/xlink" x="0px" y="0px"
	 width="91px" height="91px" viewBox="0 0 91 91" enable-background="new 0 0 91 91" xml:space="preserve">
<g>
	<path fill="#fff" stroke="#333333" stroke-linecap="round" stroke-linejoin="round" stroke-miterlimit="10"  d="M21.11,43.88c1.959,3.383,3.867,7.29,3.814,14.497c-0.007,10.15,1.869,15.443,3.449,18.102
		c1.742,2.896,2.736,4.076,5.588,4.076c2.664,0,4.238-2.311,4.412-4.559c0.119-1.203,0.141-2.594,0.164-4.064
		c0.055-3.379,0.122-7.582,1.387-11.857l0.039-0.129c0.529-1.723,1.129-3.678,2.289-5.428c0.696-1.051,2.182-2.113,3.675-2.113
		c1.197,0,2.236,0.695,3.088,2.07c1.117,1.799,1.791,3.752,2.349,5.586c1.272,4.275,1.821,9.227,1.47,13.246
		c-0.226,2.586,0.258,4.549,1.436,5.836c1.201,1.311,2.65,1.412,3.064,1.412h0.002c2.699,0,3.855-1.201,5.584-4.082
		c1.576-2.648,3.455-7.939,3.448-18.105c-0.049-7.189,1.86-11.103,3.837-14.522l0.264-0.477c1.778-3.207,3.314-5.977,3.375-12.762
		c0-0.23-0.004-0.467-0.01-0.711l-0.007-0.395c-0.179-4.811-1.952-8.219-5.598-10.736c-2.966-2-7.134-3.101-11.737-3.101h-0.14
		c-3.721,0-7.616,0.759-10.405,2.022l-0.301,0.133l-0.282-0.125c-2.204-1.003-5.119-1.692-8.207-1.94
		c-0.053-0.004-0.105-0.006-0.158-0.005l-5.037,0.066c-0.057,0-0.112,0.004-0.168,0.01c-3.438,0.388-6.456,1.406-8.744,2.953
		c-3.632,2.506-5.406,5.913-5.585,10.769l-0.007,0.46c-0.004,0.209-0.008,0.41-0.008,0.614c0.057,6.757,1.592,9.526,3.368,12.732
		L21.11,43.88z M20.856,30.07l0.007-0.444c0.139-3.746,1.37-6.153,4.104-8.04c1.805-1.22,4.268-2.04,7.125-2.373l4.871-0.064
		c2.638,0.219,5.182,0.816,7.008,1.647l0.935,0.414l6.697,3.554c0.254,0.135,0.527,0.198,0.796,0.198
		c0.608,0,1.198-0.328,1.503-0.902c0.44-0.83,0.125-1.859-0.705-2.299l-3.431-1.821c2.015-0.552,4.354-0.876,6.586-0.876h0.14
		c3.876,0,7.461,0.919,9.82,2.51c2.746,1.896,3.978,4.305,4.116,8.016l0.007,0.371c0.004,0.223,0.008,0.438,0.008,0.632
		c-0.053,5.906-1.268,8.097-2.947,11.128l-0.251,0.453c-2.099,3.629-4.331,8.177-4.277,16.206c0.007,9.879-1.857,14.486-2.967,16.35
		c-1.447,2.412-1.757,2.426-2.651,2.426c-0.054-0.004-0.343-0.041-0.598-0.336c-0.275-0.318-0.71-1.16-0.531-3.217
		c0.393-4.488-0.189-9.777-1.601-14.521c-0.628-2.064-1.392-4.268-2.716-6.4c-1.471-2.371-3.594-3.676-5.977-3.676
		c-2.832,0-5.31,1.824-6.509,3.635c-1.432,2.16-2.138,4.461-2.705,6.311l-0.044,0.145c-1.401,4.736-1.474,9.197-1.53,12.783
		c-0.023,1.461-0.045,2.723-0.152,3.82c0,0.016-0.138,1.457-1.025,1.457c-1.075,0-1.213,0-2.67-2.42
		c-1.111-1.871-2.975-6.482-2.967-16.344c0.059-8.051-2.176-12.591-4.256-16.184l-0.277-0.502c-1.68-3.03-2.893-5.22-2.941-11.099
		C20.851,30.438,20.854,30.258,20.856,30.07z"/>
	<path fill="#fff" stroke="#333333" stroke-linecap="round" stroke-linejoin="round" stroke-miterlimit="10"  d="M33.502,36.032c4.288,0,7.776-3.488,7.776-7.774c0-4.288-3.488-7.776-7.776-7.776c-4.287,0-7.774,3.488-7.774,7.776
		C25.728,32.544,29.215,36.032,33.502,36.032z M33.502,23.882c2.413,0,4.376,1.963,4.376,4.376c0,2.412-1.963,4.374-4.376,4.374
		c-2.412,0-4.374-1.962-4.374-4.374C29.128,25.845,31.09,23.882,33.502,23.882z"/>
	<path fill="#fff" stroke="#333333" stroke-linecap="round" stroke-linejoin="round" stroke-miterlimit="10"  d="M46.71,39.599c2.39,0,4.333-1.945,4.333-4.335s-1.943-4.333-4.333-4.333c-2.391,0-4.335,1.943-4.335,4.333
		S44.319,39.599,46.71,39.599z M46.71,34.331c0.515,0,0.933,0.418,0.933,0.933s-0.418,0.935-0.933,0.935
		c-0.516,0-0.935-0.42-0.935-0.935S46.194,34.331,46.71,34.331z"/>
	<path fill="#fff" stroke="#333333" stroke-linecap="round" stroke-linejoin="round" stroke-miterlimit="10"  d="M57.909,31.837c1.532,0,2.779-1.248,2.779-2.781c0-1.531-1.247-2.779-2.779-2.779c-1.533,0-2.78,1.248-2.78,2.779
		C55.129,30.589,56.376,31.837,57.909,31.837z"/>
</g>
</svg>
