<?xml version="1.0" encoding="utf-8"?>
<!DOCTYPE svg PUBLIC "-//W3C//DTD SVG 1.1//EN" "http://www.w3.org/Graphics/SVG/1.1/DTD/svg11.dtd">
<svg version="1.1" id="Layer_1" xmlns="http://www.w3.org/2000/svg" xmlns:xlink="http://www.w3.org/1999/xlink" x="0px" y="0px"
	 width="91px" height="91px" viewBox="0 0 91 91" enable-background="new 0 0 91 91" xml:space="preserve">
<g>
	<path fill="#fff" stroke="#333333" stroke-linecap="round" stroke-linejoin="round" stroke-miterlimit="10"  d="M27.648,15.527c-2.609,0-4.73,2.123-4.73,4.73s2.121,4.73,4.73,4.73c2.605,0,4.727-2.123,4.727-4.73
		S30.254,15.527,27.648,15.527z M27.648,21.588c-0.734,0-1.33-0.596-1.33-1.33c0-0.732,0.596-1.33,1.33-1.33
		c0.73,0,1.326,0.598,1.326,1.33C28.975,20.992,28.379,21.588,27.648,21.588z"/>
	<path fill="#fff" stroke="#333333" stroke-linecap="round" stroke-linejoin="round" stroke-miterlimit="10"  d="M75.813,65.648c0-2.752-2.24-4.992-4.992-4.992c-2.754,0-4.994,2.24-4.994,4.992c0,2.754,2.24,4.994,4.994,4.994
		C73.572,70.643,75.813,68.402,75.813,65.648z M69.227,65.648c0-0.879,0.715-1.592,1.594-1.592c0.877,0,1.592,0.713,1.592,1.592
		s-0.715,1.594-1.592,1.594C69.941,67.242,69.227,66.527,69.227,65.648z"/>
	<path fill="#fff" stroke="#333333" stroke-linecap="round" stroke-linejoin="round" stroke-miterlimit="10"  d="M13.682,48.434c-1.006,4.055,0.824,8.434,4.682,10.465c1.133,0.596,2.389,0.953,3.666,1.043
		c0.699,1.674,1.957,3.064,3.584,3.924c1.127,0.592,2.389,0.904,3.654,0.906l0,0c0.283,0,0.561-0.029,0.838-0.059
		c0.691,2.941,1.576,5.459,2.639,7.498c1.406,2.697,2.473,3.477,4.754,3.477c2.307,0,3.676-1.982,3.834-3.914
		c0.094-0.963,0.111-2.063,0.131-3.229c0.041-2.635,0.092-5.914,1.094-9.299c0.412-1.338,0.879-2.855,1.768-4.199
		c0.502-0.758,1.537-1.479,2.617-1.5c0.795,0.012,1.496,0.502,2.088,1.455c0.859,1.385,1.379,2.893,1.809,4.305
		c0.986,3.314,1.414,7.158,1.145,10.283c-0.189,2.143,0.221,3.781,1.221,4.871c1.043,1.139,2.311,1.227,2.676,1.227h0.002
		c2.285,0,3.297-1.045,4.701-3.393c1.266-2.121,2.771-6.346,2.77-14.424c-0.004-0.391,0.01-0.77,0.021-1.146
		c0.197,0.012,0.393,0.031,0.594,0.031c1.51,0,2.994-0.328,4.361-0.957c1.59,1.369,3.621,2.133,5.748,2.133
		c4.865,0,8.824-3.959,8.824-8.824c0-2.492-1.063-4.846-2.863-6.498c0.895-1.381,1.375-2.99,1.375-4.678
		c0-4.77-3.879-8.65-8.648-8.65c-1.674,0-3.234,0.477-4.557,1.299c-0.75-1.646-1.92-3.021-3.553-4.152
		c-2.393-1.613-5.738-2.5-9.422-2.5c-0.02,0-0.041,0-0.061,0c-2.973-0.016-6.125,0.598-8.396,1.619l-0.086,0.039l-0.07-0.031
		c-1.766-0.803-4.1-1.357-6.574-1.559c-0.055-0.006-0.111-0.006-0.162-0.006l-3.963,0.055c-0.057,0-0.113,0.004-0.168,0.01
		c-2.762,0.313-5.191,1.137-7.037,2.387c-0.258,0.178-0.492,0.361-0.723,0.545c-0.822-0.316-1.713-0.498-2.646-0.498
		c-3.365,0-6.201,2.225-7.098,5.316c-4.926-0.057-9.039,3.959-9.039,8.916C9.209,43.949,10.959,46.863,13.682,48.434z
		 M27.199,60.857c-1.158-0.611-1.986-1.699-2.271-2.984c-0.174-0.783-0.869-1.332-1.658-1.332c-0.043,0-0.088,0.002-0.133,0.006
		c-1.104,0.084-2.205-0.139-3.189-0.656c-2.877-1.516-3.984-5.09-2.471-7.967c1.023-1.943,3.025-3.15,5.225-3.15
		c0.963,0,1.885,0.229,2.748,0.682c0.357,0.189,0.709,0.424,1.039,0.701c0.385,0.322,0.893,0.459,1.389,0.371
		c0.494-0.088,0.924-0.391,1.176-0.826c0.627-1.086,1.699-1.828,2.908-2.064c0.17,0.021,0.346,0.023,0.523-0.012
		c0.086-0.016,0.168-0.045,0.248-0.074c0.016,0,0.031-0.002,0.047-0.002c0.699,0,1.369,0.166,1.996,0.496
		c2.096,1.104,2.902,3.711,1.797,5.811c-0.545,1.035-1.467,1.787-2.598,2.119c-0.512,0.15-0.924,0.533-1.111,1.035
		c-0.188,0.5-0.129,1.061,0.158,1.51c0.861,1.35,0.934,3.063,0.191,4.473c-0.5,0.951-1.314,1.662-2.273,2.049
		c-0.045,0.014-0.088,0.031-0.129,0.047c-0.486,0.178-1.006,0.283-1.543,0.283C28.543,61.371,27.846,61.197,27.199,60.857z
		 M72.764,32.682c2.895,0,5.248,2.355,5.248,5.25c0,1.43-0.568,2.768-1.6,3.768c-0.383,0.373-0.57,0.904-0.502,1.434
		c0.066,0.531,0.381,0.998,0.844,1.264c1.695,0.965,2.746,2.77,2.746,4.711c0,2.99-2.434,5.424-5.424,5.424
		c-1.596,0-3.105-0.701-4.141-1.926c-0.334-0.395-0.813-0.602-1.299-0.602c-0.311,0-0.625,0.084-0.904,0.26
		c-1.135,0.715-2.438,1.092-3.766,1.092c-3.914,0-7.1-3.186-7.1-7.1s3.186-7.098,7.1-7.098c0.469,0,0.945,0.055,1.42,0.15
		c1.891,0.623,2.436,1.9,2.477,2c0.244,0.695,0.9,1.135,1.602,1.135c0.178,0,0.359-0.027,0.537-0.088
		c0.891-0.297,1.373-1.26,1.076-2.15c-0.088-0.262-0.846-2.311-3.375-3.605C68.291,34.332,70.328,32.682,72.764,32.682z
		 M36.053,27.443l3.793-0.053c2.035,0.174,3.988,0.631,5.379,1.264l0.725,0.322l5.254,2.789c0.254,0.135,0.527,0.199,0.795,0.199
		c0.609,0,1.199-0.328,1.504-0.904c0.439-0.83,0.125-1.857-0.705-2.299l-1.854-0.982c1.33-0.287,2.779-0.453,4.176-0.453
		c0.031,0,0.066,0,0.102,0c2.98,0,5.723,0.699,7.516,1.908c1.498,1.037,2.381,2.273,2.799,3.945
		c-0.512,0.781-0.902,1.652-1.141,2.588c-0.143-0.006-0.285-0.01-0.428-0.01c-5.789,0-10.5,4.711-10.5,10.498
		c0,4.387,2.705,8.146,6.533,9.715c-0.033,0.623-0.053,1.258-0.049,1.912c0.002,7.678-1.434,11.236-2.287,12.67
		c-1.039,1.734-1.197,1.734-1.738,1.736c-0.307-0.035-0.707-0.705-0.557-2.402c0.311-3.584-0.154-7.793-1.275-11.561
		c-0.502-1.643-1.111-3.398-2.174-5.115c-1.209-1.945-2.957-3.033-4.928-3.063c-2.361-0.006-4.488,1.49-5.502,3.02
		c-1.16,1.754-1.729,3.598-2.211,5.172c-1.117,3.773-1.172,7.311-1.217,10.152c-0.018,1.141-0.033,2.125-0.117,2.977
		c-0.008,0.102-0.143,0.818-0.447,0.818c-0.797,0-0.881,0-1.738-1.646c-0.969-1.857-1.777-4.213-2.414-7.008
		c1.195-0.725,2.197-1.768,2.875-3.055c1.004-1.904,1.164-4.119,0.506-6.121c1.201-0.715,2.186-1.748,2.855-3.018
		c1.977-3.76,0.531-8.426-3.223-10.402c-0.924-0.486-1.943-0.77-2.979-0.852c-0.33-0.799-0.783-1.547-1.371-2.191
		c-0.098-0.109-0.199-0.215-0.303-0.316c0.678-1.133,1.041-2.43,1.041-3.787c0-1.842-0.682-3.525-1.799-4.822
		C32.283,28.25,34.023,27.682,36.053,27.443z M18.129,35.205c0.387,0,0.781,0.043,1.172,0.125c0.488,0.107,1.002-0.01,1.398-0.318
		s0.637-0.775,0.656-1.277c0.084-2.156,1.836-3.846,3.99-3.846c2.207,0,4.002,1.795,4.002,4.002c0,1.09-0.434,2.109-1.221,2.873
		c-0.385,0.373-0.57,0.906-0.502,1.438s0.385,1,0.852,1.264c0.375,0.211,0.719,0.486,1.02,0.816
		c0.129,0.143,0.248,0.295,0.357,0.453c-0.996,0.41-1.902,1.021-2.65,1.805c-0.057-0.031-0.115-0.063-0.174-0.094
		c-1.332-0.701-2.83-1.072-4.328-1.072c-3.059,0-5.873,1.488-7.602,3.945c-1.521-1.006-2.49-2.713-2.49-4.598
		C12.609,37.68,15.086,35.205,18.129,35.205z"/>
</g>
</svg>
