<?xml version="1.0" encoding="utf-8"?>
<!DOCTYPE svg PUBLIC "-//W3C//DTD SVG 1.1//EN" "http://www.w3.org/Graphics/SVG/1.1/DTD/svg11.dtd">
<svg version="1.1" id="Layer_1" xmlns="http://www.w3.org/2000/svg" xmlns:xlink="http://www.w3.org/1999/xlink" x="0px" y="0px"
	 width="91px" height="91px" viewBox="0 0 91 91" enable-background="new 0 0 91 91" xml:space="preserve">
<g>
	<path fill="#fff" stroke="#333333" stroke-linecap="round" stroke-linejoin="round" stroke-miterlimit="10"  d="M36.213,60.716v7.934h-9.617v9.35h40.078v-9.35H56.049v-7.646h1.871l15.947,8.324c0.25,0.131,0.52,0.193,0.785,0.193
		c0.58,0,1.143-0.297,1.459-0.826l3.594-6.004c0.24-0.402,0.305-0.887,0.176-1.338s-0.438-0.83-0.854-1.045l-12.354-6.385V14.675
		c0-0.939-0.76-1.701-1.699-1.701H48.389c-0.297,0-0.59,0.078-0.848,0.227l-6.18,3.561c-1.475-0.852-3.131-1.303-4.854-1.303
		c-3.083,0-6.02,1.475-7.855,3.947l-1.014,1.363l15.696,11.658l1.014-1.365c2.708-3.646,2.481-8.57-0.246-11.955l4.743-2.732h14.43
		v35.793l-2.27-1.174c-0.242-0.125-0.51-0.191-0.781-0.191H50.115l2.084-4.252h6.613v-3.4H41.174v3.4h7.238l-2.084,4.252h-5.434
		L18.122,26.403c-0.637-0.682-1.706-0.723-2.394-0.09l-5.339,4.914c-0.335,0.309-0.533,0.74-0.548,1.195
		c-0.015,0.457,0.155,0.898,0.47,1.229l25.613,26.824C36.011,60.567,36.109,60.646,36.213,60.716z M42.447,27.532l-9.871-7.33
		c1.105-0.867,2.474-1.344,3.93-1.344c1.374,0,2.687,0.434,3.794,1.256C42.65,21.86,43.453,24.927,42.447,27.532z M63.273,72.05
		v2.549H29.997V72.05h6.217h19.835H63.273z M52.648,68.649H39.614v-7.646h13.035V68.649z M16.789,29.958l22.123,23.705
		c0.322,0.344,0.771,0.539,1.243,0.539h19.654l16.049,8.295l-1.84,3.074l-14.895-7.775c-0.242-0.127-0.512-0.193-0.785-0.193h-2.289
		H37.88L13.966,32.556L16.789,29.958z"/>
</g>
</svg>
