<?xml version="1.0" encoding="utf-8"?>
<!DOCTYPE svg PUBLIC "-//W3C//DTD SVG 1.1//EN" "http://www.w3.org/Graphics/SVG/1.1/DTD/svg11.dtd">
<svg version="1.1" id="Layer_1" xmlns="http://www.w3.org/2000/svg" xmlns:xlink="http://www.w3.org/1999/xlink" x="0px" y="0px"
	 width="91px" height="91px" viewBox="0 0 91 91" enable-background="new 0 0 91 91" xml:space="preserve">
<g>
	<path fill="#fff" stroke="#333333" stroke-linecap="round" stroke-linejoin="round" stroke-miterlimit="10"  d="M57.036,14.111c0-2.541-1.41-3.998-3.871-3.998c-0.922,0-1.934,0.176-3.104,0.381C48.7,10.73,47.155,11,45.562,11
		s-3.139-0.27-4.5-0.506c-1.17-0.205-2.18-0.381-3.104-0.381c-2.459,0-3.871,1.457-3.871,3.998c0,4.605,4.24,8.422,9.75,9.094v5.41
		l-2.074-2.074l-2.404,2.404l4.977,4.977c0.332,0.332,0.768,0.498,1.201,0.498c0.436,0,0.871-0.166,1.203-0.498l4.977-4.977
		l-2.404-2.404l-2.074,2.074V23.21C52.771,22.556,57.036,18.73,57.036,14.111z M37.487,14.111c0-0.307,0.033-0.479,0.057-0.563
		c0.07-0.016,0.199-0.035,0.414-0.035c0.631,0,1.506,0.152,2.521,0.33c1.422,0.248,3.193,0.557,5.082,0.557s3.66-0.309,5.084-0.557
		c1.014-0.178,1.891-0.33,2.52-0.33c0.217,0,0.346,0.02,0.414,0.035c0.023,0.084,0.057,0.256,0.057,0.563
		c0,3.203-3.621,5.809-8.074,5.809C41.11,19.919,37.487,17.314,37.487,14.111z"/>
	<path fill="#fff" stroke="#333333" stroke-linecap="round" stroke-linejoin="round" stroke-miterlimit="10"  d="M52.69,82.602c1.092,1.189,2.414,1.283,2.795,1.283l0,0c2.408,0,3.479-1.111,4.971-3.604
		c1.359-2.281,2.98-6.828,2.979-15.543c-0.043-6.051,1.564-9.35,3.23-12.236l0.219-0.395c1.531-2.762,2.855-5.148,2.91-11
		L69.78,40.16c-0.156-4.182-1.699-7.146-4.875-9.344c-2.584-1.74-6.168-2.705-10.197-2.682c-0.939,0.004-1.697,0.768-1.695,1.705
		c0.002,0.471,0.193,0.896,0.504,1.203c-0.639,2.748-3.957,4.85-7.955,4.85c-3.941,0-7.227-2.043-7.93-4.732
		c0.352-0.32,0.574-0.779,0.563-1.293c-0.021-0.938-0.795-1.643-1.738-1.662l-2.588,0.059c-0.051,0.002-0.102,0.006-0.152,0.01
		c-2.967,0.336-5.576,1.219-7.555,2.559c-3.164,2.178-4.709,5.141-4.867,9.35c-0.006,0.336-0.012,0.643-0.012,0.939
		c0.047,5.815,1.367,8.198,2.896,10.958l0.254,0.457c1.648,2.852,3.254,6.143,3.209,12.215c0,8.707,1.615,13.252,2.975,15.537
		c1.504,2.502,2.43,3.598,4.973,3.598c2.412,0,3.844-2.082,4.01-4.111c0.102-1.035,0.121-2.223,0.141-3.48
		c0.045-2.861,0.102-6.42,1.193-10.109c0.449-1.457,0.955-3.109,1.928-4.578c0.559-0.844,1.734-1.686,2.916-1.686
		c0.012,0,0.023,0,0.035,0c0.91,0.014,1.711,0.566,2.379,1.641c0.941,1.52,1.506,3.158,1.973,4.693
		c1.074,3.604,1.539,7.785,1.242,11.186C51.206,79.715,51.638,81.453,52.69,82.602z M51.081,59.77
		c-1.283-2.064-3.137-3.219-5.219-3.25c-0.029,0-0.059,0-0.086,0c-2.504,0-4.686,1.602-5.75,3.207
		c-1.244,1.879-1.854,3.863-2.344,5.457c-0.002,0.006-0.029,0.096-0.031,0.102c-1.203,4.068-1.264,7.887-1.311,10.953
		c-0.02,1.238-0.037,2.307-0.127,3.23c-0.002,0.01-0.125,1.016-0.625,1.016c-0.803,0-0.887,0-2.055-1.941
		c-0.932-1.566-2.492-5.439-2.492-13.779c0.051-6.914-1.865-10.816-3.648-13.9l-0.24-0.434c-1.412-2.547-2.432-4.387-2.471-9.323
		c0-0.26,0.004-0.545,0.01-0.826c0.117-3.102,1.131-5.09,3.387-6.641c1.5-1.016,3.553-1.699,5.943-1.979l0.244-0.006
		c0.934,4.33,5.637,7.637,11.295,7.637c5.662,0,10.367-3.311,11.297-7.645c2.424,0.254,4.592,0.941,6.129,1.977
		c2.264,1.566,3.279,3.559,3.395,6.617l0.012,0.85c-0.047,4.973-1.068,6.817-2.484,9.368l-0.205,0.371
		c-1.801,3.121-3.719,7.029-3.67,13.922c0.002,8.346-1.564,12.223-2.496,13.787c-1.166,1.945-1.371,1.945-2.018,1.945
		c-0.463-0.041-0.889-0.92-0.729-2.75c0.336-3.861-0.162-8.4-1.373-12.461C52.882,63.51,52.228,61.621,51.081,59.77z"/>
</g>
</svg>
