<?xml version="1.0" encoding="utf-8"?>
<!DOCTYPE svg PUBLIC "-//W3C//DTD SVG 1.1//EN" "http://www.w3.org/Graphics/SVG/1.1/DTD/svg11.dtd">
<svg version="1.1" id="Layer_1" xmlns="http://www.w3.org/2000/svg" xmlns:xlink="http://www.w3.org/1999/xlink" x="0px" y="0px"
	 width="91px" height="91px" viewBox="0 0 91 91" enable-background="new 0 0 91 91" xml:space="preserve">
<g>
	<path fill="#fff" stroke="#333333" stroke-linecap="round" stroke-linejoin="round" stroke-miterlimit="10"  d="M52.472,81.6c1.09,1.191,2.414,1.285,2.793,1.285h0.002c2.408,0,3.479-1.111,4.971-3.602
		c1.359-2.283,2.98-6.83,2.977-15.545c-0.041-6.053,1.566-9.35,3.232-12.236l0.219-0.396c1.531-2.762,2.855-5.148,2.91-10.999
		l-0.014-0.947c-0.156-4.182-1.701-7.146-4.877-9.344c-2.564-1.729-6.162-2.682-10.127-2.682h-0.133
		c-3.184,0-6.533,0.652-8.957,1.742l-0.15,0.066l-0.133-0.059c-1.9-0.865-4.412-1.459-7.072-1.674
		c-0.055-0.004-0.105-0.002-0.16-0.006l-4.289,0.059c-0.055,0-0.111,0.004-0.168,0.01c-2.965,0.336-5.574,1.219-7.555,2.559
		c-3.162,2.18-4.709,5.141-4.865,9.35c-0.008,0.336-0.012,0.643-0.012,0.939c0.045,5.815,1.367,8.198,2.896,10.958l0.254,0.457
		c1.646,2.852,3.252,6.141,3.207,12.215c0,8.707,1.617,13.252,2.977,15.537c1.504,2.502,2.428,3.598,4.973,3.598
		c2.412,0,3.844-2.082,4.01-4.111c0.102-1.035,0.119-2.223,0.141-3.48c0.045-2.861,0.102-6.42,1.193-10.109
		c0.447-1.459,0.955-3.109,1.928-4.578c0.555-0.838,1.734-1.686,2.916-1.686c0.926,0,1.738,0.553,2.414,1.641
		c0.941,1.518,1.506,3.156,1.973,4.693c1.074,3.604,1.537,7.785,1.242,11.186C50.987,78.715,51.419,80.451,52.472,81.6z
		 M43.786,31.984l0.836,0.373c0.439,0.197,0.943,0.195,1.383,0.002l0.85-0.377c1.67-0.752,3.988-1.258,6.281-1.4
		c-0.92,2.479-4.061,4.311-7.793,4.311c-3.717,0-6.848-1.818-7.783-4.281l0.357-0.004C40.134,30.792,42.267,31.291,43.786,31.984z
		 M50.86,58.77c-1.301-2.096-3.184-3.25-5.303-3.25c-2.504,0-4.691,1.609-5.752,3.207c-1.242,1.879-1.852,3.863-2.342,5.457
		c-0.002,0.006-0.029,0.096-0.031,0.102c-1.203,4.068-1.264,7.887-1.313,10.953c-0.02,1.238-0.037,2.307-0.127,3.23
		c0,0.012-0.123,1.016-0.623,1.016c-0.803,0-0.887,0-2.055-1.941c-0.932-1.566-2.494-5.439-2.494-13.779
		c0.051-6.916-1.865-10.816-3.648-13.9l-0.24-0.434c-1.41-2.547-2.43-4.387-2.469-9.323c0-0.26,0.004-0.545,0.01-0.826
		c0.115-3.1,1.131-5.088,3.385-6.641c1.498-1.016,3.551-1.699,5.938-1.979l0.252-0.004c0.936,4.33,5.637,7.635,11.295,7.635
		c5.662,0,10.367-3.311,11.297-7.645c2.424,0.254,4.594,0.941,6.129,1.977c2.264,1.566,3.279,3.559,3.395,6.615l0.012,0.852
		c-0.047,4.971-1.068,6.815-2.482,9.366l-0.207,0.373c-1.801,3.119-3.719,7.027-3.672,13.922c0.004,8.348-1.563,12.223-2.496,13.787
		c-1.148,1.92-1.365,1.945-2.025,1.945c-0.459-0.055-0.877-0.934-0.719-2.75c0.336-3.861-0.164-8.4-1.373-12.461
		C52.663,62.508,52.007,60.619,50.86,58.77z"/>
	<path fill="#fff" stroke="#333333" stroke-linecap="round" stroke-linejoin="round" stroke-miterlimit="10"  d="M56.817,14.642c0-2.539-1.41-3.996-3.871-3.996c-0.924,0-1.934,0.176-3.104,0.379c-1.361,0.238-2.906,0.506-4.5,0.506
		s-3.139-0.268-4.5-0.506c-1.17-0.203-2.18-0.379-3.104-0.379c-2.461,0-3.871,1.457-3.871,3.996c0,5.078,5.146,9.209,11.475,9.209
		S56.817,19.72,56.817,14.642z M37.269,14.642c0-0.305,0.033-0.479,0.057-0.563c0.068-0.016,0.197-0.033,0.414-0.033
		c0.629,0,1.506,0.152,2.52,0.328c1.424,0.248,3.195,0.557,5.084,0.557s3.66-0.309,5.084-0.557c1.014-0.176,1.891-0.328,2.52-0.328
		c0.217,0,0.346,0.018,0.414,0.033c0.023,0.084,0.057,0.258,0.057,0.563c0,3.203-3.621,5.809-8.074,5.809
		S37.269,17.845,37.269,14.642z"/>
</g>
</svg>
