<?xml version="1.0" encoding="utf-8"?>
<!DOCTYPE svg PUBLIC "-//W3C//DTD SVG 1.1//EN" "http://www.w3.org/Graphics/SVG/1.1/DTD/svg11.dtd">
<svg version="1.1" id="Layer_1" xmlns="http://www.w3.org/2000/svg" xmlns:xlink="http://www.w3.org/1999/xlink" x="0px" y="0px"
	 width="91px" height="91px" viewBox="0 0 91 91" enable-background="new 0 0 91 91" xml:space="preserve">
<g>
	<path fill="#fff" stroke="#333333" stroke-linecap="round" stroke-linejoin="round" stroke-miterlimit="10"  d="M15.193,60.799c0.025-0.004,2.344-0.369,4.914-0.148c0.102,0.816,0.162,1.703,0.154,2.705
		c0,6.695,1.258,10.221,2.318,12.008c1.199,1.988,1.996,2.926,4.125,2.926c2.074,0,3.307-1.768,3.451-3.488
		c0.078-0.803,0.094-1.715,0.109-2.68c0.033-2.146,0.076-4.816,0.869-7.492l0.031-0.105c0.33-1.066,0.703-2.277,1.398-3.328
		c0.354-0.533,1.129-1.098,1.873-1.098c0.205,0,0.83,0,1.482,1.049c0.686,1.113,1.107,2.33,1.455,3.465
		c0.801,2.697,1.148,5.814,0.928,8.338c-0.164,1.848,0.199,3.271,1.08,4.232c0.939,1.027,2.092,1.107,2.422,1.107h0.002
		c2.01,0,2.93-0.945,4.123-2.932c1.061-1.777,2.322-5.303,2.316-12.012c-0.006-0.959,0.051-1.803,0.141-2.586
		c0.688-0.025,1.643-0.053,2.82-0.064l-2.156,3.646c-0.479,0.807-0.211,1.85,0.598,2.328c0.271,0.16,0.57,0.236,0.865,0.236
		c0.58,0,1.146-0.297,1.465-0.834l3.168-5.357c4.914,0.098,11.586,0.496,18.561,1.707c0.1,0.018,0.197,0.025,0.293,0.025
		c0.813,0,1.529-0.582,1.674-1.408c0.16-0.926-0.459-1.807-1.385-1.967c-6.346-1.102-12.377-1.555-17.156-1.715l2.602-4.396
		c0.637,0.189,1.295,0.295,1.961,0.295c0.58,0,1.164-0.074,1.74-0.221c1.801-0.463,3.314-1.598,4.262-3.199l8.033-13.575
		l0.518,0.307l1.73-2.926l-3.131-1.854l1.66-2.807l2.285,1.354l1.73-2.926l-11.318-6.701l-1.732,2.926l2.287,1.354l-1.66,2.807
		l-3.139-1.855l-1.73,2.926l0.52,0.307l-8.031,13.574c-0.949,1.596-1.217,3.469-0.756,5.27c0.318,1.24,0.959,2.336,1.846,3.211
		l-3.582,6.055c-1.637-0.008-3.008,0.016-4.051,0.047c0.414-1.143,0.928-2.123,1.475-3.07l0.164-0.293
		c1.189-2.146,2.217-4,2.258-8.555c0-0.223-0.002-0.458-0.008-0.735c-0.121-3.311-1.35-5.664-3.881-7.416
		c-2.014-1.355-4.824-2.104-7.908-2.104h-0.113c-2.438,0-5.012,0.498-6.906,1.332c-1.471-0.656-3.398-1.109-5.436-1.273
		c-0.053-0.006-0.109-0.008-0.16-0.006l-3.254,0.045c-0.057,0-0.111,0.004-0.166,0.01c-2.318,0.262-4.363,0.953-5.926,2.01
		c-2.516,1.734-3.744,4.086-3.867,7.414c-0.008,0.264-0.01,0.502-0.01,0.737c0.033,4.51,1.105,6.447,2.242,8.5l0.203,0.367
		c0.504,0.869,0.996,1.805,1.404,2.904c-2.514-0.09-4.529,0.23-4.641,0.248c-0.926,0.15-1.553,1.023-1.402,1.949
		S14.271,60.945,15.193,60.799z M72.686,26.72l0.896,0.531l-1.66,2.805l-0.896-0.529L72.686,26.72z M58.643,44.478l8.033-13.574
		l1.566,0.926l4.559,2.703l-0.756,1.279l-1.93-1.143l-1.73,2.928l1.928,1.141l-0.973,1.645l-1.926-1.145l-1.736,2.924l1.932,1.146
		l-1.115,1.883l-1.928-1.143l-1.734,2.924l1.93,1.145c-0.486,0.813-1.256,1.389-2.17,1.623c-0.922,0.238-1.879,0.1-2.697-0.387
		c-0.82-0.482-1.4-1.258-1.637-2.182C58.021,46.252,58.158,45.295,58.643,44.478z M18.846,44.798
		c0.082-2.209,0.799-3.623,2.387-4.717c1.08-0.73,2.566-1.225,4.307-1.43l3.086-0.043c1.633,0.141,3.193,0.506,4.299,1.008
		l0.59,0.266l4.311,2.283c0.254,0.135,0.527,0.199,0.795,0.199c0.609,0,1.199-0.33,1.504-0.904c0.439-0.83,0.123-1.859-0.707-2.299
		l-0.756-0.4c0.822-0.131,1.674-0.205,2.502-0.205h0.113c2.381,0,4.57,0.555,5.992,1.512c1.129,0.781,2.297,1.955,2.398,4.705
		c0.006,0.225,0.006,0.436,0.006,0.624c-0.031,3.674-0.748,4.965-1.832,6.918l-0.148,0.271c-1.395,2.416-2.879,5.439-2.846,10.771
		c0.006,6.236-1.148,9.104-1.834,10.254c-0.623,1.037-0.855,1.23-0.896,1.256c-0.006,0.002-0.059,0.016-0.225,0.02
		c-0.08-0.074-0.301-0.512-0.201-1.639c0.26-2.973-0.125-6.475-1.061-9.619c-0.418-1.365-0.928-2.828-1.818-4.271
		c-1.066-1.715-2.619-2.66-4.373-2.66c-1.803,0-3.65,1.027-4.705,2.617c-0.969,1.461-1.438,2.984-1.814,4.209l-0.037,0.121
		c-0.932,3.139-0.979,6.068-1.016,8.424C26.85,73,26.838,73.805,26.77,74.492c-0.01,0.135-0.07,0.307-0.123,0.396
		c-0.15-0.002-0.229-0.01-0.256-0.01c-0.01,0-0.012,0.002-0.012,0.004c-0.1-0.076-0.334-0.359-0.881-1.266
		c-0.686-1.154-1.836-4.025-1.838-10.248c0.014-1.689-0.137-3.125-0.375-4.402c-0.01-0.107-0.029-0.213-0.059-0.314
		c-0.533-2.605-1.477-4.467-2.383-6.033l-0.189-0.344c-1.078-1.945-1.791-3.232-1.816-6.865
		C18.838,45.219,18.84,45.012,18.846,44.798z"/>
	<path fill="#fff" stroke="#333333" stroke-linecap="round" stroke-linejoin="round" stroke-miterlimit="10"  d="M39.615,27.091l-6.91-4.988c-0.76-0.549-1.824-0.379-2.373,0.383c-0.551,0.762-0.379,1.824,0.383,2.373l6.91,4.99
		c0.301,0.217,0.65,0.32,0.994,0.32c0.527,0,1.047-0.244,1.381-0.705C40.549,28.705,40.377,27.64,39.615,27.091z"/>
	<path fill="#fff" stroke="#333333" stroke-linecap="round" stroke-linejoin="round" stroke-miterlimit="10"  d="M43.453,11.009c-0.92,0.186-1.518,1.08-1.332,2.002l2.766,13.834c0.16,0.807,0.871,1.365,1.664,1.365
		c0.111,0,0.223-0.01,0.336-0.033c0.92-0.184,1.518-1.078,1.334-2l-2.766-13.834C45.27,11.423,44.377,10.828,43.453,11.009z"/>
	<path fill="#fff" stroke="#333333" stroke-linecap="round" stroke-linejoin="round" stroke-miterlimit="10"  d="M58.58,13.978l-5.623,11.068c-0.426,0.838-0.092,1.861,0.744,2.287c0.248,0.125,0.51,0.184,0.77,0.184
		c0.619,0,1.217-0.34,1.518-0.93l5.623-11.07c0.424-0.838,0.09-1.859-0.746-2.285C60.027,12.804,59.004,13.14,58.58,13.978z"/>
</g>
</svg>
