<?xml version="1.0" encoding="utf-8"?>
<!DOCTYPE svg PUBLIC "-//W3C//DTD SVG 1.1//EN" "http://www.w3.org/Graphics/SVG/1.1/DTD/svg11.dtd">
<svg version="1.1" id="Layer_1" xmlns="http://www.w3.org/2000/svg" xmlns:xlink="http://www.w3.org/1999/xlink" x="0px" y="0px"
	 width="91px" height="91px" viewBox="0 0 91 91" enable-background="new 0 0 91 91" xml:space="preserve">
<g>
	<path fill="#fff" stroke="#333333" stroke-linecap="round" stroke-linejoin="round" stroke-miterlimit="10"  d="M46.369,25.449c-2.563,0-4.648,2.086-4.648,4.65c0,2.563,2.086,4.648,4.648,4.648c2.564,0,4.65-2.086,4.65-4.648
		C51.02,27.535,48.934,25.449,46.369,25.449z M46.369,31.347c-0.688,0-1.248-0.561-1.248-1.248c0-0.689,0.561-1.25,1.248-1.25
		c0.689,0,1.25,0.561,1.25,1.25C47.619,30.787,47.059,31.347,46.369,31.347z"/>
	<path fill="#fff" stroke="#333333" stroke-linecap="round" stroke-linejoin="round" stroke-miterlimit="10"  d="M34.643,44.298c1.352,0,2.453-1.1,2.453-2.451c0-1.354-1.102-2.453-2.453-2.453c-1.354,0-2.453,1.1-2.453,2.453
		C32.189,43.199,33.289,44.298,34.643,44.298z"/>
	<path fill="#fff" stroke="#333333" stroke-linecap="round" stroke-linejoin="round" stroke-miterlimit="10"  d="M59.121,44.298c1.354,0,2.455-1.1,2.455-2.451c0-1.354-1.102-2.453-2.455-2.453c-1.352,0-2.451,1.1-2.451,2.453
		C56.67,43.199,57.77,44.298,59.121,44.298z"/>
	<path fill="#fff" stroke="#333333" stroke-linecap="round" stroke-linejoin="round" stroke-miterlimit="10"  d="M20.674,52.35c0.082,0.014,0.166,0.02,0.248,0.02c0.084,0,0.166-0.012,0.248-0.023c1.232,4.797,3.783,9.045,7.238,12.346
		c-7.602,1.855-13.266,8.703-13.266,16.867c0,0.939,0.762,1.701,1.699,1.701c0.939,0,1.701-0.762,1.701-1.701
		c0-7.553,6.025-13.711,13.52-13.957c4.113,2.715,9.033,4.293,14.307,4.293c5.285,0,10.213-1.584,14.33-4.309
		c7.637,0.084,13.824,6.316,13.824,13.973c0,0.939,0.762,1.701,1.701,1.701s1.699-0.762,1.699-1.701
		c0-8.258-5.793-15.174-13.525-16.936c3.428-3.297,5.959-7.531,7.182-12.311c0.914-0.174,4.402-0.996,6.385-3.717
		c1.213-1.664,1.635-3.665,1.254-5.948c-0.496-2.984-1.98-4.199-3.137-4.691c-1.477-0.627-3.082-0.389-4.395,0.051V17.031
		c0-0.453-0.182-0.887-0.502-1.207c-0.24-0.238-6.094-5.834-24.816-5.834c-18.662,0-25.18,5.527-25.447,5.764
		c-0.369,0.322-0.58,0.787-0.58,1.277v20.977c-1.311-0.441-2.918-0.678-4.395-0.051c-1.156,0.492-2.641,1.707-3.137,4.691
		c-0.381,2.283,0.041,4.284,1.254,5.948C16.313,51.68,20.496,52.324,20.674,52.35z M46.369,68.494
		c-7.982,0-15.016-4.162-19.047-10.471l7.244-7.404h24.098l6.773,7.371C61.412,64.318,54.367,68.494,46.369,68.494z M46.369,13.39
		c14.18,0,20.25,3.324,21.918,4.467v13.906c-0.178-0.279-0.338-0.566-0.527-0.84c-0.533-0.771-1.592-0.963-2.365-0.43
		c-0.771,0.535-0.963,1.594-0.43,2.365c0.711,1.025,1.316,2.105,1.844,3.221c-3.336-2.393-7.064-4.176-11.035-5.266
		c0.018-0.238,0.037-0.475,0.037-0.715c0-5.205-4.236-9.441-9.441-9.441s-9.441,4.236-9.441,9.441c0,0.26,0.02,0.518,0.039,0.773
		c-4.006,1.125-7.771,2.949-11.139,5.391c0.648-1.404,1.441-2.744,2.377-4.006c0.561-0.756,0.402-1.82-0.352-2.379
		c-0.758-0.561-1.82-0.4-2.379,0.354c-0.637,0.859-1.211,1.752-1.732,2.67V17.91C25.607,16.736,32.18,13.39,46.369,13.39z
		 M52.201,31.648c-0.004,0.014-0.012,0.025-0.014,0.039c-0.002,0.008-0.002,0.016-0.004,0.023c-0.707,2.549-3.041,4.43-5.814,4.43
		c-3.33,0-6.041-2.711-6.041-6.041c0-3.332,2.711-6.041,6.041-6.041c3.332,0,6.041,2.709,6.041,6.041
		C52.41,30.634,52.332,31.152,52.201,31.648z M16.164,43.207c0.135-0.807,0.436-1.83,1.111-2.119
		c0.846-0.361,2.266,0.176,3.207,0.68c0.26,0.604,0.859,1.027,1.561,1.027c0.123,0,0.242-0.016,0.357-0.039
		c0.115,0.023,0.234,0.039,0.352,0.039c0.436,0,0.871-0.166,1.203-0.498c3.883-3.883,8.672-6.67,13.9-8.145
		c1.521,3.182,4.762,5.389,8.514,5.389c3.775,0,7.029-2.232,8.539-5.441c5.229,1.443,10.006,4.207,13.877,8.076
		c0.332,0.332,0.768,0.498,1.203,0.498c0.434,0,0.869-0.166,1.201-0.498c0.109-0.109,0.195-0.232,0.268-0.361
		c0.922-0.508,2.422-1.102,3.293-0.729c0.678,0.289,0.98,1.313,1.115,2.121c0.227,1.361,0.018,2.465-0.639,3.374
		c-0.771,1.066-2.018,1.688-2.982,2.031c0.051-0.473,0.092-0.949,0.117-1.43c0.049-0.939-0.672-1.739-1.609-1.788
		c-0.949-0.051-1.738,0.672-1.787,1.61c-0.145,2.768-0.799,5.389-1.838,7.799l-6.465-7.033c-0.322-0.35-0.775-0.551-1.252-0.551
		H33.852c-0.457,0-0.895,0.186-1.215,0.512l-6.994,7.146c-1.057-2.428-1.721-5.07-1.867-7.865c-0.051-0.938-0.83-1.655-1.787-1.608
		c-0.938,0.049-1.658,0.85-1.609,1.788c0.029,0.555,0.082,1.104,0.145,1.648c-0.947-0.252-2.719-0.885-3.713-2.246
		C16.148,45.681,15.936,44.574,16.164,43.207z"/>
</g>
</svg>
