<?xml version="1.0" encoding="utf-8"?>
<!DOCTYPE svg PUBLIC "-//W3C//DTD SVG 1.1//EN" "http://www.w3.org/Graphics/SVG/1.1/DTD/svg11.dtd">
<svg version="1.1" id="Layer_1" xmlns="http://www.w3.org/2000/svg" xmlns:xlink="http://www.w3.org/1999/xlink" x="0px" y="0px"
	 width="91px" height="91px" viewBox="0 0 91 91" enable-background="new 0 0 91 91" xml:space="preserve">
<g>
	<path fill="#fff" stroke="#333333" stroke-linecap="round" stroke-linejoin="round" stroke-miterlimit="10"  d="M45.398,13.089c-25.068,0-33.209,9.229-33.545,9.623l-0.404,0.475v8.422c0,1.256,0.725,2.637,1.172,3.371v5.512
		c-0.078,0.713-0.166,2.592,0.885,3.79c0.539,0.613,1.295,0.951,2.133,0.951h6.168l0.221-0.061c0.035,0.045,0.061,0.096,0.1,0.139
		c0.57,0.654,1.379,1.014,2.273,1.014h7.016l0.098-0.027c0.137,0.283,0.295,0.561,0.51,0.813c0.471,0.553,1.328,1.211,2.746,1.211
		h9.238l0.184-0.041c0.453-0.102,1.063-0.381,1.639-0.873c0.574,0.492,1.184,0.771,1.637,0.873l9.422,0.041
		c1.416,0,2.273-0.658,2.744-1.209c0.215-0.252,0.373-0.529,0.51-0.813l0.096,0.025h7.02c0.895,0,1.703-0.361,2.275-1.014
		c0.041-0.047,0.07-0.102,0.107-0.152c0.01,0.004,0.021,0.01,0.029,0.012l0.225,0.063h6.17c0.836,0,1.596-0.338,2.133-0.953
		c1.051-1.198,0.963-3.075,0.883-3.79v-5.219c1.354-1.348,1.406-2.996,1.406-3.207v-9.1l-0.494-0.496
		C79.611,22.085,70.389,13.089,45.398,13.089z M45.398,16.49c20.318,0,29.555,6.254,31.688,7.953l0.002,5.709
		c-0.771-0.58-1.715-0.9-2.783-0.9c-1.955,0-3.506,0.955-4.652,2.063c-0.215-0.387-0.475-0.771-0.82-1.117
		c-0.914-0.92-2.154-1.404-3.588-1.404c-2.498,0-4.41,1.379-5.721,2.803c-0.195-0.293-0.414-0.582-0.686-0.857
		c-1.146-1.152-2.703-1.736-4.629-1.736c-3.967,0-6.793,2.41-8.379,4.258c-1.586-1.848-4.414-4.258-8.381-4.258
		c-1.924,0-3.48,0.584-4.625,1.736c-0.273,0.273-0.492,0.564-0.688,0.857c-1.311-1.424-3.225-2.803-5.725-2.803
		c-1.432,0-2.672,0.484-3.586,1.404c-0.338,0.338-0.594,0.713-0.807,1.092c-1.143-1.098-2.684-2.037-4.621-2.037
		c-0.959,0-1.824,0.246-2.549,0.715v-5.443C16.707,22.843,25.084,16.49,45.398,16.49z M16.025,41.832
		c-0.047-0.277-0.059-0.693-0.018-1.018l0.014-6.328c0.008-0.551,0.154-1.834,1.377-1.834c1.914,0,3.342,2.303,3.791,3.123v5.109
		c0,0.494-0.086,0.791-0.166,0.947H16.025z M24.633,42.923c-0.084-0.311-0.115-0.891-0.059-1.338v-0.5
		c0.002-0.07,0.016-0.129,0.016-0.201v-5.879l-0.002-0.004L24.59,34.4c-0.002-0.229,0.109-1.268,0.646-1.807
		c0.172-0.172,0.48-0.4,1.176-0.4c2.398,0,4.084,2.691,4.588,3.607v5.885c0,0.682-0.15,1.063-0.281,1.238H24.633z M43.508,44.92
		H34.77c-0.092,0-0.145-0.012-0.152-0.012c0,0-0.002,0-0.002,0.002c-0.164-0.158-0.281-0.971-0.18-1.651l0.021-8.209
		c0-0.01,0.039-1.174,0.777-1.916c0.484-0.486,1.229-0.732,2.215-0.732c3.574,0,5.979,3.176,6.68,4.234v6.715
		C44.129,44.402,43.744,44.785,43.508,44.92z M57.053,44.902c-0.012,0.004-0.064,0.018-0.164,0.018h-8.756
		c-0.184-0.111-0.604-0.488-0.604-1.569v-6.719c0.697-1.064,3.076-4.23,6.68-4.23c2.662,0,2.979,1.863,2.99,2.658v7.928l0.021,0.262
		C57.324,43.939,57.205,44.752,57.053,44.902z M67.025,42.923h-6.086c-0.131-0.176-0.281-0.559-0.281-1.238v-5.883
		c0.506-0.914,2.203-3.609,4.586-3.609c1.621,0,1.816,1.553,1.824,2.215v6.951l0.016,0.229
		C67.137,41.98,67.115,42.595,67.025,42.923z M75.678,41.832h-5.004c-0.078-0.156-0.164-0.453-0.164-0.947v-5.107
		c0.449-0.82,1.885-3.125,3.795-3.125c1.219,0,1.369,1.285,1.375,1.83v6.111l0.016,0.221C75.732,41.101,75.727,41.539,75.678,41.832
		z"/>
	<path fill="#fff" stroke="#333333" stroke-linecap="round" stroke-linejoin="round" stroke-miterlimit="10"  d="M70.52,50.32h-4.09c-0.982,0-1.871,0.416-2.529,1.086c-0.01,0-0.018-0.002-0.025-0.002c-0.324,0-0.623,0.053-0.91,0.104
		c-0.246,0.043-0.477,0.082-0.678,0.082h-4.531c-0.201,0-0.434-0.039-0.678-0.082c-0.289-0.051-0.588-0.104-0.912-0.104
		c-0.271,0-0.541,0.045-0.797,0.133c-0.197-0.041-0.404-0.068-0.627-0.068c-0.252,0-0.541,0.027-0.855,0.063
		c-0.234,0.027-0.492,0.059-0.762,0.059h-5.104c-0.27,0-0.527-0.031-0.762-0.057c-0.313-0.037-0.602-0.064-0.854-0.064
		c-0.305,0-0.58,0.051-0.838,0.127c-0.258-0.076-0.531-0.127-0.836-0.127c-0.252,0-0.541,0.027-0.855,0.063
		c-0.234,0.027-0.492,0.059-0.764,0.059h-5.102c-0.27,0-0.527-0.031-0.764-0.059c-0.313-0.035-0.602-0.063-0.854-0.063
		c-0.238,0-0.457,0.033-0.668,0.08c-0.268-0.098-0.553-0.145-0.836-0.145c-0.324,0-0.623,0.053-0.912,0.104
		c-0.246,0.043-0.479,0.082-0.68,0.082H28.77c-0.201,0-0.432-0.039-0.678-0.082c-0.287-0.051-0.586-0.104-0.91-0.104
		c-0.008,0-0.016,0.002-0.025,0.002c-0.658-0.67-1.547-1.086-2.529-1.086h-4.09c-2.021,0-3.664,1.742-3.664,3.885v2.201
		c-0.619,0.664-1.727,2.168-1.727,4.447v9.447c0,0.436,0.168,0.855,0.469,1.172c0.336,0.352,8.459,8.621,30.158,8.621
		c21.791,0,29.174-8.99,29.479-9.373c0.238-0.301,0.367-0.672,0.367-1.057v-8.236c0.137-1.105-0.064-2.99-1.436-4.318v-2.904
		C74.184,52.063,72.539,50.32,70.52,50.32z M66.43,53.721h4.09c0.09,0,0.264,0.188,0.264,0.484v6.592
		c-0.004,0.309-0.082,1.854-1.15,1.854c-2.234,0-3.172-1.229-3.469-1.746v-6.699C66.164,53.904,66.336,53.721,66.43,53.721z
		 M62.287,54.99c0.166,0,0.324-0.008,0.477-0.021v6.316v1.18c-0.004,0.205-0.07,2.004-1.459,2.004c-2.605,0-3.688-1.334-4.027-1.891
		v-7.609c0.152,0.014,0.313,0.021,0.479,0.021H62.287z M48.021,54.99h5.104c0.26,0,0.512-0.016,0.752-0.039v8.031v1.057
		c-0.039,0.283-0.385,1.834-3.176,1.834c-2.754,0-3.326-1.891-3.432-2.434v-8.488C47.51,54.975,47.762,54.99,48.021,54.99z
		 M37.26,54.951c0.24,0.023,0.492,0.039,0.752,0.039h5.102c0.262,0,0.514-0.016,0.756-0.039v8.627v0.439
		c-0.082,0.504-0.545,1.855-3.18,1.855c-2.752,0-3.324-1.891-3.432-2.434L37.26,54.951z M33.299,54.99
		c0.166,0,0.326-0.008,0.479-0.021v7.605c-0.352,0.576-1.436,1.895-4.025,1.895c-1.322,0-1.451-1.525-1.459-1.98v-1.203v-6.316
		c0.152,0.014,0.313,0.021,0.477,0.021H33.299z M20.273,54.205c0-0.297,0.172-0.484,0.264-0.484h4.09
		c0.092,0,0.266,0.188,0.266,0.484v6.693c-0.309,0.539-1.25,1.752-3.469,1.752c-1.068,0-1.146-1.545-1.15-1.842V54.205z
		 M45.773,76.693c-17.309,0-25.307-5.57-27.227-7.152v-4.568c0.699,0.646,1.641,1.078,2.877,1.078c1.711,0,3.018-0.445,4.012-1.043
		c0.672,1.527,2.021,2.861,4.316,2.861c2.314,0,3.949-0.713,5.082-1.553c0.986,1.529,2.803,2.957,5.855,2.957
		c2.443,0,4.051-0.814,5.066-1.85c1.07,1.045,2.658,1.85,4.945,1.85c3.135,0,4.891-1.344,5.785-2.768
		c1.119,0.756,2.68,1.363,4.818,1.363c2.266,0,3.615-1.338,4.297-2.873c0.996,0.604,2.309,1.055,4.031,1.055
		c1.072,0,1.922-0.326,2.586-0.836v3.777C70.557,70.617,63.166,76.693,45.773,76.693z"/>
</g>
</svg>
