<?xml version="1.0" encoding="utf-8"?>
<!DOCTYPE svg PUBLIC "-//W3C//DTD SVG 1.1//EN" "http://www.w3.org/Graphics/SVG/1.1/DTD/svg11.dtd">
<svg version="1.1" id="Layer_1" xmlns="http://www.w3.org/2000/svg" xmlns:xlink="http://www.w3.org/1999/xlink" x="0px" y="0px"
	 width="91px" height="91px" viewBox="0 0 91 91" enable-background="new 0 0 91 91" xml:space="preserve">
<g>
	<path fill="#fff" stroke="#333333" stroke-linecap="round" stroke-linejoin="round" stroke-miterlimit="10"  d="M45.773,21.486c-1.441-1.148-4.016-2.572-7.912-2.572c-8.377,0-17.801,9.459-18.416,24.738
		c-0.439,10.954,4.402,18.454,7.402,22.014c2.928,3.625,8.693,8.32,18.922,8.336c0.008,0,0.016,0,0.023,0
		c0.178,0.004,0.355,0.004,0.531,0.004c3.324,0,6.152-0.541,8.486-1.277c0.145-0.045,0.285-0.092,0.428-0.139
		c0.191-0.064,0.385-0.127,0.57-0.193c0.334-0.119,0.658-0.242,0.977-0.371c0.014-0.006,0.027-0.012,0.043-0.018
		c1.025-0.416,1.963-0.879,2.814-1.371c1.033-0.59,1.791-1.131,2.277-1.508c0.023-0.02,0.047-0.037,0.072-0.057
		c0.029-0.021,0.055-0.043,0.08-0.064c2.811-2.176,4.311-4.473,4.91-5.551c2.938-4.432,6.039-11.697,5.047-21.903
		c-0.043-8.172-6.172-22.641-18.342-22.641C49.547,18.914,47.133,20.232,45.773,21.486z M27.73,60.875
		c0.502-1.105,1.709-3.445,3.605-5.238c0.254-0.131,0.467-0.318,0.625-0.547c1.297-1.051,2.867-1.809,4.717-1.809
		c6.563,0,7.486,2.68,7.49,2.68c0.158,0.764,0.807,1.348,1.584,1.381c0.773,0.035,1.473-0.441,1.695-1.188
		c0.041-0.113,1.102-2.768,7.188-2.768c3.512,0,5.764,1.641,7.033,3.016c1.666,1.805,2.387,3.943,2.395,5.313
		c-0.01,0.018-0.025,0.043-0.035,0.061c-1.834,2.717-3.531,4.121-3.695,4.254c-0.031,0.025-0.066,0.057-0.096,0.084
		c-0.004,0.004-0.061,0.051-0.137,0.115c-0.191,0.148-0.377,0.299-0.584,0.445c-0.047,0.035-0.094,0.068-0.146,0.105
		c-0.264,0.186-0.549,0.369-0.84,0.551c-0.551,0.34-1.221,0.717-2.027,1.094c-0.029,0.014-0.059,0.027-0.088,0.041
		c-0.459,0.211-0.967,0.42-1.506,0.621c-0.223,0.084-0.443,0.168-0.678,0.246c-0.166,0.057-0.342,0.109-0.516,0.164
		c-2.193,0.67-4.793,1.104-7.877,1.105c-9.225-0.162-14.379-5.035-14.426-5.08c-0.027-0.025-0.057-0.053-0.086-0.078
		c-0.031-0.025-1.111-0.988-2.484-2.768C28.318,61.939,27.953,61.305,27.73,60.875z M40.881,47.422
		c1.01,2.545,3.242,2.814,4.443,2.959l0.24,0.029c0.072,0.01,0.145,0.016,0.219,0.016h0.17c0.074,0,0.146-0.006,0.219-0.016
		l0.242-0.029c1.199-0.145,3.432-0.416,4.447-2.961c0.908-2.297-0.512-4.995-0.916-5.688c-0.43-0.922-0.584-2.02-0.4-2.258
		c0.057-0.074,0.596-0.309,2.061-0.037c6.744,1.777,7.832,7.983,7.893,11.471c-1.516-0.598-3.152-0.922-4.863-0.922
		c-4.625,0-7.252,1.363-8.713,2.689c-1.439-1.385-4.152-2.795-9.244-2.795c-1.695,0-3.201,0.41-4.533,1.063
		c0.162-3.668,1.463-9.655,8.002-11.508c1.453-0.268,1.99-0.035,2.045,0.039c0.184,0.238,0.029,1.34-0.398,2.256
		C41.389,42.423,39.965,45.125,40.881,47.422z M66.4,57.439c-0.559-1.188-1.309-2.34-2.232-3.342
		c-0.412-0.447-0.859-0.846-1.322-1.225c0.471-5.236-1.131-14.331-10.441-16.741c-0.035-0.01-0.072-0.018-0.107-0.025
		c-2.586-0.492-4.422-0.053-5.457,1.307c-1.625,2.133-0.219,5.264,0.078,5.869c0.02,0.039,0.045,0.082,0.066,0.121
		c0.443,0.749,0.953,2.163,0.717,2.76c-0.24,0.604-0.557,0.703-1.695,0.842l-0.139,0.016l-0.135-0.016
		c-1.139-0.139-1.453-0.238-1.693-0.842c-0.238-0.6,0.27-2.012,0.711-2.756c0.025-0.041,0.047-0.082,0.068-0.125
		c0.299-0.605,1.703-3.736,0.078-5.869c-1.035-1.359-2.869-1.799-5.455-1.307c-0.047,0.01-0.092,0.02-0.137,0.031
		c-9.289,2.58-10.957,11.897-10.531,17.247c-1.35,1.334-2.383,2.834-3.115,4.1c-1.684-3.512-3.039-8.107-2.816-13.696
		c0.004-0.07,0.014-0.135,0.016-0.205c0.293,0.012,0.607-0.002,0.941-0.07c0.803-0.164,1.965-0.682,2.953-2.213
		c0.303-0.467,0.641-1.088,1.033-1.807c1.73-3.178,4.623-8.486,8.637-8.486c0.018,0,0.037,0,0.055,0
		c6.041,0.074,16.719,0,16.9-0.002c0.064-0.002,5.854-0.219,8.25,7.131c0.018,0.051,0.035,0.1,0.057,0.146
		c0.695,1.611,2.111,4.426,3.77,5.162c0.816,0.363,1.566,0.508,2.238,0.508c0.391,0,0.75-0.055,1.084-0.139
		C69.025,49.441,67.906,53.975,66.4,57.439z M68.535,40.115c-0.057,0.059-0.113,0.119-0.162,0.188
		c-0.004,0.006-0.412,0.537-1.492,0.061c-0.428-0.281-1.395-1.871-2.047-3.359c-2.572-7.773-8.732-9.551-11.557-9.396
		c-0.107,0.002-10.752,0.074-16.76,0c-0.033,0-0.064,0-0.098,0c-6.031,0-9.664,6.668-11.621,10.26
		c-0.357,0.658-0.668,1.229-0.9,1.588c-0.285,0.439-0.52,0.627-0.703,0.699c1.758-12.133,9.457-17.84,14.666-17.84
		c3.527,0,5.488,1.482,6.238,2.207c0.092,0.578,0.488,1.088,1.076,1.314c0.857,0.33,1.834-0.105,2.189-0.955
		c0.043-0.104,1.133-2.566,6.322-2.566C63.318,22.314,67.85,33.945,68.535,40.115z"/>
	<path fill="#fff" stroke="#333333" stroke-linecap="round" stroke-linejoin="round" stroke-miterlimit="10"  d="M55.645,9.943c-5.291,0-8.346,1.771-9.928,3.156c-1.678-1.352-4.855-3.156-9.859-3.156
		c-9.174,0-19.316,11.492-20.043,32.789C15.127,62.766,25.816,74.094,26.68,74.975c0.635,0.709,7.271,7.799,19.104,8.039
		c0.211,0.006,0.416,0.008,0.623,0.008c11.422-0.002,17.824-6.469,18.488-7.174c0.975-0.934,12.682-12.688,10.744-35.934
		C75.607,31.029,69.846,9.943,55.645,9.943z M72.244,40.13c1.863,22.053-9.607,33.174-9.721,33.28
		c-0.029,0.029-0.063,0.063-0.092,0.094c-0.057,0.061-5.768,6.117-16.041,6.117c-0.178,0-0.357-0.002-0.537-0.006
		c-10.629-0.217-16.592-6.855-16.648-6.918c-0.025-0.029-0.053-0.059-0.08-0.086c-0.105-0.105-10.564-10.791-9.912-29.762
		c0.631-18.469,8.959-29.506,16.645-29.506c5.277,0,7.828,2.383,8.453,3.066c0.141,0.236,0.342,0.443,0.596,0.596
		c0.092,0.055,0.186,0.1,0.281,0.137c0.529,0.209,1.15,0.15,1.641-0.213c0.256-0.188,0.441-0.432,0.557-0.703
		c0.564-0.701,2.768-2.883,8.26-2.883c10.736,0,16.594,17.6,16.594,26.643C72.238,40.035,72.24,40.082,72.244,40.13z"/>
</g>
</svg>
