<?xml version="1.0" encoding="utf-8"?>
<!DOCTYPE svg PUBLIC "-//W3C//DTD SVG 1.1//EN" "http://www.w3.org/Graphics/SVG/1.1/DTD/svg11.dtd">
<svg version="1.1" id="Layer_1" xmlns="http://www.w3.org/2000/svg" xmlns:xlink="http://www.w3.org/1999/xlink" x="0px" y="0px"
	 width="91px" height="91px" viewBox="0 0 91 91" enable-background="new 0 0 91 91" xml:space="preserve">
<g>
	<path fill="#fff" stroke="#333333" stroke-linecap="round" stroke-linejoin="round" stroke-miterlimit="10"  d="M22.128,78.016c1.34,2.229,2.227,3.277,4.576,3.277c2.262,0,3.598-1.936,3.742-3.816c0.092-0.926,0.109-1.982,0.127-3.104
		c0.041-2.523,0.092-5.664,1.057-8.922c0.391-1.275,0.834-2.723,1.678-3.994c0.465-0.701,1.447-1.408,2.426-1.408
		c0.76,0,1.406,0.445,1.977,1.365c0.82,1.32,1.314,2.762,1.727,4.115c0.945,3.174,1.354,6.854,1.094,9.842
		c-0.18,2.072,0.221,3.662,1.191,4.721c1.021,1.115,2.264,1.201,2.621,1.201h0.002c2.225,0,3.207-1.012,4.572-3.285
		c1.217-2.047,2.664-6.113,2.658-13.879c-0.01-1.408,0.088-2.639,0.256-3.744L53.524,62c-0.082,0.367-0.133,0.748-0.133,1.141
		c0,2.896,2.355,5.252,5.252,5.252c2.895,0,5.25-2.355,5.25-5.252c0-2.895-2.355-5.25-5.25-5.25c-1.242,0-2.369,0.451-3.268,1.174
		l-2.557-2.439c0.471-1.217,1.031-2.266,1.602-3.252l0.199-0.361c1.369-2.471,2.553-4.604,2.6-9.831l-0.014-0.852
		c-0.141-3.771-1.535-6.447-4.408-8.434c-2.307-1.553-5.535-2.41-9.088-2.41h-0.113c-2.861,0-5.863,0.586-8.018,1.563l-0.059,0.025
		l-0.039-0.018c-1.305-0.594-2.928-1.041-4.68-1.307l3.811-6.244c0.459,0.115,0.936,0.182,1.43,0.182
		c3.236,0,5.869-2.633,5.869-5.869s-2.633-5.869-5.869-5.869s-5.869,2.633-5.869,5.869c0,1.514,0.582,2.891,1.527,3.934
		l-4.777,7.826l-1.734,0.021c-0.057,0.002-0.113,0.004-0.17,0.012c-2.662,0.301-5.004,1.094-6.789,2.301
		c-2.588,1.785-3.965,4.156-4.309,7.414c-0.094,0.271-0.115,0.555-0.068,0.83c-0.004,0.072-0.014,0.139-0.018,0.213l-0.004,0.293
		c-0.004,0.184-0.008,0.355-0.008,0.533c0.045,5.208,1.229,7.34,2.596,9.811l0.223,0.402c1.451,2.504,2.863,5.396,2.824,10.732
		C19.458,71.893,20.907,75.961,22.128,78.016z M58.644,61.291c1.02,0,1.85,0.83,1.85,1.85c0,1.021-0.83,1.852-1.85,1.852
		c-1.021,0-1.852-0.83-1.852-1.852C56.792,62.121,57.622,61.291,58.644,61.291z M36.042,17.349c1.361,0,2.469,1.107,2.469,2.469
		s-1.107,2.469-2.469,2.469s-2.469-1.107-2.469-2.469S34.681,17.349,36.042,17.349z M20.147,36.718
		c1.301-0.881,3.088-1.475,5.172-1.721l3.633-0.047c0.904,0.076,1.785,0.217,2.607,0.4c-2.006,2.58-4.52,4.523-7.209,5.537
		c-2.541,0.957-4.965,0.969-6.951,0.07C17.737,39.109,18.599,37.789,20.147,36.718z M17.271,44.537
		c1.047,0.32,2.146,0.492,3.289,0.492c1.605,0,3.287-0.318,4.988-0.959c3.588-1.352,6.877-4.02,9.357-7.54l4.916,2.609
		c0.254,0.135,0.527,0.197,0.797,0.197c0.607,0,1.197-0.328,1.502-0.902c0.439-0.83,0.125-1.859-0.705-2.299L39.8,35.279
		c1.215-0.25,2.529-0.393,3.797-0.393h0.113c2.842,0,5.463,0.668,7.172,1.818c1.951,1.35,2.826,3.07,2.926,5.707l0.012,0.754
		c-0.039,4.35-0.934,5.963-2.172,8.196l-0.188,0.34c-0.428,0.742-0.863,1.535-1.271,2.414l-2.039-1.943
		c0.641-1.105,1.012-2.385,1.012-3.75c0-4.152-3.379-7.53-7.529-7.53c-4.152,0-7.529,3.377-7.529,7.53
		c0,4.15,3.377,7.527,7.529,7.527c1.555,0,3.002-0.475,4.203-1.285l3.092,2.949c-0.471,1.799-0.77,3.924-0.752,6.529
		c0.006,7.35-1.363,10.754-2.176,12.123c-0.953,1.586-1.115,1.627-1.615,1.627c-0.256-0.053-0.6-0.693-0.467-2.227
		c0.301-3.443-0.145-7.492-1.225-11.115c-0.48-1.584-1.066-3.277-2.094-4.93c-1.189-1.918-2.918-2.973-4.865-2.973
		c-2.016,0-4.078,1.15-5.26,2.93c-1.117,1.684-1.658,3.455-2.094,4.879c-0.002,0.004-0.031,0.1-0.033,0.105
		c-1.074,3.627-1.129,7.025-1.172,9.756c-0.018,1.094-0.033,2.039-0.115,2.861c-0.012,0.166-0.148,0.713-0.355,0.713
		c-0.645,0-0.682,0-1.656-1.621c-0.818-1.375-2.189-4.781-2.182-12.117c0.045-6.18-1.67-9.666-3.264-12.418l-0.209-0.379
		C18.294,49.375,17.468,47.875,17.271,44.537z M41.632,52.549c-2.277,0-4.129-1.852-4.129-4.127c0-2.277,1.852-4.129,4.129-4.129
		c2.275,0,4.129,1.852,4.129,4.129C45.761,50.697,43.907,52.549,41.632,52.549z"/>
	<rect fill="#fff" stroke="#333333" stroke-linecap="round" stroke-linejoin="round" stroke-miterlimit="10"  x="45.354" y="16.31" width="19.484" height="3.4"/>
	<rect fill="#fff" stroke="#333333" stroke-linecap="round" stroke-linejoin="round" stroke-miterlimit="10"  x="45.354" y="22.019" width="12.811" height="3.4"/>
	<rect fill="#fff" stroke="#333333" stroke-linecap="round" stroke-linejoin="round" stroke-miterlimit="10"  x="66.683" y="59.533" width="15.076" height="3.4"/>
	<rect fill="#fff" stroke="#333333" stroke-linecap="round" stroke-linejoin="round" stroke-miterlimit="10"  x="66.683" y="65.24" width="10.104" height="3.4"/>
</g>
</svg>
