<?xml version="1.0" encoding="utf-8"?>
<!DOCTYPE svg PUBLIC "-//W3C//DTD SVG 1.1//EN" "http://www.w3.org/Graphics/SVG/1.1/DTD/svg11.dtd">
<svg version="1.1" id="Layer_1" xmlns="http://www.w3.org/2000/svg" xmlns:xlink="http://www.w3.org/1999/xlink" x="0px" y="0px"
	 width="91px" height="91px" viewBox="0 0 91 91" enable-background="new 0 0 91 91" xml:space="preserve">
<g>
	<path fill="#fff" stroke="#333333" stroke-linecap="round" stroke-linejoin="round" stroke-miterlimit="10"  d="M12.308,21.447c0,5.348,3.93,9.783,9.049,10.602v6.686h-3.428v41.999h4.527c3.158,0,5.729-2.57,5.729-5.729v-36.27h-3.428
		v-6.686c5.121-0.818,9.051-5.254,9.051-10.602c0-5.928-4.822-10.75-10.75-10.75S12.308,15.519,12.308,21.447z M22.456,77.332
		h-1.127V46.92h3.455v28.084C24.784,76.287,23.739,77.332,22.456,77.332z M24.784,43.52h-3.455v-1.385h3.455V43.52z M23.058,14.097
		c4.053,0,7.35,3.297,7.35,7.35s-3.297,7.35-7.35,7.35s-7.35-3.297-7.35-7.35S19.005,14.097,23.058,14.097z"/>
	<path fill="#fff" stroke="#333333" stroke-linecap="round" stroke-linejoin="round" stroke-miterlimit="10"  d="M58.003,21.447c0-5.928-4.822-10.75-10.748-10.75c-5.928,0-10.752,4.822-10.752,10.75c0,0.939,0.762,1.699,1.701,1.699
		c0.938,0,1.699-0.76,1.699-1.699c0-4.053,3.297-7.35,7.352-7.35c4.051,0,7.348,3.297,7.348,7.35s-3.297,7.35-7.348,7.35
		c-0.939,0-1.701,0.76-1.701,1.699v8.238h-3.428v41.999h4.529c3.156,0,5.727-2.57,5.727-5.729v-36.27h-3.428v-6.686
		C54.075,31.23,58.003,26.794,58.003,21.447z M46.655,77.332h-1.129V46.92h3.455v28.084C48.981,76.287,47.938,77.332,46.655,77.332z
		 M48.981,43.52h-3.455v-1.385h3.455V43.52z"/>
	<path fill="#fff" stroke="#333333" stroke-linecap="round" stroke-linejoin="round" stroke-miterlimit="10"  d="M78.579,17.099l-12.764-6.23l-1.492,3.057l10.826,5.283l-4.771,5.785c-0.252,0.305-0.389,0.686-0.389,1.082v12.658h-3.43
		v41.999h4.527c3.158,0,5.729-2.57,5.729-5.729v-36.27H73.39V26.685l5.754-6.975c0.332-0.402,0.461-0.934,0.35-1.443
		C79.384,17.759,79.046,17.328,78.579,17.099z M71.087,77.332H69.96V46.92h3.455v28.084C73.415,76.287,72.37,77.332,71.087,77.332z
		 M73.415,43.52H69.96v-1.385h3.455V43.52z"/>
</g>
</svg>
