<?xml version="1.0" encoding="utf-8"?>
<!DOCTYPE svg PUBLIC "-//W3C//DTD SVG 1.1//EN" "http://www.w3.org/Graphics/SVG/1.1/DTD/svg11.dtd">
<svg version="1.1" id="Layer_1" xmlns="http://www.w3.org/2000/svg" xmlns:xlink="http://www.w3.org/1999/xlink" x="0px" y="0px"
	 width="91px" height="91px" viewBox="0 0 91 91" enable-background="new 0 0 91 91" xml:space="preserve">
	<g>
		<path fill="#fff" stroke="#333333" stroke-linecap="round" stroke-linejoin="round" stroke-miterlimit="10" d="M21.166,43.88c1.959,3.383,3.867,7.29,3.814,14.497C24.974,68.529,26.85,73.82,28.43,76.479
			c1.742,2.896,2.736,4.076,5.588,4.076c2.664,0,4.238-2.311,4.412-4.559c0.119-1.203,0.141-2.594,0.164-4.064
			c0.055-3.379,0.122-7.584,1.387-11.857l0.04-0.133c0.529-1.723,1.13-3.676,2.288-5.424c0.696-1.051,2.182-2.113,3.674-2.113
			c1.197,0,2.236,0.695,3.089,2.07c1.118,1.801,1.791,3.754,2.349,5.586c1.271,4.273,1.82,9.227,1.47,13.246
			c-0.226,2.586,0.257,4.549,1.435,5.836c1.201,1.311,2.65,1.412,3.066,1.412h0.002c2.699,0,3.855-1.201,5.582-4.082
			c1.578-2.648,3.456-7.938,3.449-18.105c-0.049-7.191,1.86-11.103,3.837-14.522l0.263-0.476c1.779-3.207,3.314-5.977,3.376-12.763
			c0-0.221-0.005-0.445-0.009-0.68l-0.008-0.426c-0.18-4.811-1.953-8.218-5.598-10.736c-2.966-2-7.134-3.101-11.736-3.101h-0.141
			c-3.721,0-7.615,0.759-10.406,2.022l-0.301,0.133l-0.281-0.125c-2.205-1.003-5.119-1.692-8.207-1.94
			c-0.053-0.004-0.105-0.006-0.158-0.005l-5.037,0.066c-0.057,0-0.112,0.004-0.168,0.01c-3.437,0.388-6.455,1.406-8.744,2.953
			c-3.632,2.506-5.406,5.913-5.585,10.769l-0.008,0.462c-0.004,0.209-0.008,0.409-0.007,0.613c0.057,6.756,1.592,9.525,3.368,12.731
			L21.166,43.88z M20.912,30.075l0.007-0.449c0.139-3.746,1.37-6.153,4.104-8.04c1.648-1.115,3.85-1.89,6.396-2.271l6.759,6.961
			H30.48c-0.672,0-1.281,0.396-1.553,1.011c-0.273,0.614-0.158,1.331,0.292,1.83l9.351,10.341c0.336,0.371,0.797,0.561,1.262,0.561
			c0.406,0,0.814-0.145,1.139-0.439c0.697-0.629,0.751-1.705,0.121-2.4l-6.781-7.502h7.888c0.683,0,1.3-0.408,1.565-1.037
			s0.13-1.357-0.346-1.847l-7.408-7.631l1.009-0.013c2.638,0.219,5.183,0.816,7.009,1.646l0.932,0.413l6.701,3.556
			c0.254,0.135,0.526,0.198,0.795,0.198c0.609,0,1.197-0.328,1.503-0.902c0.44-0.83,0.124-1.859-0.704-2.299l-3.432-1.821
			c2.014-0.552,4.355-0.876,6.586-0.876h0.141c3.875,0,7.461,0.919,9.82,2.51c2.746,1.896,3.977,4.306,4.115,8.014l0.007,0.405
			c0.004,0.212,0.008,0.415,0.009,0.6c-0.055,5.907-1.269,8.097-2.949,11.128l-0.25,0.453c-2.098,3.629-4.332,8.175-4.277,16.206
			c0.008,9.879-1.857,14.486-2.967,16.35c-1.447,2.412-1.757,2.426-2.65,2.426c-0.055-0.004-0.344-0.041-0.599-0.336
			c-0.275-0.318-0.71-1.162-0.531-3.217c0.393-4.488-0.19-9.777-1.601-14.521c-0.628-2.063-1.392-4.268-2.716-6.4
			c-1.472-2.371-3.595-3.676-5.978-3.676c-2.831,0-5.309,1.824-6.508,3.635c-1.431,2.158-2.137,4.459-2.704,6.305l-0.046,0.15
			c-1.4,4.736-1.473,9.197-1.529,12.783c-0.023,1.461-0.045,2.723-0.152,3.82c0,0.016-0.138,1.457-1.025,1.457
			c-1.075,0-1.213,0-2.67-2.42c-1.111-1.869-2.975-6.48-2.967-16.344c0.059-8.051-2.176-12.591-4.256-16.184l-0.277-0.502
			c-1.68-3.03-2.893-5.22-2.942-11.099C20.905,30.438,20.908,30.261,20.912,30.075z"/>
	</g>
</svg>
