<?xml version="1.0" encoding="utf-8"?>
<!DOCTYPE svg PUBLIC "-//W3C//DTD SVG 1.1//EN" "http://www.w3.org/Graphics/SVG/1.1/DTD/svg11.dtd">
<svg version="1.1" id="Layer_1" xmlns="http://www.w3.org/2000/svg" xmlns:xlink="http://www.w3.org/1999/xlink" x="0px" y="0px"
	 width="91px" height="91px" viewBox="0 0 91 91" enable-background="new 0 0 91 91" xml:space="preserve">
<g>
	<path fill="#fff" stroke="#333333" stroke-linecap="round" stroke-linejoin="round" stroke-miterlimit="10"  d="M58.969,79.334c1.043,1.139,2.311,1.227,2.674,1.227h0.002c2.281,0,3.291-1.041,4.691-3.379
		c1.262-2.119,2.764-6.334,2.756-14.385c-0.037-5.553,1.436-8.564,2.965-11.207l0.207-0.373c1.416-2.559,2.641-4.77,2.689-10.185
		l-0.012-0.879c-0.146-3.896-1.586-6.662-4.551-8.709c-2.387-1.609-5.727-2.496-9.406-2.496h-0.113
		c-2.297,0-4.678,0.369-6.678,1.004v-3.025h-6.066c-0.152-0.422-0.322-0.836-0.512-1.24l4.285-4.285l-7.287-7.295l-4.291,4.289
		c-0.404-0.189-0.818-0.361-1.24-0.514v-6.064H28.771v6.064c-0.422,0.152-0.836,0.324-1.242,0.514l-4.289-4.289l-7.289,7.291
		l4.287,4.287c-0.188,0.404-0.359,0.82-0.512,1.242h-6.064v10.313h6.064c0.152,0.422,0.322,0.836,0.512,1.24l-4.287,4.285
		l7.289,7.296l4.289-4.288c0.406,0.188,0.82,0.359,1.242,0.513v6.064h4.561c1.357,2.451,2.57,5.398,2.535,10.455
		c-0.008,8.035,1.49,12.252,2.756,14.383c1.41,2.346,2.281,3.373,4.693,3.373c2.311,0,3.676-1.98,3.826-3.902
		c0.094-0.963,0.111-2.061,0.131-3.225c0.043-2.625,0.094-5.891,1.07-9.188l0.033-0.107c0.406-1.326,0.867-2.832,1.748-4.156
		c0.49-0.742,1.533-1.492,2.574-1.492c0.803,0,1.512,0.486,2.107,1.449c0.859,1.383,1.375,2.885,1.803,4.293
		c0.986,3.307,1.412,7.137,1.141,10.246C57.563,76.613,57.973,78.248,58.969,79.334z M28.061,42.218l-1.131-0.654l-3.688,3.688
		l-2.482-2.484l3.689-3.688l-0.656-1.131c-0.512-0.881-0.908-1.838-1.178-2.848l-0.336-1.262h-5.217v-3.512h5.217l0.336-1.262
		c0.27-1.008,0.666-1.967,1.178-2.846l0.656-1.133l-3.689-3.689l2.48-2.482l3.689,3.688l1.129-0.652
		c0.891-0.516,1.85-0.912,2.852-1.178l1.262-0.338v-5.217h3.51v5.217l1.262,0.338c1.002,0.266,1.961,0.662,2.848,1.176l1.131,0.654
		l3.689-3.688l2.482,2.484l-3.688,3.688l0.654,1.129c0.508,0.875,0.896,1.82,1.164,2.807l-1.779,0.023
		c-1.297-4.105-5.088-6.961-9.52-6.961c-5.512,0-9.996,4.484-9.996,9.996c0,4.033,2.445,7.641,6.08,9.193
		c0.01,0.66,0.037,1.273,0.082,1.844C29.387,42.874,28.699,42.589,28.061,42.218z M30.344,37.608
		c-1.834-1.193-3.014-3.256-3.014-5.527c0-3.637,2.959-6.596,6.596-6.596c2.652,0,4.939,1.559,5.984,3.867
		c-2.063,0.412-3.895,1.117-5.355,2.104C32.297,33.015,30.93,35.003,30.344,37.608z M57.695,58.146
		c-1.221-1.971-2.996-3.057-4.996-3.057c-2.357,0-4.414,1.514-5.408,3.014c-1.152,1.736-1.713,3.568-2.164,5.039l-0.037,0.123
		c-1.113,3.758-1.17,7.281-1.217,10.113c-0.018,1.139-0.033,2.123-0.117,2.979c-0.008,0.1-0.139,0.803-0.439,0.803
		c-0.686,0-0.742,0-1.775-1.717c-0.854-1.438-2.281-4.988-2.273-12.625c0.045-6.408-1.732-10.018-3.385-12.865l-0.219-0.398
		c-1.291-2.328-2.223-4.013-2.26-8.522l0.014-0.756c0.102-2.807,1.018-4.607,3.053-6.012c1.361-0.92,3.23-1.541,5.406-1.799
		l3.781-0.049c2.018,0.17,3.961,0.623,5.357,1.258l0.721,0.318l5.238,2.783c0.254,0.135,0.527,0.197,0.795,0.197
		c0.609,0,1.199-0.326,1.504-0.902c0.439-0.828,0.125-1.857-0.703-2.299l-1.838-0.977c1.316-0.283,2.756-0.447,4.139-0.447h0.113
		c2.965,0,5.701,0.697,7.49,1.904c2.045,1.414,2.963,3.217,3.066,5.98l0.012,0.783c-0.041,4.537-0.973,6.222-2.264,8.552
		l-0.193,0.35c-1.67,2.883-3.447,6.496-3.404,12.891c0.008,7.65-1.424,11.199-2.275,12.629c-1.01,1.688-1.182,1.723-1.738,1.723
		c-0.301-0.051-0.688-0.721-0.541-2.385c0.311-3.566-0.15-7.764-1.271-11.521C59.393,61.693,58.766,59.867,57.695,58.146z"/>
</g>
</svg>
