<?xml version="1.0" encoding="utf-8"?>
<!DOCTYPE svg PUBLIC "-//W3C//DTD SVG 1.1//EN" "http://www.w3.org/Graphics/SVG/1.1/DTD/svg11.dtd">
<svg version="1.1" id="Layer_1" xmlns="http://www.w3.org/2000/svg" xmlns:xlink="http://www.w3.org/1999/xlink" x="0px" y="0px"
	 width="91px" height="91px" viewBox="0 0 91 91" enable-background="new 0 0 91 91" xml:space="preserve">
<g>
	<path fill="#fff" stroke="#333333" stroke-linecap="round" stroke-linejoin="round" stroke-miterlimit="10"  d="M78.155,30.094l-0.078-0.246c-0.514-1.283-2.313-3.504-5.418-2.73c-1.541,0.387-2.318,1.246-2.699,1.898
		c-0.273,0.471-0.412,0.945-0.479,1.379c-0.502-0.049-1.018-0.016-1.529,0.131c-2.199,0.629-3.479,2.932-2.854,5.135l1.953,6.832
		c-0.881,0.316-1.609,0.834-2.066,1.283l-0.199,0.197l-6.188,12.273v21.648h3.4v-20.84l5.543-10.996
		c0.313-0.236,0.973-0.641,1.506-0.348c0.682,0.367,0.719,1.107,0.709,1.369l-2.734,10.029l3.281,0.895l1.684-6.176l2.268-6.975
		l-1.168-11.477l0,0l0,0l-0.193-1.9l-0.053-0.281c0-0.002-0.039-0.301,0.057-0.467c0.072-0.123,0.287-0.236,0.586-0.313
		c0.785-0.191,1.195,0.217,1.398,0.613l2.141,9.184c1.953,8.375,0.211,14.945,0.043,15.541l-5.773,15.145v6.996h3.4v-6.369
		L80.267,56.9l0.037-0.107c0.096-0.309,2.287-7.672,0.031-17.352L78.155,30.094z M68.886,33.795c0.35-0.1,0.705,0.076,0.867,0.391
		l0.85,8.361l-2.234-7.816C68.255,34.328,68.487,33.91,68.886,33.795z"/>
	<path fill="#fff" stroke="#333333" stroke-linecap="round" stroke-linejoin="round" stroke-miterlimit="10"  d="M17.097,77.895h3.4V70.9l-5.772-15.148c-0.172-0.604-1.921-7.121,0.043-15.539l2.143-9.191
		c0.129-0.256,0.525-0.824,1.394-0.605c0.422,0.105,0.761,0.24,0.644,0.781l-0.218,2.109c-0.008,0.025-0.021,0.047-0.029,0.072
		l0.021,0.006l-1.187,11.469l2.286,7.027l0.005-0.002l1.661,6.125l3.28-0.895L22.035,47.08c-0.008-0.24,0.024-1,0.709-1.371
		c0.537-0.289,1.198,0.117,1.504,0.35l5.544,10.996v20.84h3.4V56.246l-6.188-12.273l-0.199-0.197
		c-0.457-0.449-1.187-0.967-2.066-1.283l1.952-6.832c0.628-2.201-0.65-4.506-2.852-5.135c-0.512-0.146-1.028-0.18-1.529-0.131
		c-0.066-0.434-0.206-0.908-0.48-1.379c-0.381-0.652-1.158-1.512-2.699-1.898c-3.108-0.773-4.902,1.447-5.416,2.73l-2.257,9.594
		c-2.258,9.68-0.064,17.043,0.03,17.352l5.609,14.732V77.895z M22.906,33.795c0.398,0.113,0.63,0.533,0.516,0.932l-2.231,7.811
		l0.85-8.354C22.201,33.869,22.555,33.693,22.906,33.795z"/>
	<path fill="#fff" stroke="#333333" stroke-linecap="round" stroke-linejoin="round" stroke-miterlimit="10"  d="M50.257,50.205c0.883,0.965,1.969,1.039,2.281,1.039h0.002c1.857,0,2.738-0.902,3.803-2.68
		c0.945-1.584,2.07-4.719,2.068-10.674c-0.027-3.902,0.965-5.947,2.088-7.895l0.145-0.264c1.018-1.832,1.977-3.561,2.014-7.617
		l-0.01-0.654c-0.107-2.945-1.25-5.129-3.504-6.686c-1.805-1.217-4.32-1.889-7.162-1.889c-2.15,0-4.414,0.432-6.086,1.156
		c-1.303-0.568-2.989-0.959-4.766-1.104c-0.054-0.004-0.109-0.006-0.16-0.006l-2.864,0.039c-0.057,0-0.112,0.004-0.168,0.01
		c-2.075,0.236-3.905,0.857-5.302,1.805c-2.241,1.543-3.383,3.725-3.494,6.695c-0.005,0.23-0.009,0.439-0.008,0.646
		c0.031,4.021,0.988,5.75,2.001,7.578l0.178,0.32c1.062,1.838,2.097,3.957,2.067,7.875c-0.001,5.943,1.122,9.078,2.068,10.666
		c1,1.666,1.755,2.676,3.804,2.676c1.955,0,3.11-1.652,3.239-3.254c0.07-0.715,0.083-1.52,0.097-2.373
		c0.031-1.973,0.066-4.209,0.772-6.594c0.289-0.936,0.615-1.998,1.219-2.91c0.285-0.43,0.915-0.873,1.477-0.873
		c0.154,0,0.617,0,1.131,0.828c0.594,0.957,0.955,2.012,1.256,2.998c0.699,2.344,1,5.057,0.811,7.26
		C49.104,48.01,49.442,49.314,50.257,50.205z M46.056,31.84c-1.655,0-3.347,0.939-4.312,2.395c-0.876,1.324-1.314,2.75-1.656,3.865
		c-0.825,2.789-0.867,5.381-0.9,7.465c-0.012,0.814-0.023,1.518-0.082,2.123c-0.004,0.045-0.018,0.102-0.035,0.152
		c-0.009,0-0.017-0.002-0.023-0.002c-0.102-0.109-0.299-0.379-0.682-1.016c-0.593-0.994-1.587-3.477-1.585-8.906
		c0.035-4.76-1.285-7.445-2.507-9.559l-0.164-0.297c-0.934-1.688-1.551-2.801-1.576-5.945c0-0.17,0.003-0.354,0.007-0.531
		c0.071-1.898,0.657-3.055,2.013-3.988c0.904-0.613,2.21-1.047,3.685-1.225l2.694-0.035c1.411,0.121,2.755,0.436,3.71,0.871
		l0.5,0.221l3.795,2.014c0.254,0.135,0.527,0.199,0.795,0.199c0.609,0,1.197-0.328,1.504-0.904c0.439-0.828,0.123-1.857-0.705-2.299
		l-0.092-0.049c0.533-0.061,1.076-0.102,1.621-0.102c2.063,0,3.951,0.477,5.166,1.297c1,0.689,1.936,1.652,2.021,3.967l0.01,0.549
		c-0.029,3.178-0.65,4.293-1.588,5.984l-0.133,0.24c-1.24,2.148-2.561,4.838-2.527,9.578c0.002,5.441-0.994,7.924-1.586,8.916
		c-0.5,0.836-0.693,1.014-0.664,1.014c-0.002,0.002-0.012,0.004-0.033,0.006c-0.057-0.137-0.152-0.486-0.088-1.217
		c0.229-2.646-0.113-5.754-0.941-8.535c-0.371-1.217-0.822-2.52-1.621-3.809C49.101,32.705,47.673,31.84,46.056,31.84z"/>
</g>
</svg>
