<?xml version="1.0" encoding="utf-8"?>
<!DOCTYPE svg PUBLIC "-//W3C//DTD SVG 1.1//EN" "http://www.w3.org/Graphics/SVG/1.1/DTD/svg11.dtd">
<svg version="1.1" id="Layer_1" xmlns="http://www.w3.org/2000/svg" xmlns:xlink="http://www.w3.org/1999/xlink" x="0px" y="0px"
	 width="91px" height="91px" viewBox="0 0 91 91" enable-background="new 0 0 91 91" xml:space="preserve">
<g>
	<path fill="#fff" stroke="#333333" stroke-linecap="round" stroke-linejoin="round" stroke-miterlimit="10"  d="M38.493,80.488c0.951,1.035,2.111,1.117,2.445,1.117l0,0c2.037,0,2.969-0.959,4.174-2.973
		c1.078-1.805,2.361-5.389,2.357-12.221c-0.033-4.582,1.133-6.988,2.451-9.275l0.172-0.311c1.209-2.18,2.254-4.061,2.297-8.684
		l-0.012-0.748c-0.125-3.365-1.371-5.754-3.939-7.529c-2.043-1.379-4.898-2.139-8.039-2.139H40.28c-2.496,0-5.125,0.512-7.033,1.361
		c-1.496-0.672-3.461-1.133-5.539-1.303c-0.055-0.004-0.107-0.006-0.16-0.006l-3.318,0.043c-0.057,0.002-0.113,0.006-0.17,0.012
		c-2.361,0.27-4.438,0.975-6.012,2.045c-2.557,1.758-3.807,4.145-3.932,7.531c-0.006,0.268-0.01,0.51-0.01,0.746
		c0.035,4.588,1.127,6.559,2.283,8.645l0.203,0.367c1.248,2.162,2.465,4.658,2.43,9.256c-0.004,6.818,1.277,10.4,2.355,12.215
		c1.215,2.016,2.021,2.967,4.178,2.967c2.098,0,3.34-1.789,3.482-3.525c0.08-0.818,0.094-1.748,0.109-2.73
		c0.035-2.188,0.078-4.908,0.912-7.727c0.34-1.096,0.723-2.338,1.439-3.42c0.363-0.549,1.164-1.131,1.934-1.131
		c0.215,0,0.865,0,1.537,1.084c0.703,1.137,1.131,2.379,1.484,3.541c0.818,2.746,1.172,5.926,0.947,8.504
		C37.237,78.074,37.604,79.516,38.493,80.488z M33.433,59.674c-1.828,0-3.699,1.039-4.77,2.652c-0.984,1.49-1.465,3.045-1.852,4.293
		c-0.002,0.006-0.031,0.104-0.033,0.109c-0.945,3.193-0.992,6.174-1.029,8.566c-0.016,0.951-0.029,1.773-0.098,2.48
		c-0.016,0.176-0.107,0.408-0.096,0.43c-0.219,0-0.318-0.012-0.342-0.012c-0.006,0-0.008,0-0.006,0.002
		c-0.102-0.07-0.342-0.357-0.912-1.303c-0.701-1.178-1.877-4.104-1.873-10.455c0.041-5.439-1.469-8.514-2.869-10.939l-0.191-0.346
		c-1.102-1.986-1.828-3.299-1.855-7.01c0-0.197,0.002-0.41,0.008-0.627c0.084-2.262,0.818-3.709,2.451-4.83
		c1.096-0.746,2.615-1.25,4.395-1.465l3.15-0.039c1.668,0.143,3.262,0.516,4.398,1.033l0.592,0.262l4.396,2.334
		c0.254,0.135,0.525,0.197,0.795,0.197c0.609,0,1.197-0.328,1.502-0.902c0.441-0.83,0.125-1.859-0.703-2.299l-0.857-0.455
		c0.865-0.143,1.77-0.225,2.646-0.225h0.119c2.434,0,4.672,0.568,6.121,1.547c1.158,0.799,2.355,2,2.459,4.797l0.01,0.656
		c-0.035,3.744-0.764,5.059-1.869,7.049l-0.16,0.291c-1.418,2.459-2.928,5.539-2.891,10.959c0.004,6.363-1.174,9.287-1.875,10.463
		c-0.641,1.072-0.881,1.264-0.93,1.293c-0.006,0.002-0.063,0.02-0.25,0.021c-0.072-0.057-0.334-0.479-0.227-1.705
		c0.264-3.029-0.127-6.59-1.078-9.783c-0.424-1.391-0.941-2.881-1.85-4.35C36.782,60.629,35.21,59.674,33.433,59.674z"/>
	<path fill="#fff" stroke="#333333" stroke-linecap="round" stroke-linejoin="round" stroke-miterlimit="10"  d="M77.769,46.879L61.267,33.836c-0.355-0.281-0.811-0.408-1.26-0.354c-0.451,0.057-0.861,0.289-1.139,0.648l-1.547,2.002
		l-7.119-5.498c3.186-5.492,1.9-12.645-3.258-16.633c-2.273-1.756-4.99-2.686-7.857-2.686c-4.023,0-7.74,1.826-10.195,5.008
		c-4.338,5.613-3.297,13.711,2.318,18.053c2.275,1.756,4.994,2.686,7.861,2.686c3.447,0,6.662-1.348,9.057-3.732l7.115,5.494
		l-1.549,2.004c-0.57,0.738-0.439,1.799,0.295,2.375l20.436,16.082c0.301,0.238,0.672,0.365,1.051,0.365
		c0.07,0,0.141-0.006,0.211-0.014c0.449-0.057,0.859-0.289,1.135-0.648l2.133-2.764c1.088-1.408,1.561-3.158,1.332-4.93
		C80.06,49.523,79.159,47.951,77.769,46.879z M39.071,33.662c-2.109,0-4.109-0.684-5.783-1.977
		c-4.133-3.193-4.898-9.152-1.707-13.283c1.809-2.342,4.545-3.686,7.506-3.686c2.107,0,4.105,0.684,5.779,1.977
		c4.133,3.193,4.898,9.154,1.705,13.285C44.765,32.32,42.032,33.662,39.071,33.662z M60.507,37.57l1.967,1.553l-3.088,4
		l-1.971-1.549L60.507,37.57z M76.265,54.146l-1.086,1.406L62.058,45.227l3.084-3.994l10.535,8.326
		c0.686,0.529,1.127,1.301,1.238,2.17C77.026,52.6,76.796,53.457,76.265,54.146z"/>
	<rect fill="#fff" stroke="#333333" stroke-linecap="round" stroke-linejoin="round" stroke-miterlimit="10"  x="31.044" y="21.091" transform="matrix(0.7845 -0.6202 0.6202 0.7845 -6.4825 26.9294)" width="8.916" height="3.4"/>
	<rect fill="#fff" stroke="#333333" stroke-linecap="round" stroke-linejoin="round" stroke-miterlimit="10"  x="33.093" y="23.66" transform="matrix(0.7844 -0.6202 0.6202 0.7844 -7.0178 30.5309)" width="14.633" height="3.4"/>
</g>
</svg>
