<?xml version="1.0" encoding="utf-8"?>
<!DOCTYPE svg PUBLIC "-//W3C//DTD SVG 1.1//EN" "http://www.w3.org/Graphics/SVG/1.1/DTD/svg11.dtd">
<svg version="1.1" id="Layer_1" xmlns="http://www.w3.org/2000/svg" xmlns:xlink="http://www.w3.org/1999/xlink" x="0px" y="0px"
	 width="91px" height="91px" viewBox="0 0 91 91" enable-background="new 0 0 91 91" xml:space="preserve">
<g>
	<path fill="#fff" stroke="#333333" stroke-linecap="round" stroke-linejoin="round" stroke-miterlimit="10"  d="M14.615,45.406v3.301c0,2.623,2.135,4.758,4.76,4.758h5.695c0.523,0,1.02-0.105,1.492-0.262
		c0.363,1.969,1.836,3.535,3.742,4.059c-0.014,0.928,0.021,1.586,0.037,1.811v3.361c0,3.076,2.5,5.578,5.572,5.578h11.104
		l8.158,8.775v4.963h3.4v-5.631c0-0.43-0.162-0.844-0.455-1.158L50.811,67.1c0.291-0.189,0.559-0.412,0.809-0.654l7.436,6.611
		l2.24,9.1l3.303-0.813l-2.494-10.125L49.461,59.977l15.67,8.439c0.363,0.287,0.615,0.695,0.721,1.203l2.666,11.016l3.305-0.799
		L69.17,68.875c-0.275-1.326-1.031-2.49-2.131-3.277l-13.674-7.377c0.006-0.221,0.008-0.469,0.006-0.754h6.826
		c2.547,0,4.662-1.842,5.109-4.264c0.471,0.156,0.965,0.262,1.488,0.262h5.699c2.623,0,4.758-2.135,4.758-4.758v-3.303
		c1.195-0.35,2.498-1.252,3.289-3.23c1.238-3.096,0.307-10.715,0.092-12.309c-0.123-0.639-3.373-15.639-34.471-15.639
		c-31.055,0-34.775,14.951-34.918,15.588c-0.012,0.049-0.021,0.098-0.027,0.148c-0.199,1.496-1.129,9.115,0.107,12.213
		C12.117,44.154,13.42,45.057,14.615,45.406z M26.43,48.707c0,0.75-0.611,1.357-1.359,1.357h-5.695c-0.75,0-1.359-0.607-1.359-1.357
		v-4.594c0.027-0.168,0.025-0.34,0-0.514v-2.021c0.004-1.85,0.611-5.904,2.381-5.904c5.35,0,6.029,10.309,6.033,10.328V48.707z
		 M29.867,52.258v-3.1c0-0.045-0.002-0.09-0.006-0.135c-0.004-0.066-0.486-6.781,2.609-10.125c1.143-1.234,2.635-1.836,4.561-1.836
		c3.143,0,5.279,1.719,6.379,5.115c-0.51-0.064-1.031-0.107-1.574-0.107c-3.141,0-5.723,1.072-7.676,3.186
		c-2.191,2.375-3.156,5.66-3.568,8.441C30.154,53.367,29.867,52.848,29.867,52.258z M47.367,54.986
		c-0.414-0.285-1.396-0.844-2.488-0.609c-0.695,0.146-1.275,0.582-1.637,1.227c-0.58,1.037-0.506,1.926-0.344,2.49
		c0.273,0.947,0.943,1.512,1.311,1.762l4.846,4.309c-0.367,0.277-0.814,0.447-1.297,0.447H35.914c-1.197,0-2.172-0.977-2.172-2.178
		V59.01c0-0.043-0.002-0.09-0.006-0.133c-0.006-0.076-0.543-7.568,2.928-11.32c1.301-1.404,2.992-2.086,5.172-2.086
		c1.072,0,2.027,0.168,2.875,0.504c0.172,0.121,0.365,0.213,0.572,0.264c0.639,0.33,1.211,0.766,1.723,1.318
		c2.205,2.383,2.791,6.271,2.926,8.813L47.367,54.986z M62.006,49.021c-0.002,0.045-0.004,0.092-0.004,0.137v3.1
		c0,0.998-0.811,1.809-1.805,1.809h-7.066c-0.381-2.857-1.332-6.33-3.623-8.811c-0.484-0.525-1.01-0.986-1.572-1.383
		c1.186-6.791,5.469-6.811,6.902-6.811c1.924,0,3.416,0.602,4.561,1.836C62.492,42.242,62.012,48.957,62.006,49.021z M73.852,48.707
		c0,0.75-0.609,1.357-1.357,1.357h-5.699c-0.748,0-1.357-0.607-1.357-1.357v-0.535c0-0.094,0-0.197,0-0.301l-0.002-1.785
		c0.006-0.105,0.664-10.412,6.035-10.412c1.77,0,2.375,4.055,2.381,5.902V48.707z M14.572,30.521
		c0.283-0.932,4.463-12.895,31.59-12.895c27.295,0,30.928,12.105,31.127,12.863c0.41,3.139,0.795,8.672,0.096,10.422
		c-0.045,0.113-0.094,0.205-0.141,0.299c-0.082-3.486-1.365-8.938-5.773-8.938c-4.342,0-6.693,3.291-7.963,6.654
		c-0.436-0.832-0.957-1.627-1.605-2.328c-1.799-1.949-4.176-2.938-7.064-2.938c-4.174,0-7.252,1.936-8.986,5.527
		c-1.77-3.594-4.787-5.527-8.82-5.527c-2.891,0-5.268,0.988-7.066,2.938c-0.646,0.701-1.168,1.494-1.604,2.324
		c-1.268-3.354-3.619-6.65-7.965-6.65c-4.41,0-5.691,5.455-5.773,8.941c-0.049-0.096-0.098-0.188-0.143-0.301
		C13.785,39.168,14.164,33.664,14.572,30.521z"/>
</g>
</svg>
