<?xml version="1.0" encoding="utf-8"?>
<!DOCTYPE svg PUBLIC "-//W3C//DTD SVG 1.1//EN" "http://www.w3.org/Graphics/SVG/1.1/DTD/svg11.dtd">
<svg version="1.1" id="Layer_1" xmlns="http://www.w3.org/2000/svg" xmlns:xlink="http://www.w3.org/1999/xlink" x="0px" y="0px"
	 width="91px" height="91px" viewBox="0 0 91 91" enable-background="new 0 0 91 91" xml:space="preserve">
<g>
	<path fill="#fff" stroke="#333333" stroke-linecap="round" stroke-linejoin="round" stroke-miterlimit="10"  d="M14.882,42.364c1.877,3.244,3.707,6.988,3.658,13.898c-0.008,9.777,1.801,14.875,3.326,17.438
		c1.689,2.807,2.654,3.949,5.428,3.949c2.605,0,4.141-2.252,4.305-4.439c0.115-1.16,0.135-2.498,0.158-3.914
		c0.051-3.242,0.115-7.279,1.328-11.379l0.045-0.146c0.508-1.646,1.082-3.514,2.189-5.18c0.662-1,2.063-2.002,3.475-2.002
		c0.014,0,0.029,0,0.043,0c1.109,0.018,2.076,0.676,2.873,1.959c1.063,1.715,1.711,3.592,2.25,5.354
		c1.219,4.102,1.746,8.854,1.41,12.709c-0.219,2.506,0.25,4.41,1.396,5.66c1.172,1.279,2.586,1.379,2.994,1.379l0,0
		c2.629,0,3.752-1.164,5.426-3.955c1.52-2.551,3.332-7.645,3.324-17.443c-0.014-1.639,0.088-3.197,0.293-4.645
		c1.365-0.352,2.664-0.93,3.85-1.703l3.654,4.48l-2,1.725c-0.703,0.605-0.789,1.664-0.195,2.377l12.051,14.459
		c0.293,0.35,0.713,0.568,1.168,0.605c0.047,0.004,0.092,0.006,0.139,0.006c0.406,0,0.803-0.146,1.111-0.416l2.678-2.316
		c2.816-2.43,3.133-6.695,0.732-9.482l-8.756-10.635c-0.291-0.354-0.713-0.574-1.168-0.613c-0.457-0.043-0.908,0.107-1.256,0.406
		l-1.928,1.664l-3.646-4.471c1.926-2.135,3.094-4.826,3.309-7.742c0.246-3.338-0.781-6.568-2.879-9.156
		c0.016-0.391,0.025-0.793,0.031-1.225c0-0.232-0.006-0.475-0.012-0.725l-0.008-0.338c-0.172-4.646-1.885-7.939-5.41-10.375
		c-2.863-1.93-6.881-2.992-11.313-2.992c-0.043,0-0.086,0-0.129,0c-3.594,0-7.348,0.73-10.045,1.953l-0.258,0.113l-0.244-0.109
		c-2.129-0.967-4.938-1.631-7.91-1.867c-0.053-0.006-0.107-0.008-0.156-0.006l-4.844,0.061c-0.057,0.002-0.113,0.006-0.17,0.012
		c-3.32,0.377-6.23,1.361-8.434,2.852c-3.51,2.422-5.225,5.713-5.4,10.414l-0.012,1.021c0.053,6.504,1.529,9.17,3.236,12.256
		L14.882,42.364z M71.716,54.209l7.674,9.32c1.203,1.396,1.045,3.514-0.354,4.721l-1.369,1.186L67.794,57.59L71.716,54.209z
		 M62.491,32.331c0.115,0.184,0.262,0.344,0.438,0.473c1.619,1.934,2.412,4.375,2.227,6.896c-0.189,2.568-1.367,4.908-3.318,6.587
		c-1.748,1.51-3.98,2.34-6.287,2.34c-2.809,0-5.471-1.219-7.303-3.344c-3.471-4.025-3.021-10.121,1-13.589
		c1.75-1.51,3.986-2.342,6.293-2.342C58.179,29.352,60.679,30.438,62.491,32.331z M14.765,28.631
		c0.135-3.578,1.311-5.877,3.92-7.678c1.721-1.164,4.076-1.949,6.816-2.27l4.676-0.061c2.523,0.209,4.961,0.779,6.709,1.574
		l0.895,0.396l6.443,3.416c0.254,0.135,0.525,0.199,0.795,0.199c0.609,0,1.197-0.328,1.504-0.904
		c0.439-0.83,0.123-1.859-0.707-2.299l-3.15-1.67c1.895-0.502,4.078-0.797,6.17-0.797c0.039,0,0.074,0,0.111,0
		c3.715,0,7.148,0.877,9.406,2.4c2.414,1.666,3.59,3.762,3.865,6.85c-1.996-1.191-4.299-1.838-6.678-1.838
		c-3.121,0-6.146,1.125-8.514,3.168c-5.441,4.691-6.049,12.939-1.355,18.384c2.436,2.822,5.953,4.453,9.674,4.512
		c-0.152,1.359-0.246,2.773-0.234,4.248c0.008,9.486-1.779,13.9-2.842,15.684c-1.381,2.301-1.664,2.301-2.484,2.303
		c-0.049-0.004-0.305-0.033-0.537-0.305c-0.436-0.51-0.615-1.617-0.49-3.039c0.377-4.324-0.184-9.418-1.543-13.988
		c-0.609-1.992-1.348-4.119-2.615-6.164c-1.408-2.266-3.436-3.531-5.711-3.564c-0.031,0-0.063,0-0.094,0
		c-2.744,0-5.143,1.76-6.309,3.521c-1.379,2.074-2.059,4.285-2.604,6.059l-0.051,0.164c-1.35,4.563-1.418,8.857-1.475,12.309
		c-0.021,1.402-0.041,2.613-0.145,3.672c0,0.014-0.137,1.334-0.918,1.334c-1,0-1.129,0-2.512-2.295
		c-1.064-1.791-2.85-6.211-2.842-15.678c0.055-7.754-2.096-12.126-4.1-15.583l-0.275-0.498c-1.605-2.902-2.766-4.998-2.813-10.625
		L14.765,28.631z"/>
</g>
</svg>
