<?xml version="1.0" encoding="utf-8"?>
<!DOCTYPE svg PUBLIC "-//W3C//DTD SVG 1.1//EN" "http://www.w3.org/Graphics/SVG/1.1/DTD/svg11.dtd">
<svg version="1.1" id="Layer_1" xmlns="http://www.w3.org/2000/svg" xmlns:xlink="http://www.w3.org/1999/xlink" x="0px" y="0px"
	 width="91px" height="91px" viewBox="0 0 91 91" enable-background="new 0 0 91 91" xml:space="preserve">
<g>
	<path fill="#fff" stroke="#333333" stroke-linecap="round" stroke-linejoin="round" stroke-miterlimit="10"  d="M15.942,81.723c0.379,0.088,0.768,0.133,1.154,0.133c2.355,0,4.375-1.604,4.906-3.875l6.488-25.877l7.402-6.419
		c0.813-0.701,1.371-1.625,1.611-2.67l5.227-22.367c0.307-1.316,0.084-2.672-0.631-3.818c-0.713-1.145-1.828-1.941-3.137-2.244
		c-0.379-0.09-0.77-0.137-1.156-0.137c-1.385,0-2.643,0.564-3.563,1.488l-6.373-1.488l-0.771,3.311l5.629,1.314l-0.17,0.729
		l-5.629-1.316l-0.773,3.311l5.629,1.316l-0.17,0.727l-5.629-1.314l-0.773,3.311l5.629,1.314l-0.17,0.729l-5.629-1.316l-0.773,3.311
		l5.627,1.316l-0.17,0.729l-5.627-1.316l-0.775,3.311l5.629,1.316l-0.17,0.729l-5.629-1.314l-0.773,3.311l5.527,1.289l-7.266,6.301
		c-0.805,0.705-1.359,1.624-1.596,2.636l-6.873,27.479C11.542,78.369,13.233,81.09,15.942,81.723z M15.479,76.455l6.873-27.477
		c0.078-0.342,0.262-0.645,0.523-0.873l7.811-6.772c0.271-0.234,0.461-0.549,0.543-0.898l4.98-21.314
		c0.172-0.736,0.844-1.271,1.598-1.271c0.125,0,0.252,0.016,0.383,0.047c0.43,0.098,0.793,0.359,1.025,0.73
		c0.232,0.375,0.305,0.818,0.205,1.248l-5.227,22.371c-0.078,0.34-0.26,0.639-0.525,0.869l-7.809,6.772
		c-0.264,0.229-0.451,0.531-0.535,0.871L18.7,77.18c-0.205,0.875-1.082,1.441-1.984,1.232
		C15.831,78.205,15.278,77.314,15.479,76.455z"/>
	<path fill="#fff" stroke="#333333" stroke-linecap="round" stroke-linejoin="round" stroke-miterlimit="10"  d="M13.032,30.528c-0.568,2.436-0.307,4.365,0.779,5.732c1.307,1.648,3.246,1.775,3.809,1.775c0.021,0,0.084,0,0.107-0.002
		c0.047-0.002,0.096-0.006,0.145-0.012c3.666-0.459,5.086-3.664,5.346-5.379l3.303-14.125c0.053-0.229,0.059-0.467,0.016-0.699
		c-0.762-4.076-3.383-6.322-7.381-6.322c-2.729,0-5.201,1.09-5.305,1.137c-0.666,0.299-1.068,0.988-0.998,1.715
		c0.068,0.727,0.596,1.328,1.307,1.492c1.803,0.422,1.873,1.664,1.77,2.291C15.929,18.132,14.343,24.935,13.032,30.528z
		 M16.343,31.302c1.311-5.594,2.898-12.398,2.91-12.453c0.221-1.117,0.076-2.633-0.742-3.924c0.213-0.018,0.428-0.027,0.645-0.027
		c2.227,0,3.461,0.994,3.969,3.213L19.89,31.944c-0.014,0.055-0.023,0.109-0.031,0.166c-0.002,0.023-0.309,2.199-2.303,2.523
		c-0.191-0.014-0.764-0.086-1.082-0.486C16.077,33.647,16.032,32.638,16.343,31.302z"/>
	<path fill="#fff" stroke="#333333" stroke-linecap="round" stroke-linejoin="round" stroke-miterlimit="10"  d="M65.647,81.887c3.395,0,6.156-2.762,6.156-6.156v-5.432l7.016-58.472H42.476l7.016,58.472v11.588H65.647z M68.403,75.73
		c0,1.52-1.236,2.756-2.756,2.756H52.892v-6.588h15.512V75.73z M74.987,15.228l-6.393,53.271H52.7l-5.656-47.132h23.059v-3.4H46.636
		l-0.328-2.738H74.987z"/>
	<path fill="#fff" stroke="#333333" stroke-linecap="round" stroke-linejoin="round" stroke-miterlimit="10"  d="M60.647,31.407c-5.387,0-9.77,4.381-9.77,9.768c0,5.389,4.383,9.771,9.77,9.771c5.385,0,9.768-4.382,9.768-9.771
		C70.415,35.788,66.032,31.407,60.647,31.407z M60.647,47.545c-3.512,0-6.369-2.856-6.369-6.37c0-3.512,2.857-6.367,6.369-6.367
		s6.367,2.855,6.367,6.367C67.015,44.688,64.159,47.545,60.647,47.545z"/>
</g>
</svg>
