<?xml version="1.0" encoding="utf-8"?>
<!DOCTYPE svg PUBLIC "-//W3C//DTD SVG 1.1//EN" "http://www.w3.org/Graphics/SVG/1.1/DTD/svg11.dtd">
<svg version="1.1" id="Layer_1" xmlns="http://www.w3.org/2000/svg" xmlns:xlink="http://www.w3.org/1999/xlink" x="0px" y="0px"
	 width="91px" height="91px" viewBox="0 0 91 91" enable-background="new 0 0 91 91" xml:space="preserve">
<g>
	<path fill="#fff" stroke="#333333" stroke-linecap="round" stroke-linejoin="round" stroke-miterlimit="10"  d="M67.549,48.771V38.673c0-4.447-3.617-8.066-8.064-8.066h-4.1v-3.715h2.043c0.938,0,1.699-0.762,1.699-1.699V12.468
		c0-0.939-0.762-1.701-1.699-1.701H34.223c-0.938,0-1.699,0.762-1.699,1.701v12.725c0,0.938,0.762,1.699,1.699,1.699h2.043v3.715
		h-4.1c-4.447,0-8.066,3.619-8.066,8.066v10.099h4.307v12.9H24.1v11.801c0,4.447,3.619,8.066,8.066,8.066h27.318
		c4.447,0,8.064-3.619,8.064-8.066V61.672h-4.305v-12.9H67.549z M35.924,23.491v-2.916h15v-3.4h-15v-3.008h19.803v9.324h-0.342
		H36.266H35.924z M39.666,26.892h12.318v3.715H39.666V26.892z M36.842,48.771v-3.4H27.5v-6.698c0-2.574,2.092-4.666,4.666-4.666h4.1
		h19.119h4.1c2.572,0,4.664,2.092,4.664,4.666v6.698h-4.305v4.063c-3.473-2.268-8.873-3.498-15.014,0.922
		c-6.725,4.844-11.543,1.832-13.023,0.627v-2.211H36.842z M51.439,61.672v3.4h12.709v8.4c0,2.572-2.092,4.666-4.664,4.666H32.166
		c-2.574,0-4.666-2.094-4.666-4.666v-8.4h4.307V54.975c1.477,0.764,3.459,1.445,5.84,1.445c2.627,0,5.736-0.832,9.17-3.305
		c6.873-4.947,11.658-0.746,13.027,0.744v7.813H51.439z"/>
</g>
</svg>
