<?xml version="1.0" encoding="utf-8"?>
<!DOCTYPE svg PUBLIC "-//W3C//DTD SVG 1.1//EN" "http://www.w3.org/Graphics/SVG/1.1/DTD/svg11.dtd">
<svg version="1.1" id="Layer_1" xmlns="http://www.w3.org/2000/svg" xmlns:xlink="http://www.w3.org/1999/xlink" x="0px" y="0px"
	 width="91px" height="91px" viewBox="0 0 91 91" enable-background="new 0 0 91 91" xml:space="preserve">
<g>
	<path  fill="#fff" stroke="#333333" stroke-linecap="round" stroke-linejoin="round" stroke-miterlimit="10" d="M59.417,15.299c-6.039,0-11.557,2.271-15.75,6c-5.904-0.477-10.383,1.289-11.637,1.857l-0.184,0.082l-0.168-0.074
		c-1.965-0.893-4.559-1.506-7.305-1.727c-0.051-0.006-0.098-0.006-0.158-0.006l-4.443,0.057c-0.057,0.002-0.113,0.006-0.17,0.012
		c-3.064,0.346-5.758,1.256-7.803,2.639c-3.26,2.248-4.854,5.303-5.014,9.662l-0.008,0.41c-0.002,0.184-0.006,0.361-0.006,0.543
		c0.051,6.01,1.416,8.473,2.996,11.324l0.26,0.467c1.715,2.963,3.385,6.383,3.338,12.689c-0.004,9.004,1.666,13.705,3.072,16.072
		C17.983,77.875,18.933,79,21.54,79c2.473,0,3.932-2.133,4.09-4.203c0.105-1.07,0.127-2.301,0.146-3.604
		c0.049-2.967,0.109-6.66,1.215-10.404l0.033-0.105c0.463-1.51,0.986-3.221,1.996-4.744c0.588-0.885,1.828-1.771,3.074-1.771
		c0.014,0,0.025,0,0.039,0c0.965,0.014,1.811,0.596,2.516,1.73c0.971,1.561,1.561,3.271,2.049,4.877
		c1.115,3.752,1.598,8.094,1.291,11.611c-0.205,2.34,0.238,4.125,1.316,5.303C40.421,78.906,41.771,79,42.157,79
		c0.002,0,0.002,0,0.002,0c2.465,0,3.564-1.141,5.098-3.701c1.383-2.322,2.957-6.055,3.055-14.336
		c2.805,1.17,5.881,1.818,9.105,1.818c13.088,0,23.738-10.65,23.738-23.74C83.155,25.95,72.505,15.299,59.417,15.299z
		 M38.958,27.018c-0.105-0.098-0.221-0.189-0.355-0.26l-2.613-1.387c1.338-0.359,2.885-0.629,4.561-0.717
		C39.974,25.409,39.442,26.198,38.958,27.018z M46.921,60.111c0.006,8.063-1.379,11.422-2.582,13.445
		c-1.225,2.043-1.447,2.043-2.148,2.045c-0.037-0.004-0.227-0.029-0.402-0.238s-0.57-0.889-0.412-2.68
		c0.348-3.982-0.17-8.674-1.422-12.889c-0.561-1.838-1.24-3.801-2.418-5.691c-1.314-2.119-3.215-3.303-5.352-3.336
		c-2.566-0.057-4.891,1.625-5.998,3.293c-1.281,1.936-1.908,3.982-2.412,5.627l-0.037,0.121c-1.244,4.205-1.309,8.156-1.359,11.33
		c-0.021,1.285-0.039,2.395-0.135,3.361c0,0.01-0.121,1.1-0.703,1.1c-0.867,0-0.957,0-2.184-2.039
		c-0.969-1.631-2.596-5.66-2.59-14.313c0.053-7.148-1.932-11.184-3.777-14.375l-0.246-0.443c-1.467-2.646-2.527-4.559-2.57-9.691
		l0.012-0.859c0.121-3.234,1.18-5.311,3.531-6.932c1.563-1.057,3.701-1.768,6.188-2.059l4.277-0.057
		c2.301,0.193,4.518,0.711,6.107,1.434l0.811,0.359l5.91,3.137c0.158,0.084,0.324,0.131,0.492,0.16
		c-1.174,2.811-1.824,5.889-1.824,9.119c0,8.589,4.586,16.128,11.438,20.296C46.995,59.57,46.921,59.832,46.921,60.111z
		 M59.417,59.381c-11.215,0-20.34-9.125-20.34-20.339c0-11.217,9.125-20.342,20.34-20.342s20.338,9.125,20.338,20.342
		C79.755,50.256,70.632,59.381,59.417,59.381z"/>
	<path  fill="#fff" stroke="#333333" stroke-linecap="round" stroke-linejoin="round" stroke-miterlimit="10" d="M73.731,40.776c-0.729-0.43-1.645-0.258-2.17,0.369c-0.078,0.068-0.219,0.178-0.385,0.301
		c-0.203-0.439-0.451-0.844-0.744-1.199c-0.156-0.188-0.322-0.357-0.498-0.512l0.605-2.1c0.26-0.902-0.262-1.846-1.162-2.105
		c-0.906-0.258-1.846,0.26-2.105,1.162l-0.582,2.018c-0.48,0.049-0.969,0.172-1.457,0.377c-0.143,0.061-0.262,0.139-0.393,0.207
		c-0.199-0.635-0.762-1.119-1.465-1.186c-0.941-0.086-1.764,0.6-1.85,1.535l-0.045,0.477c-0.096-0.117-0.201-0.25-0.334-0.422
		l-0.072-0.092c-0.232-0.303-0.48-0.758-0.742-1.24c-0.156-0.287-0.324-0.59-0.506-0.895c0.145-0.75,0.283-1.344,0.387-1.568
		c0.424-0.836,0.092-1.859-0.746-2.285c-0.836-0.424-1.861-0.094-2.285,0.744c-0.057,0.111-0.111,0.26-0.166,0.41
		c-0.006-0.004-0.012-0.008-0.018-0.01c-0.559-0.213-1.219-0.328-1.922-0.365c-0.082-1.135,0.029-1.936,0.031-1.947
		c0.143-0.928-0.492-1.795-1.42-1.939c-0.93-0.145-1.797,0.492-1.939,1.42c-0.014,0.082-0.182,1.234-0.051,2.838
		c-1.129,0.295-2.178,0.746-2.957,1.314c-0.389-0.354-0.77-0.717-1.129-1.1c-0.645-0.684-1.721-0.715-2.404-0.072
		s-0.717,1.719-0.072,2.402c0.449,0.479,0.926,0.93,1.408,1.365c-1.033,1.959-1.322,4.41-0.375,6.598
		c-0.59,0.594-1.053,1.05-1.197,1.167c-0.76,0.551-0.93,1.613-0.379,2.373c0.332,0.459,0.852,0.703,1.377,0.703
		c0.348,0,0.695-0.105,0.998-0.324c0.211-0.154,0.646-0.564,1.184-1.096c0.695,0.74,1.482,1.436,2.33,2.051l-0.656,2.143
		c-0.275,0.898,0.23,1.85,1.127,2.125c0.166,0.051,0.334,0.074,0.5,0.074c0.727,0,1.4-0.471,1.625-1.203l0.428-1.398
		c0.723,0.313,1.441,0.563,2.133,0.705c0.098,0.951,0.191,1.738,0.213,1.92c0.104,0.863,0.838,1.498,1.686,1.498
		c0.068,0,0.135-0.004,0.203-0.012c0.934-0.111,1.6-0.957,1.488-1.889c-0.037-0.314-0.08-0.688-0.123-1.078
		c0.318,0.014,0.633,0.025,0.943,0.025l0,0c1.168,0,2.199-0.105,3.102-0.268c0.459,0.744,0.844,1.383,0.986,1.668
		c0.297,0.598,0.898,0.941,1.521,0.941c0.256,0,0.514-0.057,0.758-0.178c0.84-0.42,1.182-1.439,0.764-2.281
		c-0.135-0.268-0.383-0.697-0.682-1.193c0.623-0.295,1.045-0.564,1.227-0.693c0.254-0.158,0.52-0.354,0.787-0.561
		c1.053,0.418,1.91,0.771,2.117,0.885c0.283,0.182,0.6,0.268,0.912,0.268c0.561,0,1.109-0.277,1.434-0.785
		c0.506-0.791,0.273-1.842-0.518-2.348c-0.238-0.152-0.824-0.416-1.566-0.725c0.359-0.625,0.645-1.299,0.781-2.017
		c0.035-0.186,0.055-0.371,0.074-0.557c2.238-1.543,2.422-1.844,2.58-2.111C74.806,42.297,74.538,41.254,73.731,40.776z
		 M64.14,48.01c-0.51-0.787-1.563-1.01-2.352-0.502c-0.707,0.461-0.955,1.355-0.629,2.105c-0.354,0.025-0.717,0.047-1.111,0.047
		c-0.406,0-0.83-0.037-1.25-0.068c-0.014-0.248-0.023-0.471-0.02-0.623c0.02-0.938-0.727-1.715-1.666-1.732
		c-0.012-0.002-0.023-0.002-0.035-0.002c-0.922,0-1.68,0.74-1.697,1.666c-0.002,0.029,0,0.064,0,0.094
		c-0.289-0.104-0.582-0.225-0.877-0.363l0.096-0.314c0.275-0.898-0.23-1.848-1.127-2.123c-0.688-0.208-1.4,0.037-1.824,0.564
		c-0.404-0.344-0.773-0.711-1.115-1.087c0.105-0.109,0.213-0.223,0.316-0.33c0.648-0.678,0.625-1.754-0.055-2.402
		c-0.49-0.471-1.188-0.584-1.781-0.355c-0.02-0.607,0.088-1.219,0.305-1.787c0.08,0.051,0.162,0.111,0.242,0.158
		c0.273,0.166,0.576,0.244,0.873,0.244c0.578,0,1.141-0.295,1.459-0.824c0.4-0.668,0.285-1.494-0.223-2.035
		c0.221-0.09,0.455-0.176,0.711-0.252c0.072,0.213,0.152,0.426,0.242,0.641c0.27,0.654,0.902,1.049,1.57,1.049
		c0.217,0,0.438-0.041,0.65-0.129c0.682-0.283,1.076-0.959,1.041-1.656c0.117,0.063,0.234,0.154,0.35,0.275
		c-0.137,0.859-0.244,1.662-0.309,2.188c-0.115,0.932,0.545,1.781,1.479,1.896c0.07,0.01,0.141,0.014,0.211,0.014
		c0.381,0,0.736-0.135,1.025-0.354c0.605,0.773,1.311,1.563,2.488,1.904l-0.01,0.094c-0.088,0.936,0.6,1.764,1.535,1.85
		c0.053,0.006,0.107,0.008,0.16,0.008c0.867,0,1.607-0.66,1.689-1.541l0.078-0.83c0.406-0.225,0.762-0.479,1.066-0.701
		c0.025-0.018,0.047-0.031,0.07-0.049c0.113,0.613,0.555,1.145,1.193,1.328c0.125,0.035,0.25,0.045,0.373,0.053
		c-0.66,0.492-0.865,1.383-0.502,2.111c-0.762-0.094-1.516,0.33-1.801,1.078c-0.174,0.463-0.131,0.949,0.072,1.359
		c-0.111,0.053-0.24,0.107-0.379,0.166C64.405,48.422,64.206,48.111,64.14,48.01z"/>
	<path  fill="#fff" stroke="#333333" stroke-linecap="round" stroke-linejoin="round" stroke-miterlimit="10" d="M61.731,26.026c0.021-0.006,1.938-0.055,2.287,1.197c0.211,0.752,0.893,1.242,1.637,1.242c0.152,0,0.307-0.02,0.459-0.063
		c0.904-0.252,1.432-1.189,1.18-2.094c-0.861-3.082-4.123-3.768-5.721-3.68c-0.938,0.043-1.662,0.84-1.619,1.777
		C59.999,25.344,60.806,26.065,61.731,26.026z"/>
	<path  fill="#fff" stroke="#333333" stroke-linecap="round" stroke-linejoin="round" stroke-miterlimit="10" d="M53.157,27.088c0.035,0.004,0.07,0.004,0.107,0.004c0.891,0,1.639-0.693,1.693-1.594c0.049-0.781-0.205-1.537-0.717-2.129
		c-0.613-0.711-1.686-0.793-2.396-0.178c-0.668,0.576-0.779,1.559-0.281,2.266C51.595,26.319,52.276,27.034,53.157,27.088z"/>
	<path  fill="#fff" stroke="#333333" stroke-linecap="round" stroke-linejoin="round" stroke-miterlimit="10" d="M64.942,33.62c0.322,0.516,0.875,0.797,1.441,0.797c0.309,0,0.621-0.084,0.902-0.26c0.672-0.422,1.549-0.531,2.658-0.67
		c0.932-0.115,1.547-0.959,1.432-1.891c-0.117-0.932-1.008-1.584-1.943-1.471c-1.238,0.154-2.645,0.328-3.953,1.152
		C64.683,31.776,64.442,32.825,64.942,33.62z"/>
	<path  fill="#fff" stroke="#333333" stroke-linecap="round" stroke-linejoin="round" stroke-miterlimit="10" d="M73.347,37.354c0.322,0.281,0.721,0.42,1.117,0.42c0.475,0,0.945-0.195,1.281-0.58c0.223-0.256,0.451-0.508,0.682-0.758
		c0.23-0.254,0.463-0.508,0.689-0.766c0.619-0.707,0.549-1.779-0.156-2.4c-0.705-0.619-1.779-0.549-2.398,0.156
		c-0.213,0.242-0.432,0.48-0.648,0.719c-0.244,0.27-0.488,0.537-0.727,0.811C72.567,35.661,72.64,36.735,73.347,37.354z"/>
</g>
</svg>
