<?xml version="1.0" encoding="utf-8"?>
<!DOCTYPE svg PUBLIC "-//W3C//DTD SVG 1.1//EN" "http://www.w3.org/Graphics/SVG/1.1/DTD/svg11.dtd">
<svg version="1.1" id="Layer_1" xmlns="http://www.w3.org/2000/svg" xmlns:xlink="http://www.w3.org/1999/xlink" x="0px" y="0px"
	 width="91px" height="91px" viewBox="0 0 91 91" enable-background="new 0 0 91 91" xml:space="preserve">
<path fill="#fff" stroke="#333333" stroke-linecap="round" stroke-linejoin="round" stroke-miterlimit="10" d="M54.759,33.324c-0.682-0.413-1.563-0.294-2.111,0.284c-0.55,0.579-0.623,1.462-0.176,2.124l8.383,12.388
	c0.298,0.439,0.785,0.715,1.316,0.744c0.03,0.002,0.062,0.002,0.092,0.002c0.498,0,0.973-0.219,1.296-0.6l21.016-24.774
	c0.569-0.67,0.533-1.664-0.083-2.291c-0.618-0.628-1.608-0.68-2.29-0.124l-4.202,3.44c-3.721-3.954-8.958-6.258-14.441-6.258
	c-1.04,0-2.054,0.104-3.051,0.26c-0.3-0.244-0.614-0.484-0.955-0.72c-2.967-2.001-7.133-3.101-11.729-3.101c-0.023,0-0.047,0-0.07,0
	c-3.72,0.011-7.672,0.749-10.485,2.023l-0.299,0.132l-0.282-0.125c-2.203-1.003-5.118-1.692-8.207-1.94
	c-0.053-0.005-0.106-0.01-0.158-0.005l-5.037,0.066c-0.057,0-0.112,0.004-0.168,0.01c-3.438,0.388-6.456,1.406-8.744,2.953
	c-3.632,2.506-5.406,5.913-5.585,10.767L8.78,29.02c-0.004,0.217-0.008,0.425-0.008,0.635c0.057,6.756,1.591,9.525,3.367,12.731
	l0.293,0.527c1.959,3.383,3.867,7.288,3.815,14.497c-0.008,10.15,1.868,15.443,3.449,18.104c1.742,2.895,2.735,4.074,5.587,4.074
	c2.665,0,4.238-2.311,4.412-4.559c0.118-1.205,0.141-2.594,0.165-4.064c0.054-3.379,0.121-7.582,1.386-11.857l0.04-0.129
	c0.529-1.725,1.129-3.678,2.289-5.428c0.699-1.057,2.181-2.113,3.674-2.113c0.016,0,0.031,0,0.047,0
	c1.177,0.018,2.2,0.715,3.042,2.07c1.116,1.797,1.79,3.752,2.348,5.586c1.271,4.273,1.821,9.227,1.471,13.246
	c-0.227,2.586,0.257,4.551,1.436,5.836c1.201,1.311,2.649,1.412,3.065,1.412c0.001,0,0.001,0,0.001,0
	c2.699,0,3.855-1.201,5.583-4.082c1.577-2.648,3.456-7.939,3.448-18.105c-0.001-0.137,0.004-0.268,0.004-0.404
	c1.854,0.576,3.823,0.887,5.863,0.887c10.925,0,19.813-8.887,19.813-19.812c0-2.13-0.338-4.228-1.004-6.233l-3.227,1.071
	c0.551,1.66,0.83,3.396,0.83,5.162c0,9.05-7.362,16.412-16.412,16.412s-16.412-7.361-16.412-16.412
	c0-9.05,7.362-16.412,16.412-16.412c4.464,0,8.729,1.847,11.802,5.02L61.941,37.663L54.759,33.324z M43.745,38.071
	c0,7.591,4.295,14.189,10.578,17.515c-0.023,0.602-0.037,1.211-0.033,1.826c0.008,9.877-1.857,14.486-2.967,16.35
	c-1.455,2.426-1.76,2.426-2.645,2.428c-0.033-0.002-0.338-0.029-0.604-0.338c-0.274-0.32-0.71-1.162-0.53-3.217
	c0.393-4.488-0.19-9.779-1.602-14.521c-0.629-2.064-1.393-4.27-2.715-6.398c-1.449-2.336-3.538-3.643-5.88-3.676
	c-2.839-0.078-5.387,1.793-6.605,3.633c-1.432,2.16-2.138,4.461-2.705,6.309l-0.045,0.146c-1.401,4.736-1.474,9.197-1.531,12.783
	c-0.023,1.461-0.043,2.721-0.151,3.82c-0.001,0.016-0.138,1.457-1.025,1.457c-1.074,0-1.213,0-2.669-2.42
	c-1.111-1.869-2.975-6.482-2.967-16.344c0.057-8.053-2.176-12.591-4.256-16.182l-0.278-0.503c-1.68-3.031-2.893-5.22-2.941-11.098
	c0-0.176,0.003-0.363,0.007-0.558l0.007-0.424c0.138-3.745,1.369-6.152,4.104-8.039c1.805-1.22,4.267-2.04,7.125-2.373l4.871-0.064
	c2.638,0.219,5.183,0.815,7.008,1.646l0.926,0.41l6.707,3.559c0.254,0.134,0.526,0.198,0.795,0.198c0.609,0,1.198-0.328,1.504-0.903
	c0.439-0.83,0.124-1.858-0.705-2.299l-3.432-1.821c2.016-0.552,4.359-0.876,6.602-0.876c0.041,0,0.081,0,0.122,0
	c3.101,0,6.002,0.595,8.251,1.644C48.846,22.703,43.745,29.798,43.745,38.071z M63.167,41.053l6.715-5.498l-7.467,8.802l-2.79-4.123
	l1.586,0.958C61.826,41.564,62.609,41.508,63.167,41.053z"/>
</svg>
