<?xml version="1.0" encoding="utf-8"?>
<!DOCTYPE svg PUBLIC "-//W3C//DTD SVG 1.1//EN" "http://www.w3.org/Graphics/SVG/1.1/DTD/svg11.dtd">
<svg version="1.1" id="Layer_1" xmlns="http://www.w3.org/2000/svg" xmlns:xlink="http://www.w3.org/1999/xlink" x="0px" y="0px"
	 width="91px" height="91px" viewBox="0 0 91 91" enable-background="new 0 0 91 91" xml:space="preserve">
<g>
	<path fill="#fff" stroke="#333333" stroke-linecap="round" stroke-linejoin="round" stroke-miterlimit="10" d="M46.498,45.206c-7.534,0-15.541,2.653-15.541,7.569c0,4.915,8.007,7.567,15.541,7.567c7.532,0,15.537-2.652,15.537-7.567
		C62.035,47.859,54.03,45.206,46.498,45.206z M44.796,50.708c0,0.527-0.429,0.956-0.956,0.956s-0.956-0.429-0.956-0.956v-1.883
		c0.611-0.075,1.25-0.13,1.912-0.167V50.708z M48.196,48.658c0.662,0.036,1.301,0.092,1.912,0.167v1.883
		c0,0.527-0.429,0.956-0.956,0.956s-0.956-0.429-0.956-0.956V48.658z M46.498,56.942c-7.299,0-12.141-2.508-12.141-4.167
		c0-1.041,1.905-2.416,5.126-3.296v1.229c0,2.402,1.954,4.356,4.356,4.356c1.004,0,1.919-0.355,2.656-0.929
		c0.737,0.573,1.652,0.929,2.656,0.929c2.402,0,4.356-1.954,4.356-4.356v-1.229c3.221,0.881,5.126,2.256,5.126,3.297
		C58.635,54.435,53.794,56.942,46.498,56.942z"/>
	<path fill="#fff" stroke="#333333" stroke-linecap="round" stroke-linejoin="round" stroke-miterlimit="10" d="M34.844,42.672c1.352,0,2.452-1.1,2.452-2.451c0-1.353-1.101-2.453-2.452-2.453c-1.354,0-2.454,1.101-2.454,2.453
		C32.39,41.572,33.49,42.672,34.844,42.672z"/>
	<path fill="#fff" stroke="#333333" stroke-linecap="round" stroke-linejoin="round" stroke-miterlimit="10" d="M59.322,42.672c1.354,0,2.454-1.1,2.454-2.451c0-1.353-1.101-2.453-2.454-2.453c-1.352,0-2.452,1.101-2.452,2.453
		C56.87,41.572,57.971,42.672,59.322,42.672z"/>
	<path fill="#fff" stroke="#333333" stroke-linecap="round" stroke-linejoin="round" stroke-miterlimit="10" d="M76.282,34.631c-1.648-0.701-3.46-0.323-4.841,0.212c-0.772-2.538-1.899-4.94-3.409-7.142
		c-0.648-1.277-5.575-9.966-18.656-10.891c-0.289-0.956-0.811-1.832-1.537-2.557c-1.37-1.372-3.192-2.128-5.131-2.128
		s-3.761,0.756-5.132,2.127c-1.337,1.337-2.172,3.036-2.434,4.874c-6.243,2.803-9.072,7.112-9.519,7.849
		c-1.822,2.474-3.166,5.201-4.021,8.124c-1.423-0.65-3.55-1.279-5.454-0.468c-1.157,0.492-2.641,1.705-3.138,4.69
		c-0.381,2.282,0.042,4.283,1.254,5.947c2.248,3.083,6.432,3.729,6.608,3.754c0.084,0.013,0.167,0.019,0.249,0.019
		c0.084,0,0.16-0.032,0.242-0.044c1.23,4.806,3.785,9.062,7.244,12.366c-7.601,1.855-13.266,8.704-13.266,16.868
		c0,0.938,0.762,1.7,1.7,1.7s1.7-0.762,1.7-1.7c0-7.554,6.025-13.712,13.521-13.957c4.112,2.715,9.031,4.293,14.306,4.293
		c5.284,0,10.212-1.584,14.329-4.309c7.637,0.084,13.825,6.316,13.825,13.973c0,0.938,0.762,1.7,1.7,1.7s1.7-0.762,1.7-1.7
		c0-8.258-5.794-15.175-13.525-16.936c3.428-3.298,5.959-7.532,7.18-12.312c0.913-0.173,4.402-0.994,6.387-3.716
		c1.212-1.664,1.635-3.665,1.254-5.947C78.923,36.337,77.439,35.123,76.282,34.631z M75.428,43.254
		c-0.772,1.067-2.02,1.688-2.983,2.031c0.05-0.474,0.091-0.949,0.116-1.431c0.05-0.938-0.671-1.737-1.608-1.786
		c-0.965-0.064-1.737,0.672-1.786,1.608c-0.63,12.052-10.555,21.491-22.596,21.491c-12.038,0-21.963-9.436-22.596-21.481
		c-0.048-0.937-0.838-1.667-1.786-1.608c-0.938,0.049-1.658,0.849-1.608,1.786c0.029,0.556,0.082,1.104,0.145,1.65
		c-0.953-0.254-2.729-0.889-3.722-2.261c-0.656-0.908-0.865-2.012-0.639-3.373c0.135-0.807,0.437-1.83,1.112-2.119
		c1.054-0.453,3.022,0.5,3.81,1.034c0.536,0.364,1.202,0.374,1.739,0.095c0.688-0.093,1.283-0.582,1.441-1.3
		c0.689-3.151,2.015-6.065,3.939-8.66c0.038-0.051,0.076-0.11,0.108-0.164c0.022-0.039,2.067-3.466,6.877-5.983
		c0.4,1.382,1.142,2.649,2.188,3.695c2.023,2.022,4.681,3.034,7.339,3.034c2.657,0,5.316-1.012,7.34-3.034
		c0.665-0.663,0.665-1.739,0.001-2.403c-0.663-0.665-1.74-0.666-2.403-0.001c-2.724,2.72-7.15,2.722-9.872,0
		c-0.992-0.992-1.538-2.31-1.539-3.71c0-1.4,0.546-2.717,1.536-3.707c1.458-1.459,3.995-1.461,5.455,0.001
		c0.518,0.517,0.803,1.205,0.803,1.938c0,0.732-0.285,1.422-0.804,1.939c-0.723,0.723-1.9,0.724-2.625-0.001
		c-0.665-0.663-1.741-0.663-2.404,0.002c-0.663,0.664-0.662,1.74,0.002,2.404c2.051,2.047,5.383,2.048,7.432-0.001
		c0.767-0.767,1.301-1.703,1.578-2.722c11.535,0.939,15.444,8.729,15.607,9.069c0.04,0.085,0.088,0.167,0.142,0.245
		c1.576,2.276,2.711,4.791,3.372,7.474c0,0,0,0,0,0.001c-0.103,0.445-0.03,0.931,0.248,1.339c0.526,0.773,1.585,0.973,2.359,0.448
		c0.787-0.533,2.756-1.483,3.809-1.034c0.676,0.29,0.978,1.313,1.112,2.12C76.293,41.242,76.084,42.346,75.428,43.254z"/>
</g>
</svg>
