<?xml version="1.0" encoding="utf-8"?>
<!DOCTYPE svg PUBLIC "-//W3C//DTD SVG 1.1//EN" "http://www.w3.org/Graphics/SVG/1.1/DTD/svg11.dtd">
<svg version="1.1" id="Layer_1" xmlns="http://www.w3.org/2000/svg" xmlns:xlink="http://www.w3.org/1999/xlink" x="0px" y="0px"
	 width="91px" height="91px" viewBox="0 0 91 91" enable-background="new 0 0 91 91" xml:space="preserve">
<g>
	<path fill="#fff" stroke="#333333" stroke-linecap="round" stroke-linejoin="round" stroke-miterlimit="10" d="M20.277,37.399l-0.008,0.394c-0.003,0.18-0.006,0.351-0.006,0.528c0.047,5.841,1.373,8.234,2.909,11.005l0.255,0.461
		c1.658,2.863,3.275,6.17,3.232,12.279c-0.008,8.736,1.615,13.309,2.984,15.613c1.508,2.508,2.436,3.607,4.99,3.607
		c2.428,0,3.861-2.092,4.02-4.123c0.104-1.041,0.122-2.236,0.143-3.502c0.046-2.873,0.104-6.451,1.176-10.07l0.031-0.104
		c0.448-1.461,0.955-3.119,1.93-4.59c0.561-0.842,1.75-1.697,2.939-1.697c0.934,0,1.752,0.557,2.433,1.654
		c0.948,1.529,1.515,3.178,1.983,4.723c1.08,3.627,1.547,7.828,1.249,11.238c-0.2,2.285,0.234,4.029,1.292,5.182
		c1.094,1.195,2.422,1.289,2.803,1.289h0.001c2.413,0,3.488-1.113,4.987-3.613c1.365-2.295,2.992-6.865,2.984-15.617
		c-0.041-6.096,1.576-9.406,3.254-12.305l0.227-0.41c1.537-2.772,2.863-5.167,2.916-11.034c0-0.203-0.004-0.412-0.008-0.629
		l-0.006-0.326c-0.156-4.201-1.707-7.179-4.896-9.379c-2.576-1.738-6.192-2.697-10.183-2.697h-0.112
		c-3.215,0-6.586,0.657-9.012,1.753l-0.152,0.067l-0.142-0.063c-1.915-0.869-4.438-1.466-7.103-1.679
		c-0.053-0.004-0.104-0.008-0.157-0.005l-4.31,0.057c-0.057,0-0.113,0.004-0.168,0.01c-2.979,0.336-5.601,1.221-7.594,2.568
		C21.982,30.179,20.432,33.155,20.277,37.399z M27.077,30.793c1.51-1.021,3.574-1.707,5.976-1.987l4.143-0.055
		c2.222,0.185,4.364,0.686,5.902,1.385l0.793,0.353l5.723,3.037c0.254,0.135,0.526,0.198,0.795,0.198
		c0.609,0,1.198-0.328,1.504-0.902c0.439-0.83,0.125-1.859-0.705-2.299l-2.381-1.264c1.559-0.37,3.303-0.582,4.971-0.582h0.112
		c3.271,0,6.289,0.771,8.266,2.105c2.278,1.572,3.3,3.574,3.415,6.66l0.005,0.303c0.004,0.193,0.007,0.381,0.008,0.547
		c-0.045,4.99-1.071,6.84-2.489,9.401l-0.214,0.387c-1.812,3.129-3.74,7.051-3.694,13.99c0.008,8.387-1.566,12.285-2.504,13.859
		c-1.157,1.932-1.375,1.957-2.043,1.957c-0.467-0.055-0.894-0.941-0.733-2.773c0.339-3.873-0.164-8.432-1.38-12.514
		c-0.512-1.689-1.191-3.67-2.35-5.535c-1.305-2.104-3.195-3.262-5.322-3.262c-2.513,0-4.71,1.615-5.772,3.217
		c-1.248,1.883-1.857,3.873-2.347,5.475l-0.036,0.115c-1.21,4.082-1.271,7.918-1.32,10.998c-0.021,1.246-0.038,2.322-0.13,3.258
		c0,0.012-0.121,1.021-0.633,1.021c-0.813,0-0.898,0-2.072-1.951c-0.938-1.58-2.51-5.482-2.502-13.855
		c0.048-6.955-1.88-10.873-3.674-13.967l-0.24-0.436c-1.418-2.559-2.443-4.407-2.482-9.37l0.012-0.83
		C23.79,34.358,24.812,32.356,27.077,30.793z"/>
	<path fill="#fff" stroke="#333333" stroke-linecap="round" stroke-linejoin="round" stroke-miterlimit="10" d="M65.404,25.071c0.542,0.01,5.195,0.301,5.195,7.064c0,0.938,0.761,1.699,1.699,1.699c0.939,0,1.701-0.761,1.701-1.699
		c0-6.771,4.664-7.055,5.181-7.064c0.938,0,1.7-0.762,1.7-1.7c0-0.939-0.762-1.7-1.7-1.7c-5.086,0-5.18-6.779-5.181-7.064
		c-0.002-0.937-0.76-1.694-1.697-1.697c-0.001,0-0.002,0-0.004,0c-0.935,0-1.695,0.758-1.699,1.693
		c-0.002,0.289-0.096,7.068-5.182,7.068c-0.001,0-0.002,0-0.003,0c-0.002,0-0.003,0-0.005,0h-0.002h-0.001
		c-0.001,0-0.003,0.001-0.003,0c-0.002,0-0.004,0-0.006,0c0,0-0.001,0-0.002,0l0,0c-0.93,0.012-1.679,0.768-1.679,1.7
		C63.718,24.306,64.472,25.063,65.404,25.071z M72.299,21.116c0.506,0.861,1.145,1.655,1.939,2.301
		c-0.709,0.545-1.375,1.24-1.939,2.111c-0.563-0.871-1.23-1.566-1.938-2.111C71.155,22.771,71.793,21.977,72.299,21.116z"/>
	<path fill="#fff" stroke="#333333" stroke-linecap="round" stroke-linejoin="round" stroke-miterlimit="10" d="M30.495,44.731c0.528,0.012,5.046,0.299,5.046,6.876c0,0.939,0.762,1.701,1.701,1.701c0.938,0,1.699-0.762,1.699-1.701
		c0-6.589,4.533-6.865,5.034-6.875c0.938,0,1.7-0.761,1.7-1.7s-0.762-1.7-1.7-1.7c-4.94,0-5.032-6.599-5.034-6.876
		c0-0.937-0.759-1.693-1.695-1.696c-0.002,0-0.003,0-0.004,0c-0.936,0-1.695,0.758-1.701,1.693c-0.001,0.28-0.094,6.879-5.033,6.879
		h-0.002c-0.002,0-0.004,0-0.004,0c-0.001,0-0.002,0-0.003,0s-0.003,0-0.003,0c-0.002,0.001-0.002,0.001-0.004,0.001
		c0,0,0,0-0.002,0h-0.001c-0.001,0-0.001,0-0.002,0s-0.001,0-0.003,0s-0.002,0-0.003,0H30.48c-0.926,0.014-1.672,0.77-1.672,1.699
		C28.809,43.967,29.563,44.726,30.495,44.731z M37.242,40.897c0.484,0.813,1.089,1.563,1.838,2.179
		c-0.67,0.521-1.301,1.18-1.838,1.999c-0.538-0.819-1.168-1.478-1.838-1.999C36.152,42.46,36.758,41.711,37.242,40.897z"/>
	<path fill="#fff" stroke="#333333" stroke-linecap="round" stroke-linejoin="round" stroke-miterlimit="10" d="M14.23,24.935c0.313,0,3.063,0.123,3.063,4.365c0,0.939,0.762,1.7,1.701,1.7c0.938,0,1.699-0.761,1.699-1.7
		c0-4.07,2.57-4.35,3.063-4.365c0.939,0,1.701-0.761,1.701-1.699c0-0.939-0.762-1.701-1.701-1.701c-2.943,0-3.059-3.925-3.063-4.367
		c0-0.936-0.758-1.692-1.693-1.695c-0.002,0-0.004,0-0.006,0c-0.934,0-1.693,0.756-1.701,1.69c-0.003,0.447-0.118,4.372-3.063,4.372
		c-0.939,0-1.7,0.761-1.7,1.701C12.53,24.174,13.291,24.935,14.23,24.935z M18.994,22.625c0.165,0.22,0.344,0.431,0.539,0.628
		c-0.188,0.176-0.367,0.367-0.539,0.576c-0.173-0.209-0.354-0.4-0.541-0.576C18.648,23.056,18.828,22.845,18.994,22.625z"/>
</g>
</svg>
