<?xml version="1.0" encoding="utf-8"?>
<!DOCTYPE svg PUBLIC "-//W3C//DTD SVG 1.1//EN" "http://www.w3.org/Graphics/SVG/1.1/DTD/svg11.dtd">
<svg version="1.1" id="Layer_1" xmlns="http://www.w3.org/2000/svg" xmlns:xlink="http://www.w3.org/1999/xlink" x="0px" y="0px"
	 width="91px" height="91px" viewBox="0 0 91 91" enable-background="new 0 0 91 91" xml:space="preserve">
<g>
	<path fill="#fff" stroke="#333333" stroke-linecap="round" stroke-linejoin="round" stroke-miterlimit="10" d="M80.146,37.238c-0.203-0.362-0.52-0.655-0.933-0.792c-2.054-0.678-20.176-6.63-24.018-6.763
		c-3.17-0.116-6.926,1.09-9.095,3.279c-1.452-1.556-4.014-3.287-8.225-3.287c-6.626,0-24.066,5.883-24.806,6.133
		c-0.241,0.082-0.442,0.228-0.618,0.396c-0.223,0.072-0.438,0.176-0.62,0.342c-0.594,0.54-0.729,1.422-0.324,2.115
		c0.608,1.042,15.118,25.506,33.857,25.506c18.666,0,34.695-23.517,35.369-24.519c0.461-0.686,0.362-1.603-0.234-2.175
		C80.396,37.373,80.27,37.308,80.146,37.238z M37.877,33.076c5.114,0,6.639,3.434,6.694,3.563c0.269,0.67,0.933,1.089,1.651,1.066
		c0.722-0.031,1.344-0.515,1.554-1.205c0.56-1.849,4.094-3.558,7.303-3.418c2.007,0.069,10.313,2.517,17.599,4.825
		c-5.169,1.114-14.05,2.469-26.669,2.469c-12.937,0-21.831-1.654-26.834-2.958C24.861,35.654,33.862,33.076,37.877,33.076z
		 M71.08,41.712c-6.138,3.23-15.416,7.017-24.81,6.724c-8.483-0.259-16.945-3.546-23.08-6.615
		c5.393,1.035,12.953,1.956,22.818,1.956C57.259,43.776,65.572,42.744,71.08,41.712z M45.366,60.768
		c-11.048,0-20.887-10.215-26.362-17.267c6.487,3.541,16.671,8.013,27.163,8.333c9.857,0.314,19.422-3.441,25.908-6.785
		C66.017,51.79,55.958,60.768,45.366,60.768z"/>
	<path fill="#fff" stroke="#333333" stroke-linecap="round" stroke-linejoin="round" stroke-miterlimit="10" d="M52.654,65.222c-6.461,3.4-12.72,0.152-12.996,0.006c-0.825-0.44-1.854-0.134-2.3,0.689
		c-0.447,0.826-0.14,1.857,0.687,2.304c0.216,0.117,3.672,1.942,8.328,1.942c2.396,0,5.112-0.484,7.865-1.934
		c0.831-0.437,1.149-1.465,0.712-2.296C54.514,65.102,53.484,64.782,52.654,65.222z"/>
</g>
</svg>
