<?xml version="1.0" encoding="utf-8"?>
<!DOCTYPE svg PUBLIC "-//W3C//DTD SVG 1.1//EN" "http://www.w3.org/Graphics/SVG/1.1/DTD/svg11.dtd">
<svg version="1.1" id="Layer_1" xmlns="http://www.w3.org/2000/svg" xmlns:xlink="http://www.w3.org/1999/xlink" x="0px" y="0px"
	 width="91px" height="91px" viewBox="0 0 91 91" enable-background="new 0 0 91 91" xml:space="preserve">
<g>
	<path fill="#fff" stroke="#333333" stroke-linecap="round" stroke-linejoin="round" stroke-miterlimit="10" d="M70.516,69.263c-0.206-0.022-0.418-0.007-0.621,0.047l-14.746,3.918c-2.78,0.271-4.692-0.03-5.383-0.861
		c-0.938-1.127-0.124-3.875,0.529-6.082c0.195-0.66,0.383-1.298,0.531-1.893c1.313-5.251-0.434-6.937-2.516-7.976
		c0,0-0.001-0.001-0.002-0.001c0.071-0.076,0.154-0.158,0.244-0.237c4.055,0.175,14.525,0.289,17.188-2.944
		c0.687-0.835,0.922-1.87,0.66-2.916c-1.163-4.652-11.443-7.153-16.713-8.138c0.214-1.217,0.178-2.609-0.372-3.893
		c-0.645-1.506-1.888-2.582-3.596-3.114c-1.067-0.333-2.338-0.311-3.679-0.284c-2.313,0.042-3.978-0.003-4.357-0.981
		c-0.339-0.871,1.969-3.218,2.955-4.22c0.559-0.568,1.087-1.105,1.479-1.591c0.188-0.232,0.461-0.521,0.788-0.873
		c2.098-2.252,6.462-6.938,7.524-14.585c0.129-0.93-0.521-1.788-1.45-1.917c-0.937-0.138-1.788,0.521-1.918,1.45
		c-0.914,6.583-4.642,10.585-6.644,12.734c-0.392,0.421-0.715,0.771-0.942,1.051c-0.29,0.358-0.762,0.838-1.262,1.347
		c-2.04,2.074-4.834,4.915-3.7,7.835c1.268,3.265,4.922,3.197,7.589,3.149c1.015-0.019,2.064-0.037,2.606,0.131
		c0.76,0.236,1.23,0.62,1.482,1.207c0.45,1.053,0.103,2.487-0.222,3.145c-0.239,0.484-0.234,1.054,0.014,1.534
		c0.249,0.48,0.709,0.813,1.243,0.898c7.182,1.143,15.217,3.771,15.867,5.906c-0.929,1.226-7.981,2.001-14.988,1.644
		c-0.354-0.023-0.708,0.075-1.008,0.268c-0.414,0.267-2.479,1.698-2.371,3.699c0.043,0.799,0.437,1.923,2.066,2.738
		c0.842,0.42,1.568,0.782,0.736,4.109c-0.137,0.55-0.313,1.141-0.493,1.752c-0.882,2.983-1.981,6.696,0.116,9.22
		c1.514,1.82,4.286,2.494,8.48,2.057c0.088-0.009,0.174-0.024,0.26-0.048l14.455-3.841c0.2,0.085,0.509,0.267,0.713,0.633
		c0.302,0.543,0.784,2.263-1.244,6.498c-0.406,0.847-0.049,1.862,0.799,2.268c0.236,0.113,0.486,0.167,0.732,0.167
		c0.635,0,1.242-0.355,1.535-0.966c1.995-4.166,2.382-7.401,1.148-9.619C72.855,69.576,70.752,69.288,70.516,69.263z"/>
	<path fill="#fff" stroke="#333333" stroke-linecap="round" stroke-linejoin="round" stroke-miterlimit="10" d="M18.75,41.116c0-1.354,1.102-2.454,2.457-2.454c1.354,0,2.457,1.101,2.457,2.454h3.4c0-3.229-2.627-5.854-5.857-5.854
		s-5.857,2.626-5.857,5.854c0,3.23,2.628,5.858,5.857,5.858h20.068v-3.4H21.207C19.852,43.574,18.75,42.472,18.75,41.116z"/>
	<path fill="#fff" stroke="#333333" stroke-linecap="round" stroke-linejoin="round" stroke-miterlimit="10" d="M15.35,57.671c0,3.229,2.628,5.855,5.857,5.855s5.857-2.627,5.857-5.855h-3.4c0,1.354-1.102,2.455-2.457,2.455
		c-1.355,0-2.457-1.102-2.457-2.455c0-1.356,1.102-2.459,2.457-2.459h20.068v-3.4H21.207C17.978,51.812,15.35,54.44,15.35,57.671z"
		/>
</g>
</svg>
