<?xml version="1.0" encoding="utf-8"?>
<!DOCTYPE svg PUBLIC "-//W3C//DTD SVG 1.1//EN" "http://www.w3.org/Graphics/SVG/1.1/DTD/svg11.dtd">
<svg version="1.1" id="Layer_1" xmlns="http://www.w3.org/2000/svg" xmlns:xlink="http://www.w3.org/1999/xlink" x="0px" y="0px"
	 width="91px" height="91px" viewBox="0 0 91 91" enable-background="new 0 0 91 91" xml:space="preserve">
<g>
	<path fill="#fff" stroke="#333333" stroke-linecap="round" stroke-linejoin="round" stroke-miterlimit="10" d="M38.715,61.537c5.799,0,10.517-4.719,10.517-10.52c0-5.799-4.718-10.517-10.517-10.517c-5.8,0-10.518,4.718-10.518,10.517
		C28.197,56.818,32.915,61.537,38.715,61.537z M38.715,43.901c3.924,0,7.116,3.192,7.116,7.116c0,3.926-3.192,7.119-7.116,7.119
		c-3.925,0-7.117-3.193-7.117-7.119C31.598,47.094,34.79,43.901,38.715,43.901z"/>
	<path fill="#fff" stroke="#333333" stroke-linecap="round" stroke-linejoin="round" stroke-miterlimit="10" d="M38.715,56.135c2.82,0,5.115-2.296,5.115-5.117c0-2.82-2.295-5.114-5.115-5.114S33.6,48.197,33.6,51.018
		C33.6,53.839,35.895,56.135,38.715,56.135z M38.715,49.304c0.945,0,1.715,0.769,1.715,1.714c0,0.946-0.77,1.717-1.715,1.717
		c-0.946,0-1.715-0.771-1.715-1.717C37,50.072,37.769,49.304,38.715,49.304z"/>
	<path fill="#fff" stroke="#333333" stroke-linecap="round" stroke-linejoin="round" stroke-miterlimit="10" d="M78.174,43.544c-1.141-0.459-2.381-0.218-3.318,0.645c-0.691,0.636-0.725,1.701-0.089,2.392
		c0.593,0.645,1.573,0.718,2.264,0.215c0.205,0.204,0.508,0.691,0.538,1.346c0.032,0.707-0.273,1.229-0.934,1.595
		c-0.98,0.543-1.846,0.59-2.645,0.146c-1.684-0.94-2.969-3.866-3.122-7.114c-0.296-6.253-3.341-9.223-5.842-10.613
		c-7.249-4.031-19.081-0.368-25.264,3.079c-0.188,0.105-0.345,0.243-0.476,0.399h-9.689l28.93-7.539
		c0.582-0.152,1.041-0.602,1.206-1.181s0.011-1.202-0.405-1.638c-4.968-5.211-11.927-8.199-19.092-8.199
		c-2.236,0-4.478,0.289-6.66,0.857c-9.264,2.415-16.502,9.686-18.893,18.976c-0.105,0.413-0.045,0.84,0.146,1.207
		c-1.631,3.487-2.49,7.312-2.49,11.168c0,8.578,4.118,16.211,10.479,21.03c-0.004,0.049-0.015,0.097-0.015,0.146v3.756
		c0,0.938,0.762,1.7,1.7,1.7s1.7-0.762,1.7-1.7v-1.719c3.725,2.015,7.985,3.161,12.51,3.161c4.314,0,8.387-1.048,11.985-2.893v1.45
		c0,0.938,0.761,1.7,1.7,1.7s1.7-0.762,1.7-1.7v-3.531c6.648-4.793,10.989-12.598,10.989-21.401c0-4.459-1.145-8.877-3.309-12.776
		c-0.301-0.54-0.869-0.875-1.486-0.875H47.346c5.479-1.85,11.99-2.753,16.029-0.507c2.576,1.433,3.916,3.984,4.097,7.802
		c0.214,4.499,2.122,8.394,4.862,9.923c0.873,0.487,1.812,0.73,2.772,0.73c1.05,0,2.126-0.29,3.175-0.87
		c1.828-1.012,2.805-2.766,2.679-4.811C80.84,45.947,79.694,44.156,78.174,43.544z M50.7,51.018c0,6.609-5.377,11.986-11.985,11.986
		c-6.609,0-11.986-5.377-11.986-11.986c0-6.608,5.377-11.985,11.986-11.985C45.323,39.032,50.7,44.409,50.7,51.018z M34.434,21.224
		c1.902-0.496,3.855-0.748,5.803-0.748c5.238,0,10.352,1.836,14.42,5.111l-35.744,9.315C21.609,28.191,27.34,23.072,34.434,21.224z
		 M61.689,49.283c0,12.668-10.307,22.975-22.975,22.975c-12.669,0-22.975-10.307-22.975-22.975c0-3.553,0.834-7.076,2.419-10.251
		H29.09c-3.508,2.822-5.762,7.144-5.762,11.985c0,8.484,6.902,15.387,15.387,15.387c8.483,0,15.386-6.902,15.386-15.387
		c0-4.842-2.254-9.163-5.762-11.985H59.27C60.855,42.207,61.689,45.73,61.689,49.283z"/>
</g>
</svg>
