<?xml version="1.0" encoding="utf-8"?>
<!DOCTYPE svg PUBLIC "-//W3C//DTD SVG 1.1//EN" "http://www.w3.org/Graphics/SVG/1.1/DTD/svg11.dtd">
<svg version="1.1" id="Layer_1" xmlns="http://www.w3.org/2000/svg" xmlns:xlink="http://www.w3.org/1999/xlink" x="0px" y="0px"
	 width="91px" height="91px" viewBox="0 0 91 91" enable-background="new 0 0 91 91" xml:space="preserve">
<g>
	<path fill="#fff" stroke="#333333" stroke-linecap="round" stroke-linejoin="round" stroke-miterlimit="10" d="M60.129,10.254c-11.841,0-21.474,8.622-21.474,19.22c0,4.038,1.363,7.866,3.953,11.122l-0.413,2.196
		c-0.083-0.013-0.167-0.025-0.253-0.025H17.315c-3.697,0-6.704,3.007-6.704,6.702v21.575c0,3.696,3.007,6.704,6.704,6.704
		c0.938,0,1.699-0.762,1.699-1.7s-0.761-1.7-1.699-1.7c-1.822,0-3.304-1.482-3.304-3.304V49.469c0-1.82,1.481-3.302,3.304-3.302
		H41.56l-0.5,2.657c-0.418-0.03-0.836-0.063-1.261-0.063c-9.427,0-17.095,7.67-17.095,17.097c0,9.426,7.668,17.095,17.095,17.095
		c9.426,0,17.095-7.669,17.095-17.095c0-7.791-5.244-14.368-12.383-16.421l6.449-2.188c2.572,0.79,6.671,1.447,9.169,1.447
		c11.841,0,21.474-8.623,21.474-19.222C81.603,18.876,71.97,10.254,60.129,10.254z M53.493,65.857
		c0,7.551-6.143,13.694-13.694,13.694s-13.694-6.144-13.694-13.694c0-7.553,6.143-13.696,13.694-13.696S53.493,58.305,53.493,65.857
		z M60.129,45.295c-2.302,0-6.491-0.702-8.62-1.444l-0.551-0.192l-5.84,1.98l1.132-6.006l-0.538-0.621
		c-2.393-2.762-3.656-6.061-3.656-9.538c0-8.723,8.107-15.819,18.073-15.819s18.073,7.097,18.073,15.819
		C78.202,38.197,70.095,45.295,60.129,45.295z"/>
	<path fill="#fff" stroke="#333333" stroke-linecap="round" stroke-linejoin="round" stroke-miterlimit="10" d="M55.794,26.36h-5.913v3.4h2.288l-2.662,3.201c-0.422,0.507-0.512,1.212-0.232,1.809c0.28,0.597,0.881,0.979,1.539,0.979
		h5.914v-3.4h-2.289l2.663-3.201c0.421-0.507,0.513-1.212,0.231-1.809C57.054,26.742,56.454,26.36,55.794,26.36z"/>
	<path fill="#fff" stroke="#333333" stroke-linecap="round" stroke-linejoin="round" stroke-miterlimit="10" d="M69.878,23.959c-0.28-0.597-0.881-0.979-1.539-0.979H59.09v3.4h5.624l-5.471,6.581c-0.421,0.507-0.512,1.212-0.231,1.809
		s0.88,0.979,1.539,0.979H69.8v-3.4h-5.625l5.471-6.581C70.067,25.261,70.157,24.556,69.878,23.959z"/>
	<path fill="#fff" stroke="#333333" stroke-linecap="round" stroke-linejoin="round" stroke-miterlimit="10" d="M34.285,71.746c0,3.31,2.692,6.002,6.001,6.002s6-2.692,6-6.002c0-3.309-2.691-6-6-6S34.285,68.438,34.285,71.746z
		 M40.286,69.146c1.434,0,2.6,1.166,2.6,2.6c0,1.435-1.166,2.602-2.6,2.602s-2.601-1.167-2.601-2.602
		C37.686,70.313,38.853,69.146,40.286,69.146z"/>
	<path fill="#fff" stroke="#333333" stroke-linecap="round" stroke-linejoin="round" stroke-miterlimit="10" d="M36.907,61.14c-0.664-0.664-1.74-0.664-2.404,0c-0.965,0.965-2.535,0.965-3.5,0c-0.664-0.664-1.74-0.664-2.404,0
		s-0.664,1.74,0,2.404c1.111,1.11,2.586,1.722,4.154,1.722s3.043-0.611,4.154-1.722C37.571,62.88,37.571,61.804,36.907,61.14z"/>
	<path fill="#fff" stroke="#333333" stroke-linecap="round" stroke-linejoin="round" stroke-miterlimit="10" d="M46.677,65.266c1.568,0,3.043-0.611,4.154-1.722c0.664-0.664,0.664-1.74,0-2.404s-1.74-0.664-2.404,0
		c-0.965,0.965-2.535,0.965-3.5,0c-0.664-0.664-1.74-0.664-2.404,0s-0.664,1.74,0,2.404C43.634,64.654,45.108,65.266,46.677,65.266z
		"/>
	<path fill="#fff" stroke="#333333" stroke-linecap="round" stroke-linejoin="round" stroke-miterlimit="10" d="M67.244,50.335c-0.938,0-1.7,0.762-1.7,1.7v19.009c0,1.822-1.482,3.304-3.303,3.304c-0.939,0-1.701,0.762-1.701,1.7
		s0.762,1.7,1.701,1.7c3.695,0,6.703-3.008,6.703-6.704V52.035C68.944,51.097,68.183,50.335,67.244,50.335z"/>
</g>
</svg>
