<?xml version="1.0" encoding="utf-8"?>
<!DOCTYPE svg PUBLIC "-//W3C//DTD SVG 1.1//EN" "http://www.w3.org/Graphics/SVG/1.1/DTD/svg11.dtd">
<svg version="1.1" id="Layer_1" xmlns="http://www.w3.org/2000/svg" xmlns:xlink="http://www.w3.org/1999/xlink" x="0px" y="0px"
	 width="91px" height="91px" viewBox="0 0 91 91" enable-background="new 0 0 91 91" xml:space="preserve">
<g>
	<path fill="#fff" stroke="#333333" stroke-linecap="round" stroke-linejoin="round" stroke-miterlimit="10"  d="M34.132,71.746c0,3.31,2.692,6.002,6.002,6.002c3.308,0,6-2.692,6-6.002c0-3.309-2.692-6-6-6
		C36.824,65.746,34.132,68.438,34.132,71.746z M40.134,69.146c1.434,0,2.6,1.166,2.6,2.6c0,1.435-1.166,2.602-2.6,2.602
		c-1.436,0-2.602-1.167-2.602-2.602C37.532,70.313,38.698,69.146,40.134,69.146z"/>
	<path fill="#fff" stroke="#333333" stroke-linecap="round" stroke-linejoin="round" stroke-miterlimit="10"  d="M36.753,61.14c-0.664-0.664-1.74-0.664-2.404,0c-0.965,0.965-2.533,0.965-3.498,0c-0.664-0.664-1.74-0.664-2.404,0
		s-0.664,1.74,0,2.404c1.109,1.11,2.585,1.722,4.153,1.722s3.044-0.611,4.153-1.722C37.417,62.88,37.417,61.804,36.753,61.14z"/>
	<path fill="#fff" stroke="#333333" stroke-linecap="round" stroke-linejoin="round" stroke-miterlimit="10"  d="M46.523,65.266c1.568,0,3.044-0.611,4.153-1.722c0.664-0.664,0.664-1.74,0-2.404s-1.74-0.664-2.404,0
		c-0.965,0.965-2.533,0.965-3.498,0c-0.664-0.664-1.74-0.664-2.404,0s-0.664,1.74,0,2.404
		C43.479,64.654,44.955,65.266,46.523,65.266z"/>
	<path fill="#fff" stroke="#333333" stroke-linecap="round" stroke-linejoin="round" stroke-miterlimit="10"  d="M67.091,50.335c-0.938,0-1.699,0.762-1.699,1.7v19.009c0,1.822-1.482,3.304-3.305,3.304c-0.938,0-1.699,0.762-1.699,1.7
		s0.761,1.7,1.699,1.7c3.697,0,6.705-3.008,6.705-6.704V52.035C68.792,51.097,68.03,50.335,67.091,50.335z"/>
	<path fill="#fff" stroke="#333333" stroke-linecap="round" stroke-linejoin="round" stroke-miterlimit="10"  d="M60.222,10.254c-11.842,0-21.475,8.622-21.475,19.22c0,4.038,1.364,7.865,3.954,11.122l-0.409,2.171h-25.13
		c-3.696,0-6.704,3.007-6.704,6.702v21.575c0,3.696,3.008,6.704,6.704,6.704c0.938,0,1.7-0.762,1.7-1.7s-0.762-1.7-1.7-1.7
		c-1.821,0-3.304-1.482-3.304-3.304V49.469c0-1.82,1.482-3.302,3.304-3.302h24.49l-0.503,2.67c-0.496-0.044-0.996-0.076-1.504-0.076
		c-9.426,0-17.095,7.67-17.095,17.097c0,9.426,7.669,17.095,17.095,17.095S56.74,75.283,56.74,65.857
		c0-7.741-5.175-14.288-12.243-16.385l6.557-2.225c2.571,0.79,6.67,1.447,9.168,1.447c11.84,0,21.475-8.623,21.475-19.222
		C81.696,18.876,72.062,10.254,60.222,10.254z M53.34,65.857c0,7.551-6.144,13.694-13.694,13.694s-13.694-6.144-13.694-13.694
		c0-7.553,6.144-13.696,13.694-13.696S53.34,58.305,53.34,65.857z M60.222,45.295c-2.303,0-6.49-0.702-8.619-1.444l-0.553-0.192
		l-5.838,1.98l1.131-6.006l-0.538-0.621c-2.393-2.763-3.657-6.062-3.657-9.538c0-8.723,8.107-15.819,18.074-15.819
		c9.966,0,18.074,7.097,18.074,15.819C78.296,38.197,70.188,45.295,60.222,45.295z"/>
	<rect fill="#fff" stroke="#333333" stroke-linecap="round" stroke-linejoin="round" stroke-miterlimit="10"  x="54.286" y="21.475" transform="matrix(-0.9573 -0.289 0.289 -0.9573 101.7039 69.5591)" width="3.4" height="11.594"/>
	<path fill="#fff" stroke="#333333" stroke-linecap="round" stroke-linejoin="round" stroke-miterlimit="10"  d="M52.065,35.219c-0.32,0.32-0.5,0.75-0.5,1.2c0,0.46,0.18,0.88,0.5,1.2s0.75,0.5,1.199,0.5c0.461,0,0.881-0.18,1.211-0.5
		c0.319-0.32,0.489-0.74,0.489-1.2c0-0.45-0.18-0.88-0.489-1.2C53.835,34.589,52.694,34.589,52.065,35.219z"/>
	<rect x="63.53" y="21.475" transform="matrix(-0.9573 -0.289 0.289 -0.9573 119.7969 72.2301)" width="3.4" height="11.594"/>
	<path fill="#fff" stroke="#333333" stroke-linecap="round" stroke-linejoin="round" stroke-miterlimit="10"  d="M61.315,35.219c-0.32,0.32-0.5,0.75-0.5,1.2c0,0.46,0.17,0.88,0.5,1.2c0.32,0.32,0.74,0.5,1.199,0.5
		c0.45,0,0.881-0.18,1.2-0.5c0.32-0.32,0.5-0.74,0.5-1.2c0-0.45-0.18-0.88-0.5-1.2C63.085,34.589,61.944,34.589,61.315,35.219z"/>
</g>
</svg>
