<?xml version="1.0" encoding="utf-8"?>
<!DOCTYPE svg PUBLIC "-//W3C//DTD SVG 1.1//EN" "http://www.w3.org/Graphics/SVG/1.1/DTD/svg11.dtd">
<svg version="1.1" id="Layer_1" xmlns="http://www.w3.org/2000/svg" xmlns:xlink="http://www.w3.org/1999/xlink" x="0px" y="0px"
	 width="91px" height="91px" viewBox="0 0 91 91" enable-background="new 0 0 91 91" xml:space="preserve">
<g>
	<path fill="#fff" stroke="#333333" stroke-linecap="round" stroke-linejoin="round" stroke-miterlimit="10"  d="M10.599,72.965H74.26c3.303,0,5.99-2.688,5.99-5.993V21.605H10.599V72.965z M13.999,25.006H76.85v41.966
		c0,1.43-1.162,2.593-2.59,2.593H13.999V25.006z"/>
	<path fill="#fff" stroke="#333333" stroke-linecap="round" stroke-linejoin="round" stroke-miterlimit="10"  d="M75.305,63.06c0.194-2.205-0.091-4.796-0.798-7.157c-0.4-1.194-1.878-3.253-4.877-3.389
		c-3.235-0.138-4.728,2.224-5.039,3.44c-0.69,2.325-0.725,4.479-0.752,6.211c-0.01,0.558-0.018,1.053-0.048,1.494
		c-0.083-0.123-0.191-0.294-0.333-0.53c-0.483-0.81-1.293-2.832-1.289-7.277c0.029-3.973-1.079-6.22-2.104-7.986l-0.135-0.242
		c-0.762-1.372-1.266-2.278-1.283-4.834l0.007-0.436c0.066-1.864,0.81-2.627,1.591-3.164c0.729-0.491,1.784-0.839,2.976-0.981
		l2.221-0.028c1.127,0.096,2.246,0.355,3.01,0.699l0.421,0.188l3.132,1.658c0.234,0.124,0.486,0.184,0.734,0.184
		c0.563,0,1.107-0.304,1.389-0.836c0.346-0.652,0.182-1.436-0.346-1.905c0.01-0.001,0.019-0.002,0.028-0.003
		c0.865-0.061,1.517-0.813,1.455-1.678c-0.062-0.866-0.829-1.531-1.678-1.455c-1.473,0.104-2.895,0.423-4.029,0.902
		c-1.095-0.462-2.483-0.777-3.938-0.892c-0.048-0.005-0.104-0.005-0.144-0.005l-2.376,0.03c-0.053,0.001-0.104,0.004-0.155,0.01
		c-1.74,0.195-3.28,0.716-4.468,1.515c-0.548,0.377-1.009,0.804-1.403,1.273c-0.397-0.472-0.862-0.901-1.415-1.282
		c-1.52-1.023-3.636-1.587-6.024-1.587c-1.776,0-3.641,0.348-5.041,0.938c-1.099-0.462-2.488-0.777-3.939-0.892
		c-0.049-0.005-0.099-0.005-0.145-0.005l-2.374,0.03c-0.051,0.001-0.103,0.004-0.154,0.01c-1.738,0.194-3.278,0.715-4.471,1.515
		c-0.548,0.377-1.009,0.804-1.402,1.273c-0.397-0.472-0.862-0.902-1.415-1.283c-1.523-1.023-3.637-1.586-5.944-1.586
		c-0.025,0-0.051,0-0.076,0c-1.777,0-3.642,0.347-5.047,0.938c-0.619-0.262-1.338-0.478-2.141-0.644
		c-0.852-0.179-1.682,0.37-1.856,1.22c-0.176,0.85,0.37,1.681,1.22,1.856c0.648,0.134,1.225,0.311,1.672,0.512l0.424,0.189
		l3.129,1.657c0.234,0.124,0.486,0.184,0.733,0.184c0.563,0,1.107-0.304,1.39-0.836c0.344-0.648,0.183-1.426-0.338-1.896
		c0.274-0.02,0.551-0.039,0.822-0.039c0.011,0,0.021,0,0.03,0c1.687,0.002,3.228,0.379,4.216,1.042
		c0.791,0.546,1.533,1.308,1.603,3.136l0.012,0.459c-0.024,2.577-0.528,3.485-1.292,4.861l-0.11,0.2
		c-1.039,1.786-2.146,4.026-2.122,8.005c0.002,4.458-0.807,6.479-1.285,7.281c-0.156,0.258-0.273,0.437-0.36,0.559
		c-0.015-0.15-0.02-0.355,0.004-0.622c0.193-2.211-0.092-4.802-0.798-7.156c-0.4-1.194-1.877-3.253-4.877-3.389
		c-1.385-0.056-2.621,0.34-3.568,1.165c-0.654,0.569-0.723,1.562-0.152,2.216c0.568,0.654,1.563,0.722,2.215,0.153
		c0.338-0.294,0.781-0.434,1.363-0.396c1.512,0.068,1.975,1.076,2.025,1.199c0.572,1.912,0.82,4.13,0.663,5.933
		c-0.127,1.439,0.167,2.56,0.873,3.33c0.778,0.849,1.738,0.915,2.016,0.915c0.001,0,0.001,0,0.001,0c1.612,0,2.371-0.77,3.289-2.291
		c1.136-1.903,1.734-4.98,1.732-8.907c-0.019-3.199,0.792-4.86,1.714-6.446l0.124-0.225c0.039-0.07,0.077-0.141,0.115-0.21
		c0.04,0.071,0.078,0.143,0.118,0.214l0.139,0.249c0.906,1.563,1.718,3.229,1.695,6.425c-0.005,3.916,0.594,6.994,1.733,8.905
		c0.83,1.381,1.508,2.286,3.29,2.286c1.733,0,2.744-1.446,2.843-2.83c0.062-0.604,0.072-1.28,0.084-1.996
		c0.027-1.615,0.058-3.446,0.634-5.383c0.082-0.275,0.451-1.172,1.738-1.172l0.14,0.004c1.51,0.068,1.972,1.076,2.023,1.199
		c0.573,1.916,0.82,4.134,0.662,5.934c-0.126,1.438,0.168,2.559,0.874,3.329c0.778,0.85,1.738,0.915,2.015,0.915H50.1
		c1.613,0,2.373-0.77,3.292-2.293c1.134-1.906,1.732-4.982,1.731-8.907c-0.021-3.183,0.79-4.852,1.712-6.444l0.125-0.227
		c0.039-0.07,0.076-0.14,0.115-0.209c0.036,0.066,0.072,0.133,0.109,0.199l0.147,0.265c0.907,1.564,1.72,3.231,1.696,6.426
		c-0.004,3.917,0.596,6.995,1.734,8.902c0.828,1.382,1.505,2.288,3.289,2.288c1.728,0,2.741-1.443,2.846-2.834
		c0.06-0.6,0.07-1.271,0.082-1.98c0.025-1.619,0.055-3.454,0.631-5.395c0.087-0.29,0.515-1.224,1.878-1.168
		c1.511,0.068,1.973,1.076,2.024,1.199c0.573,1.917,0.821,4.135,0.663,5.933c-0.076,0.864,0.563,1.626,1.427,1.702
		C74.447,64.549,75.228,63.925,75.305,63.06z M54.214,47.633l-0.113,0.205c-1.039,1.796-2.146,4.044-2.118,8.002
		c0.001,4.454-0.809,6.48-1.285,7.282c-0.156,0.26-0.274,0.438-0.361,0.561c-0.016-0.15-0.021-0.355,0.003-0.623
		c0.194-2.206-0.09-4.797-0.797-7.157c-0.4-1.194-1.877-3.253-4.876-3.389c-0.096-0.004-0.189-0.006-0.281-0.006
		c-3.063,0-4.462,2.291-4.757,3.445c-0.691,2.32-0.727,4.47-0.756,6.197c-0.009,0.562-0.018,1.059-0.05,1.507
		c-0.082-0.123-0.19-0.293-0.332-0.528c-0.482-0.81-1.292-2.834-1.287-7.277c0.028-3.976-1.079-6.222-2.104-7.988l-0.127-0.228
		c-0.766-1.375-1.271-2.283-1.291-4.847l0.006-0.435c0.067-1.865,0.812-2.628,1.589-3.164c0.733-0.492,1.79-0.84,2.98-0.982
		l2.22-0.028c1.14,0.097,2.233,0.351,3.011,0.698l0.414,0.186l3.139,1.662c0.234,0.124,0.486,0.184,0.734,0.184
		c0.563,0,1.107-0.304,1.389-0.836c0.344-0.647,0.184-1.425-0.336-1.895c0.29-0.021,0.582-0.041,0.874-0.041
		c1.679,0,3.211,0.384,4.189,1.043c0.794,0.546,1.537,1.308,1.604,3.135l0.01,0.459C55.481,45.351,54.978,46.259,54.214,47.633z"/>
	<rect fill="#fff" stroke="#333333" stroke-linecap="round" stroke-linejoin="round" stroke-miterlimit="10"  x="20.927" y="27.622" width="15.169" height="3.4"/>
</g>
</svg>
