<?xml version="1.0" encoding="utf-8"?>
<!DOCTYPE svg PUBLIC "-//W3C//DTD SVG 1.1//EN" "http://www.w3.org/Graphics/SVG/1.1/DTD/svg11.dtd">
<svg version="1.1" id="Layer_1" xmlns="http://www.w3.org/2000/svg" xmlns:xlink="http://www.w3.org/1999/xlink" x="0px" y="0px"
	 width="91px" height="91px" viewBox="0 0 91 91" enable-background="new 0 0 91 91" xml:space="preserve">
<g>
	<path fill="#fff" stroke="#333333" stroke-linecap="round" stroke-linejoin="round" stroke-miterlimit="10" d="M11.746,74.364h61.961c3.303,0,5.99-2.688,5.99-5.993V19.605H11.746V74.364z M15.146,23.006h61.15v45.365
		c0,1.43-1.162,2.593-2.59,2.593H15.146V23.006z"/>
	<rect fill="#fff" stroke="#333333" stroke-linecap="round" stroke-linejoin="round" stroke-miterlimit="10" x="56.169" y="55.175" width="13.433" height="3.4"/>
	<rect fill="#fff" stroke="#333333" stroke-linecap="round" stroke-linejoin="round" stroke-miterlimit="10" x="56.169" y="60.308" width="6.716" height="3.4"/>
	<path fill="#fff" stroke="#333333" stroke-linecap="round" stroke-linejoin="round" stroke-miterlimit="10" d="M56.011,37.092c-0.104-3.023-1.236-5.269-3.472-6.875c-1.794-1.265-4.29-1.961-7.119-1.961c-2.074,0-4.253,0.423-5.9,1.139
		c-1.287-0.56-2.909-0.942-4.604-1.082c-0.061-0.006-0.121-0.007-0.181-0.007l-2.782,0.037c-0.064,0.001-0.129,0.006-0.193,0.013
		c-2.054,0.241-3.873,0.884-5.279,1.872c-2.221,1.598-3.352,3.843-3.458,6.93l-0.007,0.617c0.028,4.104,0.967,5.869,1.96,7.737
		l0.167,0.313c1.068,1.922,2.024,3.973,1.999,7.922c-0.006,4.777,0.69,8.529,2.018,10.854c0.976,1.7,1.774,2.814,3.908,2.814
		c2.057,0,3.256-1.754,3.374-3.438c0.07-0.732,0.083-1.555,0.097-2.425c0.031-1.989,0.066-4.244,0.755-6.667
		c0.015-0.058,0.365-1.411,1.98-1.411l0.162,0.004c1.729,0.081,2.266,1.317,2.328,1.477c0.675,2.361,0.967,5.096,0.78,7.315
		c-0.147,1.773,0.211,3.143,1.064,4.071c0.917,0.996,2.039,1.074,2.361,1.074h0.002c1.931,0,2.829-0.946,3.909-2.819
		c1.322-2.319,2.02-6.07,2.017-10.857c-0.025-3.93,0.932-5.986,2.019-7.949l0.146-0.276c0.99-1.867,1.926-3.631,1.962-7.75
		c0-0.14-0.004-0.283-0.008-0.431L56.011,37.092z M50.737,43.748l-0.132,0.25c-1.212,2.188-2.503,4.928-2.473,9.752
		c0.004,5.483-0.952,7.98-1.518,8.973c-0.134,0.232-0.244,0.412-0.334,0.551c-0.012-0.181-0.012-0.409,0.012-0.69
		c0.227-2.688-0.106-5.847-0.93-8.722c-0.468-1.461-2.206-3.978-5.752-4.145c-0.115-0.005-0.228-0.008-0.339-0.008
		c-3.627,0-5.271,2.799-5.617,4.211c-0.807,2.832-0.848,5.46-0.881,7.572c-0.01,0.645-0.02,1.222-0.051,1.743
		c-0.082-0.133-0.181-0.299-0.3-0.505c-0.57-1-1.527-3.496-1.52-8.969c0.031-4.85-1.261-7.584-2.455-9.731l-0.151-0.286
		c-0.902-1.695-1.498-2.815-1.52-5.982l0.006-0.539c0.081-2.324,0.958-3.268,1.876-3.928c0.859-0.604,2.049-1.016,3.443-1.19
		l2.588-0.034c1.323,0.117,2.589,0.425,3.486,0.848l0.497,0.232l3.659,2.028c0.289,0.16,0.602,0.236,0.91,0.236
		c0.662,0,1.305-0.35,1.647-0.97c0.45-0.813,0.232-1.811-0.467-2.373c0.359-0.029,0.721-0.053,1.084-0.053
		c1.941,0,3.714,0.464,4.848,1.264c0.936,0.672,1.813,1.614,1.893,3.908l0.011,0.554C52.232,40.93,51.638,42.051,50.737,43.748z"/>
</g>
</svg>
