<?xml version="1.0" encoding="utf-8"?>
<!DOCTYPE svg PUBLIC "-//W3C//DTD SVG 1.1//EN" "http://www.w3.org/Graphics/SVG/1.1/DTD/svg11.dtd">
<svg version="1.1" id="Layer_1" xmlns="http://www.w3.org/2000/svg" xmlns:xlink="http://www.w3.org/1999/xlink" x="0px" y="0px"
	 width="91px" height="91px" viewBox="0 0 91 91" enable-background="new 0 0 91 91" xml:space="preserve">
<g>
	<polygon fill="#fff" stroke="#333333" stroke-linecap="round" stroke-linejoin="round" stroke-miterlimit="10" points="35.353,44.927 32.722,42.774 28.75,47.629 27.907,46.407 25.108,48.339 28.52,53.279 	"/>
	<polygon fill="#fff" stroke="#333333" stroke-linecap="round" stroke-linejoin="round" stroke-miterlimit="10" points="28.75,57.323 27.907,56.101 25.108,58.03 28.52,62.976 35.354,54.62 32.721,52.468 	"/>
	<polygon fill="#fff" stroke="#333333" stroke-linecap="round" stroke-linejoin="round" stroke-miterlimit="10" points="28.75,67.019 27.907,65.796 25.108,67.728 28.52,72.671 35.354,64.313 32.721,62.161 	"/>
	<rect fill="#fff" stroke="#333333" stroke-linecap="round" stroke-linejoin="round" stroke-miterlimit="10" x="38.569" y="48.754" width="13.635" height="3.4"/>
	<rect fill="#fff" stroke="#333333" stroke-linecap="round" stroke-linejoin="round" stroke-miterlimit="10" x="38.569" y="57.569" width="20.276" height="3.4"/>
	<rect fill="#fff" stroke="#333333" stroke-linecap="round" stroke-linejoin="round" stroke-miterlimit="10" x="38.569" y="66.382" width="20.276" height="3.4"/>
	<path fill="#fff" stroke="#333333" stroke-linecap="round" stroke-linejoin="round" stroke-miterlimit="10" d="M58.665,11.975c-4.902,0-9.355,1.921-12.682,5.031c-1.441-1.323-3.325-2.098-5.357-2.098c-2.684,0-5.129,1.327-6.606,3.524
		h-5.728v3.523H16.775v58.039h44.647c3.69,0,6.693-3.004,6.693-6.695V46.557c5.463-3.242,9.145-9.186,9.145-15.986
		C77.261,20.316,68.919,11.975,58.665,11.975z M31.692,21.833h4.357l0.468-0.946c0.787-1.591,2.361-2.578,4.108-2.578
		c1.177,0,2.268,0.456,3.099,1.235c-1.657,2.238-2.825,4.853-3.342,7.698h-8.69V21.833z M64.716,73.3
		c0,1.817-1.478,3.295-3.293,3.295H20.176V25.356h8.116v5.286h11.779c0.039,10.221,8.363,18.523,18.594,18.523
		c2.12,0,4.15-0.374,6.051-1.03V73.3z M58.665,45.766c-8.38,0-15.197-6.816-15.197-15.195s6.817-15.195,15.197-15.195
		c8.379,0,15.195,6.816,15.195,15.195S67.044,45.766,58.665,45.766z"/>
	<path fill="#fff" stroke="#333333" stroke-linecap="round" stroke-linejoin="round" stroke-miterlimit="10" d="M66.622,20.562c-1.146-0.773-2.723-1.2-4.491-1.2c-1.218,0-2.455,0.217-3.458,0.6c-0.771-0.294-1.697-0.492-2.657-0.567
		c-0.052-0.005-0.103-0.006-0.155-0.006l-1.627,0.021c-0.057,0.001-0.113,0.005-0.169,0.011c-1.299,0.147-2.454,0.543-3.354,1.151
		c-1.478,1.019-2.231,2.449-2.306,4.437l-0.004,0.352c0.021,2.477,0.638,3.59,1.234,4.666l0.105,0.19
		c0.462,0.8,1.096,1.896,1.078,4.112c-0.002,2.852,0.429,5.02,1.28,6.447c0.615,1.026,1.249,1.876,2.794,1.876
		c1.556,0,2.473-1.279,2.571-2.514c0.04-0.406,0.051-0.882,0.059-1.408c0.017-1.075,0.036-2.295,0.413-3.562
		c0.147-0.48,0.315-1.025,0.6-1.454c0.036-0.056,0.117-0.117,0.176-0.148c0.021,0.024,0.046,0.058,0.075,0.105
		c0.293,0.472,0.478,1.017,0.633,1.529c0.372,1.246,0.534,2.688,0.433,3.858c-0.102,1.172,0.155,2.102,0.764,2.764
		c0.476,0.52,1.163,0.829,1.838,0.829h0.001c1.536,0,2.222-0.925,2.798-1.883c0.849-1.432,1.276-3.6,1.271-6.45
		c-0.015-2.207,0.62-3.304,1.101-4.136l0.084-0.152c0.597-1.076,1.213-2.189,1.234-4.686l-0.004-0.4
		C68.868,23.021,68.114,21.591,66.622,20.562z M64.735,28.383l-0.071,0.129c-0.755,1.305-1.559,2.939-1.54,5.82
		c0.001,0.59-0.02,1.113-0.055,1.576c-0.099-0.572-0.23-1.14-0.394-1.686c-0.212-0.705-0.497-1.534-1-2.346
		c-0.694-1.116-1.729-1.731-2.911-1.731c-1.182,0-2.384,0.664-3.063,1.69c-0.556,0.838-0.821,1.703-1.033,2.394
		c-0.184,0.619-0.304,1.227-0.383,1.805c-0.041-0.491-0.066-1.052-0.065-1.692c0.022-2.888-0.781-4.522-1.518-5.797l-0.093-0.167
		c-0.512-0.925-0.794-1.435-0.808-3.033l0.003-0.272c0.036-0.962,0.347-1.364,0.823-1.693c0.413-0.279,1.028-0.48,1.74-0.571
		l1.455-0.019c0.693,0.062,1.371,0.22,1.835,0.431l0.269,0.12l2.134,1.131c0.254,0.135,0.526,0.198,0.795,0.198
		c0.608,0,1.198-0.328,1.503-0.904c0.166-0.313,0.224-0.655,0.188-0.982c0.872,0.048,1.669,0.256,2.16,0.588
		c0.489,0.338,0.8,0.739,0.834,1.652l0.003,0.308C65.529,26.948,65.247,27.458,64.735,28.383z"/>
</g>
</svg>
