<?xml version="1.0" encoding="utf-8"?>
<!DOCTYPE svg PUBLIC "-//W3C//DTD SVG 1.1//EN" "http://www.w3.org/Graphics/SVG/1.1/DTD/svg11.dtd">
<svg version="1.1" id="Layer_1" xmlns="http://www.w3.org/2000/svg" xmlns:xlink="http://www.w3.org/1999/xlink" x="0px" y="0px"
	 width="91px" height="91px" viewBox="0 0 91 91" enable-background="new 0 0 91 91" xml:space="preserve">
<g>
	<path fill="#fff" stroke="#333333" stroke-linecap="round" stroke-linejoin="round" stroke-miterlimit="10" d="M28.043,36.595l-0.01,0.66c0.031,4.356,1.067,6.229,2.164,8.21l0.193,0.348c1.174,2.021,2.318,4.357,2.286,8.678
		c-0.008,6.457,1.208,9.857,2.231,11.576c1.061,1.77,1.859,2.846,4.021,2.846c2.057,0,3.26-1.736,3.383-3.408
		c0.077-0.779,0.092-1.66,0.106-2.592c0.032-2.057,0.074-4.615,0.864-7.273c0.313-1.023,0.668-2.184,1.336-3.189
		c0.328-0.496,1.053-1.023,1.745-1.023c0.188,0,0.761,0,1.369,0.98c0.667,1.074,1.077,2.281,1.39,3.316
		c0.77,2.576,1.102,5.563,0.891,7.984c-0.158,1.795,0.198,3.18,1.057,4.117c0.924,1.008,2.057,1.088,2.382,1.088h0.001
		c1.964,0,2.859-0.918,4.02-2.848c1.021-1.717,2.237-5.115,2.233-11.582c-0.028-4.313,1.065-6.563,2.306-8.705l0.172-0.311
		c1.094-1.981,2.129-3.852,2.17-8.224c0-0.137-0.004-0.275-0.008-0.42l-0.008-0.293c-0.118-3.166-1.344-5.51-3.762-7.178
		c-1.947-1.313-4.663-2.035-7.738-2.035c-2.359,0-4.836,0.477-6.646,1.274c-1.424-0.63-3.273-1.061-5.221-1.216
		c-0.053-0.004-0.102-0.01-0.157-0.006l-3.133,0.04c-0.058,0.001-0.114,0.005-0.171,0.011c-2.239,0.256-4.213,0.924-5.722,1.941
		C29.383,31.022,28.158,33.368,28.043,36.595z M33.704,32.171c1.026-0.692,2.445-1.162,4.108-1.362l2.963-0.038
		c1.558,0.133,3.049,0.48,4.111,0.963l0.563,0.25l4.139,2.199c0.254,0.135,0.527,0.199,0.797,0.199c0.608,0,1.197-0.328,1.502-0.903
		c0.441-0.829,0.125-1.858-0.703-2.299l-0.557-0.296c0.747-0.107,1.528-0.167,2.304-0.167c2.279,0,4.374,0.53,5.729,1.444
		c1.072,0.739,2.182,1.852,2.279,4.459l0.014,0.607c-0.033,3.496-0.715,4.729-1.746,6.595l-0.156,0.283
		c-1.346,2.324-2.778,5.236-2.745,10.389c0.004,5.982-1.098,8.727-1.751,9.824c-0.58,0.967-0.801,1.156-0.822,1.176
		c-0.005,0.002-0.046,0.012-0.168,0.016c-0.061-0.088-0.256-0.463-0.164-1.506c0.251-2.871-0.121-6.244-1.021-9.258
		c-0.378-1.254-0.882-2.725-1.757-4.131c-1.035-1.67-2.547-2.59-4.259-2.59c-1.757,0-3.554,0.998-4.578,2.543
		c-0.942,1.418-1.411,2.955-1.755,4.076c-0.001,0.004-0.031,0.104-0.033,0.107c-0.896,3.023-0.942,5.842-0.979,8.105
		c-0.015,0.896-0.027,1.672-0.094,2.354c-0.008,0.096-0.047,0.221-0.086,0.299c-0.084,0-0.14-0.004-0.17-0.004
		c-0.018,0-0.027,0.002-0.027,0.004c-0.101-0.084-0.322-0.363-0.814-1.186c-0.657-1.104-1.758-3.848-1.752-9.818
		c0.039-5.168-1.396-8.08-2.727-10.367l-0.178-0.32c-1.031-1.864-1.713-3.097-1.738-6.575l0.008-0.588
		C31.537,34.014,32.646,32.901,33.704,32.171z"/>
	<path fill="#fff" stroke="#333333" stroke-linecap="round" stroke-linejoin="round" stroke-miterlimit="10" d="M45.794,20.753c0.938,0,1.7-0.762,1.7-1.7v-5.452c0-0.939-0.762-1.7-1.7-1.7s-1.7,0.761-1.7,1.7v5.452
		C44.094,19.991,44.855,20.753,45.794,20.753z"/>
	<path fill="#fff" stroke="#333333" stroke-linecap="round" stroke-linejoin="round" stroke-miterlimit="10" d="M45.794,72.076c-0.938,0-1.7,0.76-1.7,1.699v5.453c0,0.938,0.762,1.699,1.7,1.699s1.7-0.762,1.7-1.699v-5.453
		C47.494,72.836,46.732,72.076,45.794,72.076z"/>
	<path fill="#fff" stroke="#333333" stroke-linecap="round" stroke-linejoin="round" stroke-miterlimit="10" d="M71.854,46.814c0,0.939,0.761,1.699,1.7,1.699h5.452c0.938,0,1.7-0.76,1.7-1.699s-0.762-1.701-1.7-1.701h-5.452
		C72.615,45.113,71.854,45.875,71.854,46.814z"/>
	<path fill="#fff" stroke="#333333" stroke-linecap="round" stroke-linejoin="round" stroke-miterlimit="10" d="M18.833,48.514c0.938,0,1.7-0.76,1.7-1.699s-0.762-1.701-1.7-1.701h-5.452c-0.939,0-1.7,0.762-1.7,1.701
		s0.761,1.699,1.7,1.699H18.833z"/>
	<path fill="#fff" stroke="#333333" stroke-linecap="round" stroke-linejoin="round" stroke-miterlimit="10" d="M58.552,24.099c0.266,0.152,0.555,0.224,0.841,0.224c0.59,0,1.164-0.309,1.479-0.858l2.699-4.738
		c0.465-0.815,0.18-1.854-0.635-2.318c-0.816-0.466-1.855-0.181-2.319,0.635l-2.7,4.738C57.451,22.597,57.736,23.634,58.552,24.099z
		"/>
	<path fill="#fff" stroke="#333333" stroke-linecap="round" stroke-linejoin="round" stroke-miterlimit="10" d="M30.83,69.33l-2.699,4.736c-0.465,0.816-0.181,1.854,0.635,2.318c0.266,0.152,0.555,0.223,0.84,0.223
		c0.592,0,1.166-0.309,1.479-0.857l2.699-4.736c0.465-0.816,0.181-1.854-0.635-2.318C32.333,68.229,31.294,68.514,30.83,69.33z"/>
	<path fill="#fff" stroke="#333333" stroke-linecap="round" stroke-linejoin="round" stroke-miterlimit="10" d="M70.614,59.008c-0.817-0.463-1.854-0.18-2.319,0.637c-0.464,0.816-0.18,1.854,0.637,2.318l4.738,2.699
		c0.266,0.15,0.555,0.223,0.84,0.223c0.591,0,1.166-0.309,1.479-0.859c0.465-0.816,0.18-1.854-0.636-2.318L70.614,59.008z"/>
	<path fill="#fff" stroke="#333333" stroke-linecap="round" stroke-linejoin="round" stroke-miterlimit="10" d="M16.646,32.178l4.738,2.698c0.266,0.15,0.555,0.223,0.84,0.223c0.591,0,1.166-0.309,1.479-0.859
		c0.465-0.815,0.18-1.854-0.636-2.318l-4.737-2.697c-0.816-0.465-1.855-0.181-2.319,0.636
		C15.547,30.675,15.831,31.714,16.646,32.178z"/>
	<path fill="#fff" stroke="#333333" stroke-linecap="round" stroke-linejoin="round" stroke-miterlimit="10" d="M69.442,34.153c0.295,0,0.593-0.076,0.865-0.237L75,31.136c0.807-0.479,1.074-1.521,0.596-2.33
		c-0.479-0.807-1.521-1.074-2.33-0.596l-4.691,2.781c-0.808,0.479-1.074,1.521-0.596,2.329
		C68.296,33.856,68.861,34.153,69.442,34.153z"/>
	<path fill="#fff" stroke="#333333" stroke-linecap="round" stroke-linejoin="round" stroke-miterlimit="10" d="M21.506,58.9l-4.691,2.779c-0.809,0.479-1.074,1.521-0.596,2.33c0.316,0.535,0.883,0.832,1.463,0.832
		c0.295,0,0.594-0.076,0.865-0.236l4.691-2.779c0.809-0.479,1.074-1.521,0.596-2.33C23.355,58.689,22.313,58.422,21.506,58.9z"/>
	<path fill="#fff" stroke="#333333" stroke-linecap="round" stroke-linejoin="round" stroke-miterlimit="10" d="M58.855,69.029c-0.807,0.479-1.074,1.521-0.596,2.33l2.779,4.689c0.317,0.535,0.883,0.834,1.464,0.834
		c0.295,0,0.593-0.078,0.865-0.238c0.808-0.479,1.074-1.521,0.596-2.33l-2.778-4.689C60.707,68.818,59.664,68.553,58.855,69.029z"/>
	<path fill="#fff" stroke="#333333" stroke-linecap="round" stroke-linejoin="round" stroke-miterlimit="10" d="M30.35,24.288c0.317,0.535,0.883,0.833,1.464,0.833c0.295,0,0.594-0.077,0.865-0.237c0.808-0.479,1.074-1.521,0.596-2.33
		l-2.779-4.688c-0.478-0.808-1.522-1.073-2.329-0.596c-0.808,0.479-1.074,1.522-0.596,2.329L30.35,24.288z"/>
</g>
</svg>
