<?xml version="1.0" encoding="utf-8"?>
<!DOCTYPE svg PUBLIC "-//W3C//DTD SVG 1.1//EN" "http://www.w3.org/Graphics/SVG/1.1/DTD/svg11.dtd">
<svg version="1.1" id="Layer_1" xmlns="http://www.w3.org/2000/svg" xmlns:xlink="http://www.w3.org/1999/xlink" x="0px" y="0px"
	 width="91px" height="91px" viewBox="0 0 91 91" enable-background="new 0 0 91 91" xml:space="preserve">
<g>
	<path fill="#fff" stroke="#333333" stroke-linecap="round" stroke-linejoin="round" stroke-miterlimit="10" d="M28.037,66.193c0.42,0.152,0.85,0.23,1.277,0.23c1.867,0,3.186-1.434,3.734-2.631c0.428-0.893,0.832-1.947,1.258-3.063
		c0.967-2.525,2.168-5.668,4.33-8.588c0.865-1.146,1.846-2.447,3.176-3.43c0.578-0.428,1.4-0.691,2.145-0.691
		c1.338,0,2.146,0.762,2.475,2.332c0.34,1.627,0.313,3.27,0.23,4.789c-0.215,3.551-1.154,7.408-2.516,10.32
		c-0.92,1.977-1.102,3.682-0.535,5.066c0.588,1.445,1.766,1.982,2.133,2.121c0.432,0.156,1.014,0.338,1.674,0.338l0,0
		c1.342,0,2.482-0.715,4-1.947c1.961-1.596,4.889-5.129,7.715-12.908c1.92-5.381,4.41-7.781,6.822-9.801l0.328-0.285
		c2.27-1.969,4.229-3.67,6.174-8.872c0.063-0.166,0.123-0.341,0.184-0.521l0.117-0.337c1.229-3.8,0.809-6.965-1.328-9.975
		c-1.74-2.398-4.668-4.433-8.234-5.724c-2.461-0.901-5.213-1.418-7.551-1.418c-0.383,0-0.75,0.014-1.078,0.04l-0.125,0.008
		l-0.07-0.066c-1.416-1.396-3.467-2.746-5.775-3.804c-0.047-0.022-0.098-0.042-0.146-0.06l-3.834-1.34
		c-0.053-0.018-0.105-0.034-0.16-0.047c-2.736-0.662-5.359-0.734-7.602-0.177c-3.555,0.928-5.91,3.081-7.426,6.817l-0.313,0.816
		c-1.852,5.212-1.447,7.771-0.98,10.733l0.076,0.492c0.545,3.055,0.91,6.484-1.094,11.862c-2.838,7.77-2.871,12.357-2.396,14.844
		C25.254,64.064,25.73,65.355,28.037,66.193z M30.307,47.654c2.299-6.171,1.852-10.274,1.258-13.599l-0.072-0.463
		c-0.426-2.71-0.734-4.668,0.818-9.041l0.283-0.742c1.092-2.688,2.623-4.113,5.1-4.76c1.641-0.406,3.713-0.347,5.883,0.168
		l3.674,1.285c1.902,0.879,3.623,2.006,4.752,3.119l0.586,0.559l4.084,4.531c0.336,0.373,0.799,0.563,1.264,0.563
		c0.404,0,0.813-0.145,1.137-0.438c0.697-0.629,0.754-1.704,0.125-2.401l-1.521-1.688c1.43,0.188,2.947,0.55,4.355,1.065
		c2.898,1.049,5.32,2.699,6.637,4.513c1.492,2.103,1.748,4.18,0.869,6.905l-0.109,0.315c-0.055,0.156-0.107,0.308-0.156,0.444
		c-1.643,4.385-3.141,5.687-5.215,7.485l-0.309,0.27c-2.625,2.197-5.611,5.059-7.814,11.234c-2.691,7.412-5.328,10.34-6.66,11.422
		c-1.205,0.98-1.674,1.186-1.855,1.186c-0.098,0-0.266-0.043-0.469-0.115c-0.371-0.184-0.395-1.125,0.279-2.572
		c1.553-3.326,2.584-7.537,2.828-11.564c0.094-1.762,0.123-3.67-0.297-5.68c-0.66-3.152-2.828-5.035-5.803-5.035
		c-1.477,0-2.994,0.492-4.164,1.355c-1.729,1.277-2.916,2.854-3.871,4.119c-0.002,0.006-0.059,0.078-0.061,0.082
		c-2.395,3.236-3.689,6.619-4.73,9.338c-0.418,1.094-0.779,2.039-1.16,2.834c-0.164,0.357-0.504,0.674-0.656,0.674
		c-0.027,0-0.066-0.008-0.115-0.025c-0.686-0.248-0.74-0.27-1.141-2.32C27.738,58.99,27.604,55.057,30.307,47.654z"/>
	<path fill="#fff" stroke="#333333" stroke-linecap="round" stroke-linejoin="round" stroke-miterlimit="10" d="M20.217,53.172l-1.109,2.311c-0.043,0.092-0.078,0.186-0.105,0.283c-2.156,7.793,2.539,18.32,13.883,21.736
		c3,0.902,5.986,1.336,8.844,1.336c8.426-0.002,15.723-3.766,18.867-10.313l6.795-14.15c0.008-0.014,0.705-1.51,1.809-1.51h11.191
		c0.939,0,1.701-0.762,1.701-1.699c0-0.939-0.762-1.701-1.701-1.701H69.199c-2.707,0-4.379,2.258-4.906,3.514l-6.762,14.074
		c-3.48,7.25-13.432,10.275-23.666,7.193c-9.309-2.803-13.258-11.193-11.625-17.434l1.16-2.416c0.32-0.732,0.445-1.971-0.258-3.045
		c-0.83-1.27-2.434-1.887-4.902-1.887h-5.268c-0.938,0-1.699,0.762-1.699,1.701c0,0.938,0.762,1.699,1.699,1.699h5.268
		C19.477,52.865,20.02,53.068,20.217,53.172z"/>
</g>
</svg>
