<?xml version="1.0" encoding="utf-8"?>
<!DOCTYPE svg PUBLIC "-//W3C//DTD SVG 1.1//EN" "http://www.w3.org/Graphics/SVG/1.1/DTD/svg11.dtd">
<svg version="1.1" id="Layer_1" xmlns="http://www.w3.org/2000/svg" xmlns:xlink="http://www.w3.org/1999/xlink" x="0px" y="0px"
	 width="91px" height="91px" viewBox="0 0 91 91" enable-background="new 0 0 91 91" xml:space="preserve">
<g>
	<polygon fill="#fff" stroke="#333333" stroke-linecap="round" stroke-linejoin="round" stroke-miterlimit="10" points="55.156,66.93 56.719,67.279 57.459,63.961 55.156,63.447 55.156,60.092 51.756,60.092 51.756,62.689 39.379,59.93 
		39.379,56.574 35.979,56.574 35.979,59.172 34.416,58.824 33.676,62.143 35.979,62.654 35.979,62.658 55.156,66.932 	"/>
	<path fill="#fff" stroke="#333333" stroke-linecap="round" stroke-linejoin="round" stroke-miterlimit="10" d="M35.979,65.734v8.18h1.061l7.408,6.506c0.322,0.281,0.723,0.424,1.123,0.424s0.801-0.143,1.121-0.424l7.406-6.506h1.059
		v-4.666h-3.4v1.266H39.379v-4.779H35.979z M48.945,73.914l-3.375,2.967l-3.379-2.967H48.945z"/>
	<path fill="#fff" stroke="#333333" stroke-linecap="round" stroke-linejoin="round" stroke-miterlimit="10" d="M29.615,42.025l0.369,1.201h2.361v6.014h3.633v0.764l-1.563-0.348l-0.74,3.318l2.303,0.514v0.01l19.178,4.273v-0.008
		l1.563,0.348l0.74-3.318l-2.303-0.514V49.24h3.633v-6.014h1.086l1.234-0.001l0.383-1.173c0.01-0.032,1.063-3.253,2.32-5.979
		c1.518-3.292,3.107-7.199,3.391-11.217c0.014-0.22,0.008-0.443-0.004-0.676l-0.01-0.287c-0.143-3.767-1.535-6.436-4.4-8.411
		c-2.299-1.552-5.52-2.406-9.064-2.406h-0.113c-2.859,0-5.855,0.584-8.004,1.559l-0.049,0.021l-0.037-0.017
		c-1.701-0.773-3.945-1.305-6.318-1.495l-0.08-0.006l-3.875,0.051L35.076,13.2c-2.656,0.304-4.992,1.093-6.768,2.292
		c-2.854,1.967-4.244,4.637-4.383,8.471c0,1.081,0.238,5.146,3.344,12.04C28.805,39.403,29.607,41.999,29.615,42.025z
		 M51.756,53.521l-12.377-2.76V49.24h12.377V53.521z M55.389,45.839h-0.232H35.979h-0.232v-2.612h19.643V45.839z M30.225,18.3
		c1.293-0.873,3.074-1.464,5.156-1.712l3.627-0.048c1.936,0.163,3.793,0.597,5.119,1.2l0.686,0.306l7.396,3.895
		c0.252,0.133,0.523,0.195,0.791,0.195c0.609,0,1.201-0.33,1.504-0.908c0.438-0.831,0.119-1.859-0.711-2.296l-3.936-2.073
		c1.201-0.244,2.5-0.383,3.754-0.383h0.113c2.834,0,5.445,0.666,7.15,1.815c1.943,1.341,2.816,3.054,2.914,5.685
		c0.002,0.127,0.008,0.25,0.014,0.371c0.006,0.099,0.014,0.193,0.008,0.279c-0.193,2.755-1.117,5.753-3.086,10.024
		c-0.867,1.883-1.625,3.929-2.064,5.176H32.465c-0.4-1.144-1.1-3.012-2.096-5.22c-2.961-6.572-3.043-10.244-3.043-10.588
		C27.422,21.345,28.293,19.632,30.225,18.3z"/>
</g>
</svg>
