<?xml version="1.0" encoding="utf-8"?>
<!DOCTYPE svg PUBLIC "-//W3C//DTD SVG 1.1//EN" "http://www.w3.org/Graphics/SVG/1.1/DTD/svg11.dtd">
<svg version="1.1" id="Layer_1" xmlns="http://www.w3.org/2000/svg" xmlns:xlink="http://www.w3.org/1999/xlink" x="0px" y="0px"
	 width="91px" height="91px" viewBox="0 0 91 91" enable-background="new 0 0 91 91" xml:space="preserve">
<g>
	<path fill="#fff" stroke="#333333" stroke-linecap="round" stroke-linejoin="round" stroke-miterlimit="10"  d="M82.861,42.233h-2.082c0.244-1.071,0.398-2.355,0.414-3.99c0-0.133-0.004-0.268-0.008-0.406l-0.008-0.307
		c-0.117-3.164-1.344-5.51-3.762-7.179c-1.947-1.312-4.664-2.034-7.738-2.034c-2.359,0-4.836,0.477-6.646,1.274
		c-1.424-0.63-3.273-1.061-5.221-1.216c-0.053-0.004-0.105-0.006-0.158-0.006l-3.133,0.04c-0.057,0.001-0.113,0.005-0.17,0.011
		c-2.24,0.256-4.213,0.924-5.721,1.941c-0.83,0.572-1.508,1.231-2.061,1.975c-0.553-0.744-1.236-1.408-2.072-1.985
		c-1.949-1.312-4.664-2.034-7.74-2.034c-2.359,0-4.836,0.477-6.645,1.274c-1.426-0.63-3.273-1.061-5.223-1.216
		c-0.051-0.004-0.102-0.006-0.156-0.006L21.6,28.41c-0.059,0.001-0.115,0.005-0.172,0.011c-2.238,0.256-4.213,0.924-5.721,1.941
		c-2.406,1.66-3.631,4.006-3.744,7.232l-0.012,0.66c0.012,1.629,0.164,2.91,0.408,3.979h-2.078c-0.938,0-1.699,0.762-1.699,1.701
		c0,0.938,0.762,1.7,1.699,1.7h3.383c0.148,0.279,0.299,0.553,0.453,0.83l0.191,0.348c1.176,2.021,2.32,4.357,2.287,8.678
		c-0.008,6.457,1.209,9.857,2.232,11.576c1.059,1.77,1.857,2.846,4.02,2.846c2.057,0,3.262-1.736,3.383-3.408
		c0.078-0.779,0.092-1.66,0.107-2.592c0.033-2.057,0.074-4.615,0.85-7.23c0.088-0.303,0.629-1.814,2.645-1.814l0.203,0.004
		c2.289,0.104,2.963,1.742,3.008,1.852c0.768,2.574,1.102,5.559,0.891,7.984c-0.158,1.795,0.197,3.18,1.057,4.117
		c0.924,1.008,2.055,1.088,2.381,1.088h0.002c1.963,0,2.857-0.918,4.02-2.85c1.02-1.715,2.236-5.115,2.232-11.58
		c-0.029-4.311,1.115-6.648,2.307-8.705l0.172-0.313c0.152-0.275,0.305-0.551,0.451-0.83h0.031c0.148,0.279,0.299,0.553,0.451,0.83
		l0.193,0.348c1.174,2.021,2.318,4.357,2.285,8.678c-0.008,6.457,1.209,9.857,2.232,11.576c1.059,1.77,1.857,2.846,4.021,2.846
		c2.057,0,3.26-1.736,3.383-3.408c0.078-0.779,0.092-1.66,0.105-2.592c0.033-2.057,0.074-4.615,0.852-7.23
		c0.088-0.303,0.627-1.814,2.645-1.814l0.203,0.004c2.289,0.104,2.963,1.742,3.006,1.852c0.77,2.574,1.102,5.559,0.891,7.984
		c-0.158,1.795,0.197,3.18,1.057,4.117c0.924,1.008,2.057,1.088,2.381,1.088h0.002c1.963,0,2.859-0.918,4.02-2.85
		c1.021-1.715,2.236-5.115,2.232-11.58c-0.027-4.311,1.115-6.648,2.309-8.705l0.172-0.313c0.152-0.275,0.303-0.551,0.451-0.83h3.385
		c0.938,0,1.699-0.762,1.699-1.7C84.561,42.995,83.799,42.233,82.861,42.233z M48.283,37.655c0.094-2.642,1.203-3.754,2.262-4.484
		c1.025-0.692,2.443-1.162,4.107-1.362l2.963-0.038c1.557,0.133,3.049,0.48,4.111,0.963l0.559,0.249l4.143,2.2
		c0.254,0.135,0.527,0.199,0.795,0.199c0.609,0,1.199-0.328,1.504-0.903c0.439-0.829,0.125-1.858-0.703-2.299l-0.557-0.296
		c0.748-0.107,1.529-0.167,2.305-0.167c2.279,0,4.373,0.53,5.729,1.444c1.072,0.739,2.182,1.852,2.279,4.455l0.014,0.611
		c-0.018,1.809-0.211,3.008-0.533,4.006h-8.09v-2.707c0-0.939-0.762-1.7-1.701-1.7h-8.814c-0.939,0-1.701,0.761-1.701,1.7v2.707
		h-8.152c-0.322-0.995-0.516-2.189-0.527-3.99L48.283,37.655z M60.354,41.227h5.416v5.416h-5.416V41.227z M15.352,38.243l0.01-0.588
		c0.094-2.642,1.203-3.754,2.262-4.484c1.025-0.692,2.445-1.162,4.107-1.362l2.965-0.038c1.557,0.133,3.047,0.48,4.111,0.963
		l0.559,0.249l4.141,2.2c0.256,0.135,0.527,0.199,0.797,0.199c0.609,0,1.197-0.328,1.502-0.903c0.441-0.829,0.127-1.858-0.703-2.299
		l-0.557-0.296c0.748-0.107,1.529-0.167,2.305-0.167c2.279,0,4.373,0.53,5.73,1.444c1.072,0.739,2.18,1.852,2.277,4.455l0.014,0.611
		c-0.016,1.809-0.209,3.008-0.531,4.006h-8.09v-2.707c0-0.939-0.762-1.7-1.699-1.7h-8.816c-0.938,0-1.699,0.761-1.699,1.7v2.707
		h-8.156C15.557,41.238,15.365,40.044,15.352,38.243z M27.436,41.227h5.414v5.416h-5.414V41.227z M40.225,55.494
		c0.004,5.98-1.098,8.727-1.75,9.824c-0.582,0.967-0.803,1.156-0.822,1.176c-0.006,0.002-0.047,0.012-0.168,0.016
		c-0.061-0.088-0.256-0.463-0.164-1.506c0.25-2.875-0.123-6.248-1.037-9.305c-0.055-0.164-1.391-4.012-6.094-4.225
		c-0.121-0.004-0.24-0.008-0.357-0.008c-3.811,0-5.547,2.844-5.914,4.285c-0.898,3.023-0.943,5.842-0.98,8.105
		c-0.014,0.896-0.025,1.672-0.094,2.354c-0.006,0.096-0.047,0.221-0.086,0.299c-0.084,0-0.139-0.004-0.17-0.004
		c-0.018,0-0.025,0.002-0.027,0.004c-0.1-0.084-0.322-0.363-0.813-1.186c-0.658-1.104-1.76-3.85-1.752-9.818
		c0.035-4.809-1.205-7.654-2.449-9.871h6.488v2.707c0,0.939,0.762,1.701,1.699,1.701h8.816c0.938,0,1.699-0.762,1.699-1.701v-2.707
		h6.424C41.422,47.875,40.193,50.717,40.225,55.494z M73.145,55.494c0.004,5.98-1.096,8.727-1.75,9.824
		c-0.58,0.967-0.801,1.156-0.822,1.176c-0.004,0.002-0.045,0.012-0.168,0.016c-0.061-0.088-0.256-0.463-0.164-1.506
		c0.25-2.875-0.121-6.248-1.035-9.305c-0.055-0.164-1.391-4.012-6.094-4.225c-0.123-0.004-0.242-0.008-0.357-0.008
		c-3.811,0-5.547,2.844-5.916,4.285c-0.896,3.023-0.943,5.842-0.979,8.105c-0.016,0.896-0.027,1.672-0.094,2.354
		c-0.008,0.096-0.047,0.221-0.086,0.299c-0.084,0-0.141-0.004-0.17-0.004c-0.018,0-0.027,0.002-0.027,0.004
		c-0.102-0.084-0.322-0.363-0.814-1.186c-0.656-1.104-1.76-3.85-1.752-9.818c0.037-4.809-1.203-7.654-2.447-9.871h6.484v2.707
		c0,0.939,0.762,1.701,1.701,1.701h8.814c0.939,0,1.701-0.762,1.701-1.701v-2.707h6.426C74.344,47.875,73.115,50.717,73.145,55.494z
		"/>
</g>
</svg>
