<?xml version="1.0" encoding="utf-8"?>
<!DOCTYPE svg PUBLIC "-//W3C//DTD SVG 1.1//EN" "http://www.w3.org/Graphics/SVG/1.1/DTD/svg11.dtd">
<svg version="1.1" id="Layer_1" xmlns="http://www.w3.org/2000/svg" xmlns:xlink="http://www.w3.org/1999/xlink" x="0px" y="0px"
	 width="91px" height="91px" viewBox="0 0 91 91" enable-background="new 0 0 91 91" xml:space="preserve">
<g>
	<path fill="#fff" stroke="#333333" stroke-linecap="round" stroke-linejoin="round" stroke-miterlimit="10" d="M80.299,38.977c0.939,0,1.701-0.761,1.701-1.7s-0.762-1.7-1.701-1.7h-5.121c-1.525-1.832-6.084-6.226-14.711-6.226
		c-7.824,0-12.295,3.223-14.178,5.014c-2.18-2.073-6.502-5.014-13.566-5.014c-10.602,0-15.059,5.924-15.244,6.176
		c-0.012,0.016-0.018,0.033-0.027,0.05h-4.563c-0.938,0-1.699,0.761-1.699,1.7s0.762,1.7,1.699,1.7h4.262v11.496h-3.965
		c-0.939,0-1.701,0.762-1.701,1.701s0.762,1.699,1.701,1.699h3.965v6.506c0,5.479,4.459,9.938,9.938,9.938h11.27
		c3.424,0,6.449-1.74,8.236-4.383c1.789,2.643,4.814,4.383,8.238,4.383h11.27c5.479,0,9.938-4.459,9.938-9.938v-6.506h4.26
		c0.939,0,1.701-0.76,1.701-1.699s-0.762-1.701-1.701-1.701h-4.26V38.977H80.299z M20.551,37.276c0-0.039-0.002-0.078-0.004-0.117
		c1.059-1.127,4.771-4.408,12.176-4.408c7.498,0,11.184,3.852,12.17,5.08v12.642h-4.756v-4.295c0-0.938-0.762-1.699-1.699-1.699
		h-11.43c-0.939,0-1.701,0.762-1.701,1.699v4.295h-4.756V37.276z M28.707,47.879h8.029v8.027h-8.029V47.879z M38.357,66.916h-11.27
		c-3.604,0-6.537-2.934-6.537-6.537v-6.506h4.756v3.734c0,0.939,0.762,1.699,1.701,1.699h11.43c0.938,0,1.699-0.76,1.699-1.699
		v-3.734h4.756v6.506c0,0.006,0.002,0.012,0.002,0.02C44.883,63.994,41.955,66.916,38.357,66.916z M72.639,60.379
		c0,3.604-2.932,6.537-6.537,6.537h-11.27c-3.6,0-6.527-2.922-6.537-6.518c0-0.008,0-0.014,0-0.02v-6.506h4.758v3.734
		c0,0.939,0.762,1.699,1.701,1.699h11.428c0.939,0,1.701-0.76,1.701-1.699v-3.734h4.756V60.379z M56.453,47.879h8.029v8.027h-8.029
		V47.879z M67.883,50.473v-4.295c0-0.938-0.762-1.699-1.701-1.699H54.754c-0.939,0-1.701,0.762-1.701,1.699v4.295h-4.758V37.276
		c0-0.006-0.002-0.012-0.002-0.018c0-0.033-0.002-0.066-0.004-0.1c1.059-1.127,4.773-4.408,12.178-4.408
		c7.5,0,11.188,3.855,12.172,5.082v12.64H67.883z"/>
	<path fill="#fff" stroke="#333333" stroke-linecap="round" stroke-linejoin="round" stroke-miterlimit="10" d="M15.248,31.827c0.303,0.221,0.654,0.328,1.004,0.328c0.523,0,1.039-0.242,1.373-0.697c0.035-0.047,3.604-4.783,12.5-4.783
		c0.041,0,0.084-0.002,0.125-0.005c0.041-0.005,4.119-0.277,7.457,1.308c0.846,0.402,1.861,0.043,2.266-0.806
		c0.402-0.849,0.041-1.862-0.807-2.265c-3.945-1.875-8.455-1.674-9.1-1.633c-10.559,0.021-15.002,5.924-15.186,6.176
		C14.326,30.208,14.49,31.272,15.248,31.827z"/>
	<path fill="#fff" stroke="#333333" stroke-linecap="round" stroke-linejoin="round" stroke-miterlimit="10" d="M53.02,28.136c0.32,0,0.643-0.088,0.93-0.274c0.205-0.134,5.133-3.233,13.393-0.233c0.879,0.321,1.855-0.134,2.178-1.018
		c0.32-0.882-0.135-1.857-1.018-2.178c-9.967-3.622-16.178,0.424-16.436,0.598c-0.777,0.52-0.982,1.564-0.469,2.344
		C51.924,27.869,52.467,28.136,53.02,28.136z"/>
</g>
</svg>
